M48
;Layer_Color=9474304
;FILE_FORMAT=2:5
INCH,LZ
;TYPE=PLATED
T1F00S00C0.00787
T2F00S00C0.03600
T3F00S00C0.03900
T4F00S00C0.03937
T5F00S00C0.04724
T7F00S00C0.17717
%
T01
X03095Y00025
X03195
X03295
X03395
X03495
X03595
X03695
X03795
X03845Y00125
X03745
X03645
X03695Y00225
X03795
X03845Y00325
X03745
X03645
X03695Y00425
X03795
X03845Y00525
X03745
X03645
X03545
X03445
X03345
X03245
X03145
X03195Y00425
X03095
X03145Y00325
X03195Y00225
X03145Y00125
X03595Y00225
Y00425
Y00625
X03695
X03795
X03845Y00725
X03745
X03645
X03545
X03595Y00825
X03695
X03795
X03495
X03395
Y00625
X03495
X03095
X03045Y00725
X02945
X02845
X02895Y00825
X02995
X03095
X02795
X02495
X02395
X02295
X02195
X02245Y00725
X02345
X02445
X02545
X02295Y00625
X02195
X02245Y00525
X02345
X02295Y00425
X02195
X02245Y00325
X02345
Y00125
X02245
X02145
X02195Y00225
Y00025
X02295
X02095
X01595Y00125
X01495
X01395
X01295
X01195
X01245Y00225
X01345
X01445
X01545
X01595Y00325
X01495
X01395
X01295
X01195
X01245Y00425
X01345
X01445
X01545
X01595Y00525
X01695
X01795
X01845Y00625
X01745
X01645
X01545
X01445
X01345
X01245
X01145
X01195Y00725
X01295
X01395
X01495
X01595
X01695
X01795
X01845Y00825
X01745
X01645
X01545
X01445
X01345
X01245
X01145
X01195Y00525
X01295
X01395
X01495
X01145Y00425
Y00225
X01045
X00945
X00845
X00745
X00645
X00545
X00445
X00495Y00325
X00595
X00695
X00795
X00895
X00995
X01095
X01045Y00425
X00945
X00845
X00745
X00645
X00545
X00445
X00495Y00525
X00595
X00695
X00795
X00895
X00995
X01095
X01045Y00625
X00945
X00845
X00745
X00645
X00545
X00445
X00345
X00245
X00145
X00195Y00725
X00295
X00395
X00495
X00595
X00695
X00795
X00895
X00995
X01095
X01045Y00825
X00945
X00845
X00745
X00645
X00545
X00445
X00345
X00245
X00145
X00095Y00725
Y00525
X00195
X00295
X00395
Y00325
Y00125
X00495
X00595
X00695
X00795
X00895
X01095
Y00925
X00995
X00895
X00795
X00695
X00595
X00495
X00395
X00295
X00195
X00345Y01025
X00445
X00545
X00645
X00745
X00845
X00945
X01045
X01095Y01125
X00995
X00895
X00795
X00695
X00595
X00495
X00395
X00545Y01225
X00645
X00745
X00845
X00945
X01045
X01095Y01325
X00995
X00895
X00795
X00695
X00595
X00745Y01425
X00845
X00945
X01045
X01095Y01925
X01045Y02025
X00945
X0093Y0197
X00795Y01925
X00695
X00595
X00495
X00395
X00295
X00195
X00095
X00145Y02025
X00245
X00345
X00445
X00545
X00645
X00745
X00795Y02125
X00895
X00995
X01095
X01045Y02225
X00945
X00995Y02325
X01095
X00895
X00795
X00695
X00595
X00495
X00395
X00295
X00195
X00095
X00145Y02225
X00245
X00345
X00445
X00545
X00645
X00745
X00695Y02125
X00595
X00495
X00395
X00295
X00195
X00095
X00145Y01825
X00245
X00345
X00445
X00545
X00645
X00745
X00595Y01725
X00495
X00395
X00295
X00195
X00095
X01145Y01825
X01195Y01925
X01295
X01395
X01495
X01595
X01695
X01795
X0186Y0193
X01895Y01925
X01995
X02095
X02195
X02295
X02395
X024Y0188
X02445Y02025
X02545
X02595Y02125
X02495
X02395
X02295
X02195
X02245Y02025
X02345
X02145
X02045
X01945
X0186Y0203
X01745Y02025
X01645
X01695Y02125
X01595
X0148139Y0213861
X0140861Y0211139
X01295Y02125
X0132514Y0220792
X01245Y02225
X01145
X0117639Y0214361
X01145Y02025
X0124139Y0202861
X0132514Y02025
X0144861Y0202139
X01445Y01825
X01545
X01645
X01745
X01845
X01945
X01895Y01725
X01795
X01695
X01595
X01495
X01395
X0135661Y0177956
X01245Y01425
X01145
X01195Y01325
X01295
X01395
X01445Y01225
X01345
X01245
X01145
X01195Y01125
X01295
X01395
X01495
X01595
X01645Y01025
X01545
X01445
X01345
X01245
X01145
X01195Y00925
X01295
X01395
X01495
X01595
X01695
X01795
X02245
X02345
X02445
X02545
X02495Y01025
X02395
X02295
X02195
X02245Y01125
X02345
X02445
X02545
X02495Y01225
X02395
X02295
X02195
X02245Y01325
X02345
X02445
X0244Y01375
X02395Y01425
X02495
X02595
X02295
X02195
X02145Y02225
X02195Y02325
X02295
X02395
X01895
X01795
X01695
X01595Y02395
X01545Y0229
X0144139Y0222861
X01395Y02325
X01295
X01195
X02595Y01925
X02895
X02995
X03045Y02025
X03145
X03195Y02125
X03095
X02995
X02895
X02795
X02845Y02025
X02945
Y02225
X03045
X03145
X03245
X03295Y02325
X03195
X03095
X02995
X02695
X03445Y02225
X03395Y02125
X03445Y02025
X03545
X03645
X03745
X03845
X03795Y02125
X03695
X03745Y02225
X03845
X03795Y02325
X03695
X03645Y02225
X03695Y01925
X03795
X03295
X03195
X03345Y02025
X03295Y01425
X03245Y01325
X03045
X02945
X02995Y01425
X03095
Y01225
X02995
X02895
X02795
X02845Y01125
X02945
X03045
X03095Y01025
X02995
X02895
X02795
X02845Y00925
X02945
X03045
X03145
X03245
X03345
X03295Y01025
X03445Y01125
X03395Y01225
X03595
X03695
X03795
X03845Y01325
X03745
X03695Y01425
X03745Y01125
X03845
X03795Y01025
X03695
X03595
X03645Y00925
X03745
X03845
X02895Y01425
X0292Y0145
X02945Y02425
X03045
X03145
X03245
X03295Y02525
X03195
X03095
X02995
X02895
X02795
X02695
X02745Y02625
X02795Y02725
X02895
X02995
X03095
X03195
X03295
X03395
X03495
X03545Y02825
X03645
X03745
X03845
X03795Y02925
X03845Y03025
X03745
X03795Y03125
X03695
X03595
Y03325
X03695
X03795
X03845Y03225
X03745
X03445
X03345
X03245
X03145
X03045
X02945
X02845
X02745
X02795Y03325
X02895
X02995
X03095
X03195
X03295
X03395
X03495
Y02925
X03395
X03295
X03195
X03095
X02995
X02895
X02945Y03025
X03045
X03145
X03245
X03345
X03295Y03125
X03195
X03095
X02995
X02895
X02795
X02695
X02745Y03025
X02845
X02945Y02825
X03045
X03145
X03245
X03345
X03445
X03695Y02725
X03795
X03845Y02625
X03745
X03795Y02525
X03695
X03745Y02425
X03845
X03645
X03545
X03445
X03375Y0245
X03245Y02625
X03145
X03045
X02945
X02695Y02725
X02745Y02825
Y02425
X02695Y03325
X02595
X02495
X02395
X02295
X02195
X02095
X01995
X01895
X01795
X01695
X01595
X01495
X01395
X01295
X01195
X01245Y03225
X01345
X01445
X01545
X01645
X01595Y03125
X01495
X01395
X01295
X01195
X01145Y03225
X01195Y02925
X01295
X01395
X01495
X01595
X01695
X01795
X01895
X01995
X02095
Y03125
X02195
X02295
X02395
X02495
X02595
X02645Y03225
X02545
X02445
X02345
X02245
Y03025
X02345
X02445
X02545
X02645
Y02825
X02595Y02725
X02495
X02395
X02295
X02195
X02095
X01995
X01895
X01795
X01695
X01595
X01495
X01395
X01295
X01195
X01245Y02825
X01345
X01445
X01545
X01645
X01745
X01845
X01945
X01845Y02625
X01745
X01645
X01545
X01445
X01345
X01245
X01145
X01195Y02525
X01295
X01395
X01445Y02425
X01545
X01645
X01695Y02525
X01795
X01995
X02095
X02195
X02295
X02395
X02495
X02595
X0262Y0258
X02645Y02625
Y02425
X02445
X02345
X02245
X02145
Y02625
X0217Y0261
X02245Y02625
X02345
X02445
X01595Y02525
X01345Y02425
X01245
X01145
Y02825
X01045
X01095Y02925
X00995
X00895
X00795
X00695
X00595
X00495
X00395
X00295
X00195
X00095
X00145Y03025
X00245
X00345
X00445
X00545
X00645
X00745
X00845
X00945
X01045
X01095Y03125
X00995
X00895
X00795
X00695
X00595
X00495
X00395
X00295
X00195
X00095
X00145Y03225
X00245
X00345
X00445
X00545
X00645
X00745
X00845
X00945
X01045
X01095Y03325
X00995
X00895
X00795
X00695
X00595
X00495
X00395
X00295
X00195
X00095
X00145Y02825
X00245
X00345
X00445
X00545
X00645
X00745
X00845
X00895Y02725
X00995
X01095
X01045Y02625
X00945
X00995Y02525
X01095
X01045Y02425
X00945
X00895Y02525
X00795
X00695
X00595
X00495
X00395
X00295
X00195
X00095
X00145Y02625
X00245
X00345
X00445
X00545
X00645
X00745
X00795Y02725
X00695
X00595
X00495
X00395
X00295
X00195
X00095
X00145Y02425
X00245
X00345
X00445
X00545
X00645
X00745
T02
X01715Y03045
X01815
X01915
X02015
X02115
T03
X0346Y0068
X0081Y01495
X00685Y0173
X0114Y01495
X0257Y01195
X02545Y0223
X0248Y0234
X0293
X02855Y0223
X03215Y0144
X03165Y01285
X035Y0111
X0378Y0144
X01955Y0263
T04
X01715Y03235
X01815
X01915
X02015
X02115
T05
X02905Y00255
X03105
X0232Y00235
X0212
X01075Y0024
X00875
T07
X03385Y0029
X0262Y00295
X0177Y0029
X0018
M30
