G04*
G04 #@! TF.GenerationSoftware,Altium Limited,Altium Designer,20.2.7 (254)*
G04*
G04 Layer_Physical_Order=1*
G04 Layer_Color=255*
%FSLAX24Y24*%
%MOIN*%
G70*
G04*
G04 #@! TF.SameCoordinates,C515DB23-E466-4867-BC0D-23839EB9CC1E*
G04*
G04*
G04 #@! TF.FilePolarity,Positive*
G04*
G01*
G75*
%ADD12C,0.0100*%
%ADD17C,0.0150*%
%ADD18R,0.0500X0.0550*%
%ADD19R,0.0945X0.1299*%
%ADD20R,0.0945X0.0394*%
%ADD21O,0.0236X0.0768*%
%ADD22R,0.0610X0.0827*%
%ADD23R,0.0650X0.0600*%
%ADD24R,0.0600X0.0650*%
%ADD25R,0.2185X0.2402*%
%ADD26R,0.0374X0.1063*%
%ADD27R,0.0374X0.0315*%
%ADD28O,0.0236X0.0827*%
%ADD29R,0.0315X0.0374*%
%ADD30R,0.0630X0.1060*%
%ADD31R,0.0550X0.0500*%
%ADD32R,0.0354X0.0591*%
%ADD33R,0.0236X0.0374*%
%ADD34O,0.0236X0.0571*%
%ADD35R,0.0374X0.0236*%
%ADD63C,0.0200*%
%ADD64C,0.1000*%
%ADD65C,0.0600*%
%ADD66C,0.0500*%
%ADD67C,0.0350*%
%ADD68C,0.0060*%
%ADD69C,0.0400*%
%ADD70R,0.3150X0.3937*%
%ADD71R,0.0787X0.0984*%
%ADD72R,0.1600X0.1000*%
%ADD73R,0.1000X0.1600*%
%ADD74C,0.0800*%
%ADD75O,0.0650X0.0900*%
%ADD76R,0.0650X0.0900*%
%ADD77C,0.0591*%
%ADD78R,0.0591X0.0591*%
%ADD79C,0.0177*%
%ADD80C,0.0157*%
G36*
X17331Y32054D02*
X17314Y32048D01*
X17299Y32038D01*
X17286Y32024D01*
X17275Y32006D01*
X17266Y31984D01*
X17259Y31958D01*
X17254Y31928D01*
X17251Y31894D01*
X17250Y31856D01*
X17050D01*
X17049Y31894D01*
X17046Y31928D01*
X17041Y31958D01*
X17034Y31984D01*
X17025Y32006D01*
X17014Y32024D01*
X17001Y32038D01*
X16986Y32048D01*
X16969Y32054D01*
X16950Y32056D01*
X17350D01*
X17331Y32054D01*
D02*
G37*
G36*
X17251Y31061D02*
X17254Y31026D01*
X17259Y30996D01*
X17266Y30970D01*
X17275Y30948D01*
X17286Y30930D01*
X17299Y30916D01*
X17314Y30906D01*
X17331Y30900D01*
X17350Y30898D01*
X16950D01*
X16969Y30900D01*
X16986Y30906D01*
X17001Y30916D01*
X17014Y30930D01*
X17025Y30948D01*
X17034Y30970D01*
X17041Y30996D01*
X17046Y31026D01*
X17049Y31061D01*
X17050Y31099D01*
X17250D01*
X17251Y31061D01*
D02*
G37*
G36*
X16827Y30250D02*
X16825Y30269D01*
X16819Y30286D01*
X16809Y30301D01*
X16795Y30314D01*
X16777Y30325D01*
X16755Y30334D01*
X16729Y30341D01*
X16699Y30346D01*
X16664Y30349D01*
X16626Y30350D01*
Y30550D01*
X16664Y30551D01*
X16699Y30554D01*
X16729Y30559D01*
X16755Y30566D01*
X16777Y30575D01*
X16795Y30586D01*
X16809Y30599D01*
X16819Y30614D01*
X16825Y30631D01*
X16827Y30650D01*
Y30250D01*
D02*
G37*
G36*
X38788Y18200D02*
X20000D01*
Y17137D01*
X13097D01*
Y17462D01*
X12603D01*
Y17318D01*
X12488D01*
Y17404D01*
X11994D01*
Y17137D01*
X11406D01*
Y17382D01*
X11446D01*
Y17550D01*
X11159D01*
X10872D01*
Y17382D01*
X10912D01*
Y17137D01*
X10722D01*
Y17301D01*
X10500D01*
X10278D01*
Y17137D01*
X10182D01*
Y17646D01*
X10168Y17716D01*
X10128Y17774D01*
X10069Y17814D01*
X10000Y17828D01*
X9931Y17814D01*
X9872Y17774D01*
X9832Y17716D01*
X9818Y17646D01*
Y17137D01*
X9682D01*
Y17646D01*
X9668Y17716D01*
X9628Y17774D01*
X9612Y17785D01*
Y17871D01*
X9829Y18089D01*
X9829Y18089D01*
X9854Y18125D01*
X10150D01*
Y18500D01*
X10200D01*
Y18550D01*
X10550D01*
Y18775D01*
Y19100D01*
X10200D01*
Y19150D01*
X10150D01*
Y19525D01*
X9862D01*
Y20104D01*
X10368Y20609D01*
X17453D01*
Y20504D01*
X17947D01*
Y20939D01*
X17453D01*
Y20834D01*
X10322D01*
X10322Y20834D01*
X10279Y20825D01*
X10242Y20801D01*
X10242Y20801D01*
X9671Y20229D01*
X9646Y20193D01*
X9638Y20150D01*
X9638Y20150D01*
Y19523D01*
X9610Y19485D01*
X9463D01*
Y19700D01*
X9451Y19762D01*
X9415Y19815D01*
X9362Y19851D01*
X9300Y19863D01*
X9238Y19851D01*
X9185Y19815D01*
X9149Y19762D01*
X9137Y19700D01*
Y19485D01*
X8990D01*
Y18815D01*
Y18421D01*
X8885Y18315D01*
X8849Y18262D01*
X8837Y18200D01*
Y17723D01*
X8832Y17716D01*
X8818Y17646D01*
Y17137D01*
X8597D01*
Y17519D01*
X8513D01*
Y26982D01*
X11818Y30287D01*
X16620D01*
X16624Y30285D01*
X16661Y30284D01*
X16690Y30282D01*
X16715Y30277D01*
X16734Y30272D01*
X16748Y30267D01*
X16756Y30262D01*
X16760Y30258D01*
X16761Y30257D01*
X16762Y30255D01*
X16763Y30243D01*
X16765Y30239D01*
Y29940D01*
X17535D01*
Y30960D01*
X17361D01*
X17357Y30962D01*
X17345Y30963D01*
X17343Y30964D01*
X17342Y30965D01*
X17338Y30969D01*
X17333Y30977D01*
X17328Y30991D01*
X17323Y31010D01*
X17318Y31035D01*
X17316Y31064D01*
X17315Y31100D01*
X17313Y31105D01*
Y31850D01*
X17315Y31854D01*
X17316Y31890D01*
X17318Y31920D01*
X17323Y31944D01*
X17328Y31963D01*
X17333Y31977D01*
X17338Y31985D01*
X17341Y31988D01*
X17343Y31989D01*
X17345Y31990D01*
X17357Y31991D01*
X17363Y31995D01*
X17505D01*
Y32705D01*
X16795D01*
Y31995D01*
X16937D01*
X16943Y31991D01*
X16955Y31990D01*
X16957Y31989D01*
X16959Y31988D01*
X16962Y31985D01*
X16967Y31977D01*
X16972Y31963D01*
X16977Y31944D01*
X16982Y31920D01*
X16984Y31890D01*
X16985Y31854D01*
X16987Y31850D01*
Y31105D01*
X16985Y31100D01*
X16984Y31064D01*
X16982Y31035D01*
X16977Y31010D01*
X16972Y30991D01*
X16967Y30977D01*
X16962Y30969D01*
X16958Y30965D01*
X16957Y30964D01*
X16955Y30963D01*
X16943Y30962D01*
X16939Y30960D01*
X16765D01*
Y30661D01*
X16763Y30657D01*
X16762Y30645D01*
X16761Y30643D01*
X16760Y30642D01*
X16756Y30638D01*
X16748Y30633D01*
X16734Y30628D01*
X16715Y30623D01*
X16690Y30618D01*
X16661Y30616D01*
X16624Y30615D01*
X16620Y30613D01*
X11750D01*
X11688Y30601D01*
X11635Y30565D01*
X8235Y27165D01*
X8199Y27112D01*
X8187Y27050D01*
Y17519D01*
X8103D01*
Y17463D01*
X7947D01*
Y17517D01*
X7453D01*
Y17517D01*
X7443Y17501D01*
X7403Y17477D01*
X7397Y17478D01*
X7369Y17489D01*
X7340Y17503D01*
X7310Y17520D01*
X7280Y17540D01*
X7214Y17594D01*
X7181Y17627D01*
X7178Y17628D01*
X7178Y17628D01*
X7082Y17702D01*
X6970Y17748D01*
X6850Y17764D01*
X6730Y17748D01*
X6618Y17702D01*
X6522Y17628D01*
X6448Y17532D01*
X6402Y17420D01*
X6386Y17300D01*
X6401Y17187D01*
X6394Y17165D01*
X6375Y17137D01*
X112D01*
Y34288D01*
X38788D01*
Y18200D01*
D02*
G37*
G36*
X7171Y17546D02*
X7241Y17488D01*
X7275Y17465D01*
X7309Y17445D01*
X7343Y17429D01*
X7377Y17416D01*
X7411Y17407D01*
X7444Y17402D01*
X7477Y17400D01*
Y17200D01*
X7444Y17198D01*
X7411Y17193D01*
X7377Y17184D01*
X7343Y17171D01*
X7309Y17155D01*
X7275Y17135D01*
X7241Y17112D01*
X7206Y17085D01*
X7171Y17054D01*
X7136Y17020D01*
Y17580D01*
X7171Y17546D01*
D02*
G37*
G36*
X31364Y12570D02*
X31329Y12604D01*
X31259Y12662D01*
X31225Y12685D01*
X31191Y12705D01*
X31157Y12721D01*
X31123Y12734D01*
X31089Y12743D01*
X31056Y12748D01*
X31023Y12750D01*
Y12950D01*
X31056Y12952D01*
X31089Y12957D01*
X31123Y12966D01*
X31157Y12979D01*
X31191Y12995D01*
X31225Y13015D01*
X31259Y13038D01*
X31294Y13065D01*
X31329Y13096D01*
X31364Y13130D01*
Y12570D01*
D02*
G37*
G36*
X31932Y12561D02*
X31880Y12482D01*
X31859Y12445D01*
X31841Y12408D01*
X31826Y12372D01*
X31815Y12337D01*
X31807Y12304D01*
X31802Y12271D01*
X31800Y12239D01*
X31600Y12213D01*
X31598Y12247D01*
X31592Y12281D01*
X31583Y12314D01*
X31569Y12347D01*
X31552Y12379D01*
X31531Y12411D01*
X31506Y12442D01*
X31477Y12472D01*
X31444Y12502D01*
X31408Y12532D01*
X31964Y12602D01*
X31932Y12561D01*
D02*
G37*
G36*
X38788Y112D02*
X30600D01*
Y1958D01*
X31000D01*
Y2550D01*
Y3142D01*
X30600D01*
X30600Y6340D01*
X27450Y6340D01*
Y11450D01*
X27035Y11865D01*
Y12560D01*
X27010Y12565D01*
Y13335D01*
X26913D01*
Y14291D01*
X26918Y14298D01*
X26932Y14367D01*
Y14899D01*
X26918Y14968D01*
X26878Y15027D01*
X26820Y15067D01*
X26750Y15080D01*
X26681Y15067D01*
X26622Y15027D01*
X26582Y14968D01*
X26568Y14899D01*
Y14367D01*
X26582Y14298D01*
X26587Y14291D01*
Y13335D01*
X26290D01*
Y12565D01*
X26265Y12560D01*
Y12363D01*
X26094D01*
X26032Y12351D01*
X25979Y12316D01*
X25932Y12352D01*
X25820Y12398D01*
X25700Y12414D01*
X25580Y12398D01*
X25468Y12352D01*
X25372Y12278D01*
X25298Y12182D01*
X25252Y12070D01*
X25236Y11950D01*
X25252Y11830D01*
X25298Y11718D01*
X25372Y11622D01*
X25468Y11548D01*
X25580Y11502D01*
X25700Y11486D01*
X25820Y11502D01*
X25839Y11510D01*
X25867Y11467D01*
X25850Y11450D01*
Y6340D01*
X23800Y6340D01*
X23800Y112D01*
X20650D01*
Y15200D01*
X21504D01*
X21523Y15154D01*
X21085Y14715D01*
X21049Y14662D01*
X21037Y14600D01*
Y3047D01*
X21035Y3043D01*
X21034Y3006D01*
X21032Y2977D01*
X21027Y2952D01*
X21022Y2933D01*
X21017Y2919D01*
X21012Y2911D01*
X21008Y2908D01*
X21007Y2906D01*
X21005Y2906D01*
X20993Y2904D01*
X20989Y2902D01*
X20746D01*
Y1798D01*
X21654D01*
Y2902D01*
X21411D01*
X21407Y2904D01*
X21395Y2906D01*
X21393Y2906D01*
X21392Y2908D01*
X21388Y2911D01*
X21383Y2919D01*
X21378Y2933D01*
X21373Y2952D01*
X21368Y2977D01*
X21366Y3006D01*
X21365Y3043D01*
X21363Y3047D01*
Y14532D01*
X22031Y15200D01*
X27019D01*
X27087Y15132D01*
Y14975D01*
X27082Y14968D01*
X27068Y14899D01*
Y14367D01*
X27082Y14298D01*
X27087Y14291D01*
Y13350D01*
X27099Y13288D01*
X27135Y13235D01*
X27635Y12735D01*
X27688Y12699D01*
X27750Y12687D01*
X28015D01*
Y12540D01*
X28685D01*
Y12687D01*
X28765D01*
Y12540D01*
X29435D01*
Y12687D01*
X31016D01*
X31019Y12685D01*
X31049Y12684D01*
X31076Y12679D01*
X31103Y12672D01*
X31131Y12661D01*
X31160Y12647D01*
X31190Y12630D01*
X31220Y12610D01*
X31286Y12556D01*
X31319Y12523D01*
X31322Y12522D01*
X31322Y12522D01*
X31361Y12492D01*
X31367Y12481D01*
X31402Y12453D01*
X31431Y12426D01*
X31457Y12399D01*
X31478Y12372D01*
X31496Y12345D01*
X31510Y12319D01*
X31521Y12293D01*
X31529Y12266D01*
X31533Y12240D01*
X31534Y12235D01*
X31499Y12189D01*
X31493Y12185D01*
X31492Y12185D01*
X31340D01*
Y11515D01*
Y10865D01*
X31537D01*
Y10691D01*
X31453D01*
Y9509D01*
X31947D01*
Y10691D01*
X31863D01*
Y10865D01*
X31960D01*
Y11515D01*
Y12185D01*
X31863D01*
Y12232D01*
X31865Y12236D01*
X31866Y12264D01*
X31870Y12291D01*
X31877Y12320D01*
X31887Y12350D01*
X31900Y12381D01*
X31916Y12414D01*
X31936Y12448D01*
X31985Y12523D01*
X32015Y12562D01*
X32018Y12574D01*
X32052Y12618D01*
X32098Y12730D01*
X32114Y12850D01*
X32098Y12970D01*
X32052Y13082D01*
X31978Y13178D01*
X31882Y13252D01*
X31770Y13298D01*
X31650Y13314D01*
X31530Y13298D01*
X31418Y13252D01*
X31322Y13178D01*
X31322Y13178D01*
X31319Y13177D01*
X31285Y13144D01*
X31253Y13115D01*
X31221Y13091D01*
X31190Y13070D01*
X31160Y13053D01*
X31131Y13039D01*
X31103Y13028D01*
X31076Y13021D01*
X31049Y13016D01*
X31019Y13015D01*
X31016Y13013D01*
X29435D01*
Y13160D01*
X28765D01*
Y13013D01*
X28685D01*
Y13160D01*
X28015D01*
Y13013D01*
X27818D01*
X27413Y13418D01*
Y14291D01*
X27418Y14298D01*
X27432Y14367D01*
Y14899D01*
X27418Y14968D01*
X27413Y14975D01*
Y15200D01*
X38788D01*
Y112D01*
D02*
G37*
G36*
X26953Y5403D02*
X26962Y5301D01*
X26977Y5211D01*
X26998Y5133D01*
X27025Y5066D01*
X27058Y5012D01*
X27097Y4970D01*
X27142Y4940D01*
X27193Y4922D01*
X27250Y4916D01*
X26050D01*
X26107Y4922D01*
X26158Y4940D01*
X26203Y4970D01*
X26242Y5012D01*
X26275Y5066D01*
X26302Y5133D01*
X26323Y5211D01*
X26338Y5301D01*
X26347Y5403D01*
X26350Y5517D01*
X26950D01*
X26953Y5403D01*
D02*
G37*
G36*
X21301Y3003D02*
X21304Y2968D01*
X21309Y2938D01*
X21316Y2912D01*
X21325Y2890D01*
X21336Y2872D01*
X21349Y2858D01*
X21364Y2848D01*
X21381Y2842D01*
X21400Y2840D01*
X21000D01*
X21019Y2842D01*
X21036Y2848D01*
X21051Y2858D01*
X21064Y2872D01*
X21075Y2890D01*
X21084Y2912D01*
X21091Y2938D01*
X21096Y2968D01*
X21099Y3003D01*
X21100Y3041D01*
X21300D01*
X21301Y3003D01*
D02*
G37*
G36*
X27782Y3455D02*
X27812Y3370D01*
X27863Y3295D01*
X27933Y3230D01*
X28023Y3175D01*
X28133Y3130D01*
X28263Y3095D01*
X28413Y3070D01*
X28583Y3055D01*
X28774Y3050D01*
Y2050D01*
X28583Y2045D01*
X28413Y2030D01*
X28263Y2005D01*
X28133Y1970D01*
X28023Y1925D01*
X27933Y1870D01*
X27863Y1805D01*
X27812Y1730D01*
X27782Y1645D01*
X27772Y1550D01*
Y3550D01*
X27782Y3455D01*
D02*
G37*
G36*
X19300Y8100D02*
X19300Y900D01*
X10400Y900D01*
X9850Y1450D01*
Y15500D01*
X11900D01*
X19300Y8100D01*
D02*
G37*
G36*
X9650Y1450D02*
X9100Y900D01*
X200Y900D01*
X200Y8100D01*
X7600Y15500D01*
X9650D01*
Y1450D01*
D02*
G37*
%LPC*%
G36*
X37250Y32950D02*
X36400D01*
Y32400D01*
X37148D01*
Y32500D01*
X37150Y32481D01*
X37156Y32464D01*
X37166Y32449D01*
X37180Y32436D01*
X37198Y32425D01*
X37220Y32416D01*
X37246Y32409D01*
X37250Y32408D01*
Y32950D01*
D02*
G37*
G36*
X21258Y32733D02*
X21260Y32724D01*
X21267Y32699D01*
X21277Y32674D01*
X21288Y32650D01*
X21302Y32627D01*
X21318Y32604D01*
X21336Y32582D01*
X21357Y32561D01*
X21200D01*
Y32400D01*
X21542D01*
X21535Y32453D01*
X21495Y32549D01*
X21432Y32632D01*
X21349Y32695D01*
X21258Y32733D01*
D02*
G37*
G36*
X36300Y32950D02*
X35450D01*
Y32423D01*
X35477Y32464D01*
X35523Y32548D01*
X35553Y32624D01*
X35568Y32692D01*
X35568Y32752D01*
X35552Y32803D01*
X35748Y32400D01*
X36300D01*
Y32950D01*
D02*
G37*
G36*
X21042Y32733D02*
X20951Y32695D01*
X20868Y32632D01*
X20805Y32549D01*
X20765Y32453D01*
X20758Y32400D01*
X21100D01*
Y32561D01*
X20943D01*
X20964Y32582D01*
X20982Y32604D01*
X20998Y32627D01*
X21012Y32650D01*
X21023Y32674D01*
X21033Y32699D01*
X21040Y32724D01*
X21042Y32733D01*
D02*
G37*
G36*
X21542Y32300D02*
X21200D01*
Y32139D01*
X21357D01*
X21336Y32118D01*
X21318Y32096D01*
X21302Y32073D01*
X21288Y32050D01*
X21277Y32026D01*
X21267Y32001D01*
X21260Y31976D01*
X21258Y31967D01*
X21349Y32005D01*
X21432Y32068D01*
X21495Y32151D01*
X21535Y32247D01*
X21542Y32300D01*
D02*
G37*
G36*
X21100D02*
X20758D01*
X20765Y32247D01*
X20805Y32151D01*
X20868Y32068D01*
X20951Y32005D01*
X21042Y31967D01*
X21040Y31976D01*
X21033Y32001D01*
X21023Y32026D01*
X21012Y32050D01*
X20998Y32073D01*
X20982Y32096D01*
X20964Y32118D01*
X20943Y32139D01*
X21100D01*
Y32300D01*
D02*
G37*
G36*
X36300D02*
X35796D01*
X36013Y31852D01*
X35986Y31892D01*
X35948Y31914D01*
X35901Y31920D01*
X35845Y31910D01*
X35779Y31882D01*
X35704Y31839D01*
X35619Y31778D01*
X35584Y31750D01*
X36300D01*
Y32300D01*
D02*
G37*
G36*
X37148D02*
X36400D01*
Y31750D01*
X37250D01*
Y32192D01*
X37246Y32191D01*
X37220Y32184D01*
X37198Y32175D01*
X37180Y32164D01*
X37166Y32151D01*
X37156Y32136D01*
X37150Y32119D01*
X37148Y32100D01*
Y32300D01*
D02*
G37*
G36*
X34826Y31750D02*
X34400D01*
Y31643D01*
X34424Y31608D01*
X34461Y31585D01*
X34508Y31579D01*
X34564Y31589D01*
X34630Y31616D01*
X34705Y31660D01*
X34790Y31721D01*
X34826Y31750D01*
D02*
G37*
G36*
X34950Y31067D02*
X34924Y31028D01*
X34879Y30943D01*
X34861Y30900D01*
X34950D01*
Y31067D01*
D02*
G37*
G36*
X34400Y31641D02*
Y30900D01*
X34748D01*
X34400Y31641D01*
D02*
G37*
G36*
X34300Y31750D02*
X33750D01*
Y30900D01*
X34300D01*
Y31750D01*
D02*
G37*
G36*
X34950Y30800D02*
X34833D01*
X34833Y30799D01*
X34833Y30739D01*
X34848Y30687D01*
X34794Y30800D01*
X34400D01*
Y29950D01*
X34950D01*
Y30800D01*
D02*
G37*
G36*
X21255Y30990D02*
X21259Y30953D01*
X21266Y30920D01*
X21275Y30892D01*
X21286Y30869D01*
X21299Y30852D01*
X21314Y30839D01*
X21330Y30831D01*
X21349Y30829D01*
X21200D01*
Y30500D01*
X21579D01*
Y30575D01*
X21564Y30686D01*
X21521Y30789D01*
X21453Y30878D01*
X21364Y30946D01*
X21261Y30989D01*
X21255Y30990D01*
D02*
G37*
G36*
X21046Y30990D02*
X21039Y30989D01*
X20936Y30946D01*
X20847Y30878D01*
X20779Y30789D01*
X20736Y30686D01*
X20721Y30575D01*
Y30500D01*
X21100D01*
Y30829D01*
X20951D01*
X20970Y30831D01*
X20986Y30839D01*
X21001Y30852D01*
X21014Y30869D01*
X21025Y30892D01*
X21034Y30920D01*
X21041Y30953D01*
X21046Y30990D01*
D02*
G37*
G36*
X34300Y30800D02*
X33750D01*
Y29950D01*
X34300D01*
Y30800D01*
D02*
G37*
G36*
X21579Y30400D02*
X21200D01*
Y29903D01*
X21261Y29911D01*
X21364Y29954D01*
X21453Y30022D01*
X21521Y30111D01*
X21564Y30214D01*
X21579Y30325D01*
Y30400D01*
D02*
G37*
G36*
X20150Y32708D02*
X20057Y32696D01*
X19971Y32660D01*
X19897Y32603D01*
X19840Y32529D01*
X19804Y32443D01*
X19792Y32350D01*
X19804Y32257D01*
X19840Y32171D01*
X19894Y32100D01*
X19896Y32094D01*
X19915Y32075D01*
X19930Y32056D01*
X19943Y32038D01*
X19954Y32019D01*
X19964Y32000D01*
X19971Y31980D01*
X19977Y31960D01*
X19982Y31939D01*
X19984Y31917D01*
X19985Y31892D01*
X19987Y31889D01*
Y31088D01*
X19985Y31084D01*
X19984Y31038D01*
X19981Y30998D01*
X19977Y30964D01*
X19971Y30937D01*
X19965Y30916D01*
X19964Y30915D01*
X19956Y30911D01*
X19912Y30878D01*
X19905Y30875D01*
X19903Y30871D01*
X19901Y30870D01*
X19899Y30868D01*
X19899Y30868D01*
X19875Y30850D01*
X19814Y30769D01*
X19775Y30675D01*
X19762Y30575D01*
Y30325D01*
X19775Y30224D01*
X19814Y30131D01*
X19875Y30050D01*
X19956Y29989D01*
X20049Y29950D01*
X20150Y29937D01*
X20251Y29950D01*
X20344Y29989D01*
X20365Y30005D01*
X21335Y29035D01*
X21388Y28999D01*
X21450Y28987D01*
X27832D01*
X28282Y28537D01*
Y24047D01*
X28228D01*
Y23553D01*
X28285D01*
X28285Y23483D01*
X28250Y23447D01*
X28234D01*
Y22953D01*
X28669D01*
Y23037D01*
X28938D01*
X29000Y23049D01*
X29001Y23050D01*
X29068Y22998D01*
X29180Y22952D01*
X29300Y22936D01*
X29420Y22952D01*
X29532Y22998D01*
X29628Y23072D01*
X29702Y23168D01*
X29748Y23280D01*
X29764Y23400D01*
X29748Y23520D01*
X29702Y23632D01*
X29628Y23728D01*
X29532Y23802D01*
X29420Y23848D01*
X29300Y23864D01*
X29180Y23848D01*
X29068Y23802D01*
X28972Y23728D01*
X28898Y23632D01*
X28852Y23520D01*
X28836Y23400D01*
X28804Y23363D01*
X28669D01*
Y23447D01*
X28612D01*
X28611Y23517D01*
X28647Y23553D01*
X28663D01*
Y24047D01*
X28609D01*
Y28604D01*
X28596Y28667D01*
X28561Y28720D01*
X28015Y29265D01*
X27962Y29301D01*
X27900Y29313D01*
X21518D01*
X20928Y29903D01*
X20956Y29945D01*
X21039Y29911D01*
X21100Y29903D01*
Y30400D01*
X20721D01*
Y30325D01*
X20736Y30214D01*
X20770Y30131D01*
X20728Y30103D01*
X20570Y30261D01*
X20560Y30267D01*
X20534Y30293D01*
X20538Y30325D01*
Y30575D01*
X20525Y30675D01*
X20486Y30769D01*
X20425Y30850D01*
X20401Y30868D01*
X20401Y30868D01*
X20399Y30870D01*
X20397Y30871D01*
X20395Y30875D01*
X20388Y30878D01*
X20344Y30911D01*
X20336Y30915D01*
X20335Y30916D01*
X20329Y30937D01*
X20323Y30963D01*
X20316Y31039D01*
X20315Y31084D01*
X20313Y31088D01*
Y31889D01*
X20315Y31892D01*
X20316Y31917D01*
X20318Y31939D01*
X20323Y31960D01*
X20329Y31980D01*
X20336Y32000D01*
X20346Y32019D01*
X20357Y32038D01*
X20370Y32056D01*
X20385Y32075D01*
X20404Y32094D01*
X20406Y32100D01*
X20460Y32171D01*
X20496Y32257D01*
X20508Y32350D01*
X20496Y32443D01*
X20460Y32529D01*
X20403Y32603D01*
X20329Y32660D01*
X20243Y32696D01*
X20150Y32708D01*
D02*
G37*
G36*
X35350Y29125D02*
X35050D01*
Y28800D01*
X35350D01*
Y29125D01*
D02*
G37*
G36*
X34950D02*
X34650D01*
Y28800D01*
X34950D01*
Y29125D01*
D02*
G37*
G36*
X35350Y28700D02*
X34650D01*
Y28375D01*
Y28150D01*
X35350D01*
Y28375D01*
Y28700D01*
D02*
G37*
G36*
Y28050D02*
X35050D01*
Y27725D01*
X35350D01*
Y28050D01*
D02*
G37*
G36*
X34950D02*
X34650D01*
Y27725D01*
X34950D01*
Y28050D01*
D02*
G37*
G36*
X37210Y30410D02*
X35490D01*
Y29366D01*
X35487Y29361D01*
X35488Y29356D01*
X35486Y29351D01*
X35490Y29342D01*
Y29290D01*
X35537D01*
X35542Y29287D01*
X35558Y29285D01*
X35564Y29281D01*
X35573Y29273D01*
X35584Y29256D01*
X35595Y29229D01*
X35606Y29192D01*
X35615Y29146D01*
X35617Y29115D01*
X35590Y29085D01*
X35590D01*
Y28415D01*
Y27765D01*
X35629D01*
Y27362D01*
X35359D01*
Y26849D01*
X35851D01*
X35892Y26843D01*
X35933Y26849D01*
X36424D01*
Y27362D01*
X36154D01*
Y27765D01*
X36210D01*
Y28415D01*
Y29085D01*
X36210D01*
X36172Y29135D01*
X36173Y29141D01*
X36185Y29186D01*
X36200Y29222D01*
X36216Y29248D01*
X36232Y29265D01*
X36249Y29277D01*
X36268Y29283D01*
X36299Y29287D01*
X36305Y29290D01*
X37210D01*
Y30410D01*
D02*
G37*
G36*
X18150Y32708D02*
X18057Y32696D01*
X17971Y32660D01*
X17897Y32603D01*
X17840Y32529D01*
X17804Y32443D01*
X17792Y32350D01*
X17804Y32257D01*
X17840Y32171D01*
X17894Y32100D01*
X17896Y32094D01*
X17915Y32075D01*
X17930Y32056D01*
X17943Y32038D01*
X17954Y32019D01*
X17964Y32000D01*
X17971Y31980D01*
X17977Y31960D01*
X17982Y31939D01*
X17984Y31917D01*
X17985Y31892D01*
X17987Y31889D01*
Y31088D01*
X17985Y31084D01*
X17984Y31038D01*
X17981Y30998D01*
X17977Y30964D01*
X17971Y30937D01*
X17965Y30916D01*
X17964Y30915D01*
X17956Y30911D01*
X17912Y30878D01*
X17905Y30875D01*
X17903Y30871D01*
X17901Y30870D01*
X17899Y30868D01*
X17899Y30868D01*
X17875Y30850D01*
X17814Y30769D01*
X17775Y30675D01*
X17762Y30575D01*
Y30325D01*
X17775Y30224D01*
X17814Y30131D01*
X17875Y30050D01*
X17956Y29989D01*
X18049Y29950D01*
X18150Y29937D01*
X18251Y29950D01*
X18344Y29989D01*
X18365Y30005D01*
X20187Y28182D01*
Y26347D01*
X20133D01*
Y26217D01*
X20098Y26215D01*
X20063Y26215D01*
X20056Y26212D01*
X20040D01*
X20007Y26250D01*
X20014Y26300D01*
X19998Y26420D01*
X19952Y26532D01*
X19878Y26628D01*
X19782Y26702D01*
X19670Y26748D01*
X19550Y26764D01*
X19430Y26748D01*
X19318Y26702D01*
X19222Y26628D01*
X19148Y26532D01*
X19102Y26420D01*
X19086Y26300D01*
X19102Y26180D01*
X19148Y26068D01*
X19222Y25972D01*
X19318Y25898D01*
X19430Y25852D01*
X19550Y25836D01*
X19670Y25852D01*
X19782Y25898D01*
X19878Y25972D01*
X19897Y25996D01*
X19939Y25988D01*
X19939Y25988D01*
X20056D01*
X20063Y25985D01*
X20099Y25985D01*
X20133Y25984D01*
Y25853D01*
X20195D01*
Y25744D01*
X20111D01*
Y25309D01*
X20605D01*
Y25744D01*
X20521D01*
Y25853D01*
X20567D01*
Y26347D01*
X20513D01*
Y28250D01*
X20501Y28312D01*
X20465Y28365D01*
X18570Y30261D01*
X18560Y30267D01*
X18534Y30293D01*
X18538Y30325D01*
Y30575D01*
X18525Y30675D01*
X18486Y30769D01*
X18425Y30850D01*
X18401Y30868D01*
X18401Y30868D01*
X18399Y30870D01*
X18397Y30871D01*
X18395Y30875D01*
X18388Y30878D01*
X18344Y30911D01*
X18336Y30915D01*
X18335Y30916D01*
X18329Y30937D01*
X18323Y30963D01*
X18316Y31039D01*
X18315Y31084D01*
X18313Y31088D01*
Y31889D01*
X18315Y31892D01*
X18316Y31917D01*
X18318Y31939D01*
X18323Y31960D01*
X18329Y31980D01*
X18336Y32000D01*
X18346Y32019D01*
X18357Y32038D01*
X18370Y32056D01*
X18385Y32075D01*
X18404Y32094D01*
X18406Y32100D01*
X18460Y32171D01*
X18496Y32257D01*
X18508Y32350D01*
X18496Y32443D01*
X18460Y32529D01*
X18403Y32603D01*
X18329Y32660D01*
X18243Y32696D01*
X18150Y32708D01*
D02*
G37*
G36*
X21159Y26387D02*
X20951D01*
Y26150D01*
X21159D01*
Y26387D01*
D02*
G37*
G36*
X20851D02*
X20644D01*
Y26150D01*
X20851D01*
Y26387D01*
D02*
G37*
G36*
X21159Y26050D02*
X20951D01*
Y25813D01*
X21159D01*
Y26050D01*
D02*
G37*
G36*
X20851D02*
X20644D01*
Y25813D01*
X20851D01*
Y26050D01*
D02*
G37*
G36*
X36464Y25591D02*
X35942D01*
Y25344D01*
X36464D01*
Y25591D01*
D02*
G37*
G36*
X35842D02*
X35319D01*
Y25344D01*
X35842D01*
Y25591D01*
D02*
G37*
G36*
X19397Y25746D02*
X18903D01*
Y25612D01*
X15450D01*
X15407Y25604D01*
X15371Y25579D01*
X15371Y25579D01*
X14971Y25179D01*
X14946Y25143D01*
X14938Y25100D01*
X14938Y25100D01*
Y22650D01*
X14938Y22650D01*
X14946Y22607D01*
X14971Y22571D01*
X15516Y22025D01*
X15516Y22025D01*
X15553Y22001D01*
X15596Y21992D01*
X15596Y21992D01*
X17018D01*
Y21937D01*
X17032Y21868D01*
X17072Y21809D01*
X17131Y21769D01*
X17200Y21755D01*
X17269Y21769D01*
X17328Y21809D01*
X17368Y21868D01*
X17382Y21937D01*
Y22272D01*
X17368Y22341D01*
X17328Y22400D01*
X17269Y22439D01*
X17200Y22453D01*
X17131Y22439D01*
X17072Y22400D01*
X17032Y22341D01*
X17018Y22272D01*
Y22216D01*
X15642D01*
X15162Y22696D01*
Y25054D01*
X15496Y25388D01*
X18903D01*
Y25311D01*
X19397D01*
Y25746D01*
D02*
G37*
G36*
X36464Y25244D02*
X35942D01*
Y24998D01*
X36464D01*
Y25244D01*
D02*
G37*
G36*
X35842D02*
X35319D01*
Y24998D01*
X35842D01*
Y25244D01*
D02*
G37*
G36*
X36250Y24675D02*
X35950D01*
Y24350D01*
X36250D01*
Y24675D01*
D02*
G37*
G36*
X35850D02*
X35550D01*
Y24350D01*
X35850D01*
Y24675D01*
D02*
G37*
G36*
X20605Y25193D02*
X20111D01*
Y24879D01*
X20109Y24872D01*
X20096Y24852D01*
X20088Y24809D01*
X20088Y24809D01*
Y24557D01*
X20072Y24546D01*
X20032Y24487D01*
X20018Y24417D01*
Y24083D01*
X20032Y24013D01*
X20072Y23954D01*
X20131Y23915D01*
X20200Y23901D01*
X20269Y23915D01*
X20328Y23954D01*
X20368Y24013D01*
X20382Y24083D01*
Y24417D01*
X20368Y24487D01*
X20328Y24546D01*
X20312Y24557D01*
Y24758D01*
X20605D01*
Y25193D01*
D02*
G37*
G36*
X19397Y25195D02*
X18903D01*
Y24760D01*
X19088D01*
Y24557D01*
X19072Y24546D01*
X19032Y24487D01*
X19018Y24417D01*
Y24083D01*
X19032Y24013D01*
X19072Y23954D01*
X19131Y23915D01*
X19200Y23901D01*
X19269Y23915D01*
X19328Y23954D01*
X19368Y24013D01*
X19382Y24083D01*
Y24417D01*
X19368Y24487D01*
X19328Y24546D01*
X19312Y24557D01*
Y24760D01*
X19397D01*
Y25195D01*
D02*
G37*
G36*
X17200Y24599D02*
X17131Y24585D01*
X17072Y24546D01*
X17032Y24487D01*
X17018Y24417D01*
Y24083D01*
X17032Y24013D01*
X17072Y23954D01*
X17131Y23915D01*
X17200Y23901D01*
X17269Y23915D01*
X17328Y23954D01*
X17368Y24013D01*
X17382Y24083D01*
Y24417D01*
X17368Y24487D01*
X17328Y24546D01*
X17269Y24585D01*
X17200Y24599D01*
D02*
G37*
G36*
X28152Y24087D02*
X27944D01*
Y23850D01*
X28152D01*
Y24087D01*
D02*
G37*
G36*
X26463D02*
X26256D01*
Y23850D01*
X26463D01*
Y24087D01*
D02*
G37*
G36*
X26156D02*
X25948D01*
Y23850D01*
X26156D01*
Y24087D01*
D02*
G37*
G36*
X27844D02*
X27637D01*
Y23850D01*
X27844D01*
Y24087D01*
D02*
G37*
G36*
X18950Y24650D02*
X17450D01*
Y23850D01*
X18950D01*
Y24650D01*
D02*
G37*
G36*
X35900Y24300D02*
D01*
Y24250D01*
X35550D01*
Y23925D01*
Y23650D01*
X35900D01*
X36250D01*
Y23925D01*
Y24250D01*
X35900D01*
Y24300D01*
D02*
G37*
G36*
X28152Y23750D02*
X27944D01*
Y23513D01*
X28152D01*
Y23750D01*
D02*
G37*
G36*
X27844D02*
X27637D01*
Y23513D01*
X27844D01*
Y23750D01*
D02*
G37*
G36*
X26463D02*
X26256D01*
Y23513D01*
X26463D01*
Y23750D01*
D02*
G37*
G36*
X26156D02*
X25948D01*
Y23513D01*
X26156D01*
Y23750D01*
D02*
G37*
G36*
X15900Y23710D02*
X15663D01*
Y23503D01*
X15900D01*
Y23710D01*
D02*
G37*
G36*
X16600Y23710D02*
Y23503D01*
X16837D01*
Y23710D01*
X16600D01*
D02*
G37*
G36*
X19150Y32708D02*
X19057Y32696D01*
X18971Y32660D01*
X18897Y32603D01*
X18840Y32529D01*
X18804Y32443D01*
X18792Y32350D01*
X18804Y32257D01*
X18840Y32171D01*
X18894Y32100D01*
X18896Y32094D01*
X18915Y32075D01*
X18930Y32056D01*
X18943Y32038D01*
X18954Y32019D01*
X18964Y32000D01*
X18971Y31980D01*
X18977Y31960D01*
X18982Y31939D01*
X18984Y31917D01*
X18985Y31892D01*
X18987Y31889D01*
Y31088D01*
X18985Y31084D01*
X18984Y31038D01*
X18981Y30998D01*
X18977Y30964D01*
X18971Y30937D01*
X18965Y30916D01*
X18964Y30915D01*
X18956Y30911D01*
X18912Y30878D01*
X18905Y30875D01*
X18903Y30871D01*
X18901Y30870D01*
X18899Y30868D01*
X18899Y30868D01*
X18875Y30850D01*
X18814Y30769D01*
X18775Y30675D01*
X18762Y30575D01*
Y30325D01*
X18775Y30224D01*
X18814Y30131D01*
X18875Y30050D01*
X18956Y29989D01*
X19049Y29950D01*
X19150Y29937D01*
X19251Y29950D01*
X19344Y29989D01*
X19365Y30005D01*
X20985Y28385D01*
X21038Y28349D01*
X21100Y28337D01*
X25032D01*
X25491Y27878D01*
Y24047D01*
X25437D01*
Y23553D01*
X25486D01*
Y23447D01*
X25431D01*
Y23363D01*
X25296D01*
X25264Y23400D01*
X25248Y23520D01*
X25202Y23632D01*
X25128Y23728D01*
X25032Y23802D01*
X24920Y23848D01*
X24800Y23864D01*
X24680Y23848D01*
X24568Y23802D01*
X24472Y23728D01*
X24398Y23632D01*
X24352Y23520D01*
X24336Y23400D01*
X24352Y23280D01*
X24398Y23168D01*
X24472Y23072D01*
X24568Y22998D01*
X24680Y22952D01*
X24800Y22936D01*
X24920Y22952D01*
X25032Y22998D01*
X25099Y23050D01*
X25100Y23049D01*
X25162Y23037D01*
X25431D01*
Y22953D01*
X25866D01*
Y23447D01*
X25812D01*
Y23553D01*
X25872D01*
Y24047D01*
X25818D01*
Y27946D01*
X25805Y28008D01*
X25770Y28061D01*
X25215Y28615D01*
X25162Y28651D01*
X25100Y28663D01*
X21168D01*
X19570Y30261D01*
X19560Y30267D01*
X19534Y30293D01*
X19538Y30325D01*
Y30575D01*
X19525Y30675D01*
X19486Y30769D01*
X19425Y30850D01*
X19401Y30868D01*
X19401Y30868D01*
X19399Y30870D01*
X19397Y30871D01*
X19395Y30875D01*
X19388Y30878D01*
X19344Y30911D01*
X19336Y30915D01*
X19335Y30916D01*
X19329Y30937D01*
X19323Y30963D01*
X19316Y31039D01*
X19315Y31084D01*
X19313Y31088D01*
Y31889D01*
X19315Y31892D01*
X19316Y31917D01*
X19318Y31939D01*
X19323Y31960D01*
X19329Y31980D01*
X19336Y32000D01*
X19346Y32019D01*
X19357Y32038D01*
X19370Y32056D01*
X19385Y32075D01*
X19404Y32094D01*
X19406Y32100D01*
X19460Y32171D01*
X19496Y32257D01*
X19508Y32350D01*
X19496Y32443D01*
X19460Y32529D01*
X19403Y32603D01*
X19329Y32660D01*
X19243Y32696D01*
X19150Y32708D01*
D02*
G37*
G36*
X19700Y24599D02*
X19631Y24585D01*
X19572Y24546D01*
X19532Y24487D01*
X19518Y24417D01*
Y24083D01*
X19532Y24013D01*
X19572Y23954D01*
X19588Y23943D01*
Y23700D01*
X19588Y23700D01*
X19596Y23657D01*
X19621Y23621D01*
X19875Y23366D01*
X19911Y23342D01*
X19954Y23333D01*
X19954Y23333D01*
X20653D01*
Y23228D01*
X21147D01*
Y23663D01*
X20653D01*
Y23558D01*
X20001D01*
X19812Y23746D01*
Y23943D01*
X19828Y23954D01*
X19868Y24013D01*
X19882Y24083D01*
Y24417D01*
X19868Y24487D01*
X19828Y24546D01*
X19769Y24585D01*
X19700Y24599D01*
D02*
G37*
G36*
X36250Y23550D02*
X35950D01*
Y23225D01*
X36250D01*
Y23550D01*
D02*
G37*
G36*
X35850D02*
X35550D01*
Y23225D01*
X35850D01*
Y23550D01*
D02*
G37*
G36*
X15900Y23403D02*
X15663D01*
Y23195D01*
X15900D01*
Y23403D01*
D02*
G37*
G36*
X16837Y23403D02*
X16600D01*
Y23195D01*
X16837D01*
Y23403D01*
D02*
G37*
G36*
X16237Y23710D02*
X16213Y23710D01*
X16000D01*
Y23453D01*
Y23195D01*
X16213D01*
X16263Y23195D01*
X16287Y23195D01*
X16500D01*
Y23453D01*
Y23710D01*
X16287D01*
X16260Y23710D01*
X16237Y23710D01*
D02*
G37*
G36*
X16197Y23119D02*
X15703D01*
Y23014D01*
X15564D01*
X15557Y23017D01*
X15549Y23017D01*
X15530Y23017D01*
X15524Y23018D01*
X15523Y23018D01*
X15504Y23031D01*
X15450Y23041D01*
X15396Y23031D01*
X15350Y23000D01*
X15319Y22954D01*
X15309Y22900D01*
X15319Y22846D01*
X15350Y22800D01*
X15396Y22769D01*
X15450Y22759D01*
X15504Y22769D01*
X15528Y22785D01*
X15553Y22787D01*
X15560Y22787D01*
X15560Y22787D01*
X15561Y22787D01*
X15567Y22789D01*
X15703D01*
Y22684D01*
X16197D01*
Y22789D01*
X16303D01*
Y22684D01*
X16797D01*
Y22789D01*
X18402D01*
X18588Y22604D01*
Y22411D01*
X18572Y22400D01*
X18532Y22341D01*
X18518Y22272D01*
Y21937D01*
X18532Y21868D01*
X18572Y21809D01*
X18588Y21798D01*
Y21484D01*
X18371D01*
Y20990D01*
X18806D01*
Y21333D01*
X18808Y21344D01*
X18808Y21344D01*
Y21414D01*
X18812Y21432D01*
X18812Y21432D01*
Y21798D01*
X18828Y21809D01*
X18868Y21868D01*
X18882Y21937D01*
Y22272D01*
X18868Y22341D01*
X18828Y22400D01*
X18812Y22411D01*
Y22650D01*
X18804Y22693D01*
X18779Y22729D01*
X18779Y22729D01*
X18528Y22981D01*
X18491Y23005D01*
X18448Y23014D01*
X18448Y23014D01*
X16797D01*
Y23119D01*
X16303D01*
Y23014D01*
X16197D01*
Y23119D01*
D02*
G37*
G36*
X21147Y23112D02*
X20653D01*
Y23007D01*
X20494D01*
X20451Y22998D01*
X20415Y22974D01*
X20415Y22974D01*
X20121Y22679D01*
X20096Y22643D01*
X20088Y22600D01*
X20088Y22600D01*
Y22411D01*
X20072Y22400D01*
X20032Y22341D01*
X20018Y22272D01*
Y21937D01*
X20032Y21868D01*
X20072Y21809D01*
X20131Y21769D01*
X20200Y21755D01*
X20269Y21769D01*
X20328Y21809D01*
X20368Y21868D01*
X20382Y21937D01*
Y22272D01*
X20368Y22341D01*
X20328Y22400D01*
X20312Y22411D01*
Y22554D01*
X20541Y22782D01*
X20653D01*
Y22677D01*
X21147D01*
Y23112D01*
D02*
G37*
G36*
X26417Y23447D02*
X25983D01*
Y22953D01*
X26035D01*
X26041Y22940D01*
X26010Y22890D01*
X25975D01*
Y22541D01*
X25962Y22526D01*
X25925Y22511D01*
X25910Y22520D01*
X25880Y22540D01*
X25814Y22594D01*
X25781Y22627D01*
X25778Y22628D01*
X25778Y22628D01*
X25682Y22702D01*
X25570Y22748D01*
X25450Y22764D01*
X25330Y22748D01*
X25218Y22702D01*
X25122Y22628D01*
X25122Y22628D01*
X25119Y22627D01*
X25085Y22594D01*
X25053Y22565D01*
X25021Y22541D01*
X24990Y22520D01*
X24960Y22503D01*
X24931Y22489D01*
X24903Y22478D01*
X24876Y22471D01*
X24849Y22466D01*
X24819Y22465D01*
X24816Y22463D01*
X22100D01*
X22038Y22451D01*
X21985Y22415D01*
X20460Y20890D01*
X19947D01*
Y20945D01*
X19453D01*
Y20510D01*
X19947D01*
Y20564D01*
X20527D01*
X20590Y20576D01*
X20643Y20612D01*
X22168Y22137D01*
X24816D01*
X24819Y22135D01*
X24849Y22134D01*
X24876Y22129D01*
X24903Y22122D01*
X24931Y22111D01*
X24960Y22097D01*
X24990Y22080D01*
X25020Y22060D01*
X25086Y22006D01*
X25119Y21973D01*
X25122Y21972D01*
X25122Y21972D01*
X25218Y21898D01*
X25330Y21852D01*
X25450Y21836D01*
X25570Y21852D01*
X25682Y21898D01*
X25778Y21972D01*
X25778Y21972D01*
X25781Y21973D01*
X25815Y22006D01*
X25847Y22035D01*
X25879Y22059D01*
X25910Y22080D01*
X25925Y22089D01*
X25962Y22074D01*
X25975Y22059D01*
Y21710D01*
X26165D01*
Y20990D01*
X26935D01*
Y21710D01*
X26725D01*
Y22890D01*
X26417D01*
X26408Y22942D01*
X26417Y22953D01*
X26417D01*
Y23447D01*
D02*
G37*
G36*
X36300Y22375D02*
X36000D01*
Y22050D01*
X36300D01*
Y22375D01*
D02*
G37*
G36*
X35900D02*
X35600D01*
Y22050D01*
X35900D01*
Y22375D01*
D02*
G37*
G36*
X28117Y23447D02*
X27683D01*
Y23027D01*
X27645Y22890D01*
X27275D01*
Y21710D01*
X27065D01*
Y20990D01*
X27835D01*
Y21710D01*
X28025D01*
Y22059D01*
X28038Y22074D01*
X28075Y22089D01*
X28090Y22080D01*
X28120Y22060D01*
X28186Y22006D01*
X28219Y21973D01*
X28222Y21972D01*
X28222Y21972D01*
X28318Y21898D01*
X28430Y21852D01*
X28550Y21836D01*
X28670Y21852D01*
X28782Y21898D01*
X28878Y21972D01*
X28952Y22068D01*
X28998Y22180D01*
X29014Y22300D01*
X28998Y22420D01*
X28952Y22532D01*
X28878Y22628D01*
X28782Y22702D01*
X28670Y22748D01*
X28550Y22764D01*
X28430Y22748D01*
X28318Y22702D01*
X28222Y22628D01*
X28222Y22628D01*
X28219Y22627D01*
X28185Y22594D01*
X28153Y22565D01*
X28121Y22541D01*
X28090Y22520D01*
X28075Y22511D01*
X28038Y22527D01*
X28025Y22541D01*
Y22890D01*
X28025D01*
X28032Y22937D01*
X28039Y22953D01*
X28117D01*
Y23447D01*
D02*
G37*
G36*
X36300Y21950D02*
X35950D01*
X35600D01*
Y21625D01*
Y21400D01*
X35950D01*
X36300D01*
Y21625D01*
Y21950D01*
D02*
G37*
G36*
X36022Y21300D02*
X36000D01*
Y21278D01*
X36022Y21300D01*
D02*
G37*
G36*
X36300D02*
X36062D01*
X36063Y21299D01*
X36072Y21285D01*
X36099Y21252D01*
X36137Y21210D01*
X36185Y21160D01*
X36115Y21090D01*
X36089Y21115D01*
X36000Y21194D01*
Y20975D01*
X36300D01*
Y21300D01*
D02*
G37*
G36*
X19700Y22453D02*
X19631Y22439D01*
X19572Y22400D01*
X19532Y22341D01*
X19518Y22272D01*
Y21937D01*
X19532Y21868D01*
X19572Y21809D01*
X19608Y21784D01*
Y21496D01*
X19453D01*
Y21061D01*
X19947D01*
Y21496D01*
X19792D01*
Y21784D01*
X19828Y21809D01*
X19868Y21868D01*
X19882Y21937D01*
Y22272D01*
X19868Y22341D01*
X19828Y22400D01*
X19769Y22439D01*
X19700Y22453D01*
D02*
G37*
G36*
X17700D02*
X17631Y22439D01*
X17572Y22400D01*
X17532Y22341D01*
X17518Y22272D01*
Y21937D01*
X17532Y21868D01*
X17572Y21809D01*
X17588Y21798D01*
Y21490D01*
X17453D01*
Y21055D01*
X17947D01*
Y21490D01*
X17812D01*
Y21798D01*
X17828Y21809D01*
X17868Y21868D01*
X17882Y21937D01*
Y22272D01*
X17868Y22341D01*
X17828Y22400D01*
X17769Y22439D01*
X17700Y22453D01*
D02*
G37*
G36*
X35900Y21300D02*
X35600D01*
Y21023D01*
X35600Y20975D01*
X35593Y20936D01*
X35547Y20928D01*
X35474D01*
Y20691D01*
X35642D01*
Y20881D01*
X35642Y20928D01*
X35649Y20968D01*
X35695Y20975D01*
X35900D01*
Y21300D01*
D02*
G37*
G36*
X34626Y20928D02*
X34458D01*
Y20691D01*
X34626D01*
Y20928D01*
D02*
G37*
G36*
X18638Y20914D02*
Y20677D01*
X18846D01*
Y20914D01*
X18638D01*
D02*
G37*
G36*
X35642Y20591D02*
X35474D01*
Y20354D01*
X35642D01*
Y20591D01*
D02*
G37*
G36*
X34626D02*
X34458D01*
Y20354D01*
X34626D01*
Y20591D01*
D02*
G37*
G36*
X18846Y20577D02*
X18638D01*
Y20340D01*
X18846D01*
Y20577D01*
D02*
G37*
G36*
X19200Y22453D02*
X19131Y22439D01*
X19072Y22400D01*
X19032Y22341D01*
X19018Y22272D01*
Y21937D01*
X19032Y21868D01*
X19072Y21809D01*
X19088Y21798D01*
Y21484D01*
X18923D01*
Y20990D01*
X19038D01*
Y20874D01*
X18922D01*
Y20380D01*
X19038D01*
Y20162D01*
X18312D01*
Y20298D01*
X18331Y20340D01*
X18362Y20340D01*
X18538D01*
Y20627D01*
Y20914D01*
X18362D01*
X18331Y20914D01*
X18312Y20957D01*
Y21798D01*
X18328Y21809D01*
X18368Y21868D01*
X18382Y21937D01*
Y22272D01*
X18368Y22341D01*
X18328Y22400D01*
X18269Y22439D01*
X18200Y22453D01*
X18131Y22439D01*
X18072Y22400D01*
X18032Y22341D01*
X18018Y22272D01*
Y21937D01*
X18032Y21868D01*
X18072Y21809D01*
X18088Y21798D01*
Y20109D01*
X18088Y20109D01*
X18096Y20066D01*
X18121Y20029D01*
X18179Y19971D01*
X18179Y19971D01*
X18216Y19946D01*
X18259Y19938D01*
X19091D01*
X19091Y19938D01*
X19134Y19946D01*
X19171Y19971D01*
X19229Y20029D01*
X19229Y20029D01*
X19254Y20066D01*
X19262Y20109D01*
Y20380D01*
X19357D01*
Y20874D01*
X19262D01*
Y20990D01*
X19358D01*
Y21484D01*
X19312D01*
Y21798D01*
X19328Y21809D01*
X19368Y21868D01*
X19382Y21937D01*
Y22272D01*
X19368Y22341D01*
X19328Y22400D01*
X19269Y22439D01*
X19200Y22453D01*
D02*
G37*
G36*
X25725Y20000D02*
X25400D01*
Y19700D01*
X25725D01*
Y20000D01*
D02*
G37*
G36*
X24600D02*
X24275D01*
Y19700D01*
X24600D01*
Y20000D01*
D02*
G37*
G36*
X25725Y19600D02*
X25400D01*
Y19300D01*
X25725D01*
Y19600D01*
D02*
G37*
G36*
X25300Y20000D02*
X24700D01*
Y19650D01*
Y19300D01*
X25300D01*
Y19650D01*
X25350D01*
D01*
X25300D01*
Y20000D01*
D02*
G37*
G36*
X24600Y19600D02*
X24275D01*
Y19300D01*
X24600D01*
Y19600D01*
D02*
G37*
G36*
X10550Y19525D02*
X10250D01*
Y19200D01*
X10550D01*
Y19525D01*
D02*
G37*
G36*
X26250Y19214D02*
X26181Y19200D01*
X26122Y19161D01*
X26082Y19102D01*
X26068Y19033D01*
Y18913D01*
X25685D01*
Y19060D01*
X25015D01*
Y19060D01*
X24985D01*
Y19060D01*
X24315D01*
Y18963D01*
X24000D01*
X23938Y18951D01*
X23885Y18915D01*
X23849Y18862D01*
X23837Y18800D01*
X23849Y18738D01*
X23885Y18685D01*
X23938Y18649D01*
X24000Y18637D01*
X24315D01*
Y18440D01*
X24985D01*
Y18440D01*
X25015D01*
Y18440D01*
X25685D01*
Y18587D01*
X26068D01*
Y18501D01*
X26082Y18432D01*
X26122Y18373D01*
X26181Y18333D01*
X26250Y18320D01*
X26319Y18333D01*
X26378Y18373D01*
X26418Y18432D01*
X26432Y18501D01*
Y19033D01*
X26418Y19102D01*
X26378Y19161D01*
X26319Y19200D01*
X26250Y19214D01*
D02*
G37*
G36*
X27800Y19245D02*
Y18817D01*
X27972D01*
Y19033D01*
X27955Y19118D01*
X27907Y19190D01*
X27835Y19238D01*
X27800Y19245D01*
D02*
G37*
G36*
X27700D02*
X27665Y19238D01*
X27593Y19190D01*
X27545Y19118D01*
X27528Y19033D01*
Y18817D01*
X27700D01*
Y19245D01*
D02*
G37*
G36*
X34141Y26910D02*
X33076D01*
Y25490D01*
X33510D01*
Y24500D01*
X33529Y24408D01*
X33581Y24331D01*
X33658Y24279D01*
X33750Y24260D01*
X33842Y24279D01*
X33919Y24331D01*
X33971Y24408D01*
X33990Y24500D01*
Y25490D01*
X34141D01*
Y25960D01*
X34471D01*
X34472Y25960D01*
X34534Y25957D01*
X34585Y25948D01*
X34628Y25934D01*
X34663Y25915D01*
X34691Y25891D01*
X34715Y25863D01*
X34734Y25828D01*
X34748Y25785D01*
X34757Y25734D01*
X34760Y25672D01*
X34760Y25671D01*
Y24635D01*
X34690D01*
Y23965D01*
X34690D01*
Y23935D01*
X34690D01*
Y23265D01*
X34810D01*
Y22335D01*
X34740D01*
Y21665D01*
Y21015D01*
X34810D01*
Y20928D01*
X34726D01*
Y20641D01*
Y20354D01*
X34810D01*
Y19806D01*
X34498D01*
Y19635D01*
X34172D01*
X34109Y19622D01*
X34056Y19587D01*
X33935Y19465D01*
X33899Y19412D01*
X33887Y19350D01*
Y19180D01*
X33813D01*
Y18764D01*
X33810Y18748D01*
X33813Y18732D01*
Y18470D01*
X34287D01*
Y19180D01*
X34213D01*
Y19282D01*
X34239Y19309D01*
X34658D01*
X34674Y19312D01*
X34810D01*
Y18825D01*
X34813Y18813D01*
Y18470D01*
X35287D01*
Y18813D01*
X35290Y18825D01*
Y19312D01*
X35426D01*
X35442Y19309D01*
X35865D01*
X35887Y19287D01*
Y19180D01*
X35813D01*
Y18470D01*
X36111D01*
X36127Y18467D01*
X36143Y18470D01*
X36287D01*
Y18614D01*
X36290Y18630D01*
X36287Y18646D01*
Y19180D01*
X36213D01*
Y19354D01*
X36201Y19417D01*
X36165Y19470D01*
X36048Y19587D01*
X35995Y19622D01*
X35933Y19635D01*
X35602D01*
Y19806D01*
X35290D01*
Y20354D01*
X35374D01*
Y20641D01*
Y20928D01*
X35290D01*
Y21015D01*
X35360D01*
Y21665D01*
Y22335D01*
X35290D01*
Y23265D01*
X35310D01*
Y23935D01*
X35310D01*
Y23965D01*
X35310D01*
Y24635D01*
X35240D01*
Y25671D01*
X35240Y25672D01*
X35243Y25734D01*
X35252Y25785D01*
X35266Y25828D01*
X35285Y25863D01*
X35309Y25891D01*
X35337Y25915D01*
X35372Y25934D01*
X35401Y25943D01*
X36424D01*
Y26457D01*
X35359D01*
Y26440D01*
X34141D01*
Y26910D01*
D02*
G37*
G36*
X27835Y20410D02*
X27065D01*
Y19690D01*
X27087D01*
Y19109D01*
X27082Y19102D01*
X27068Y19033D01*
Y18501D01*
X27082Y18432D01*
X27122Y18373D01*
X27181Y18333D01*
X27250Y18320D01*
X27320Y18333D01*
X27378Y18373D01*
X27418Y18432D01*
X27432Y18501D01*
Y19033D01*
X27418Y19102D01*
X27413Y19109D01*
Y19690D01*
X27835D01*
Y20410D01*
D02*
G37*
G36*
X26935D02*
X26165D01*
Y19690D01*
X26587D01*
Y19109D01*
X26582Y19102D01*
X26568Y19033D01*
Y18501D01*
X26582Y18432D01*
X26622Y18373D01*
X26681Y18333D01*
X26750Y18320D01*
X26820Y18333D01*
X26878Y18373D01*
X26918Y18432D01*
X26932Y18501D01*
Y19033D01*
X26918Y19102D01*
X26913Y19109D01*
Y19690D01*
X26935D01*
Y20410D01*
D02*
G37*
G36*
X27972Y18717D02*
X27800D01*
Y18289D01*
X27835Y18296D01*
X27907Y18344D01*
X27955Y18416D01*
X27972Y18501D01*
Y18717D01*
D02*
G37*
G36*
X27700D02*
X27528D01*
Y18501D01*
X27545Y18416D01*
X27593Y18344D01*
X27665Y18296D01*
X27700Y18289D01*
Y18717D01*
D02*
G37*
G36*
X10550Y18450D02*
X10250D01*
Y18125D01*
X10550D01*
Y18450D01*
D02*
G37*
G36*
X12528Y18192D02*
X12291D01*
Y18024D01*
X12528D01*
Y18192D01*
D02*
G37*
G36*
X12191D02*
X11954D01*
Y18024D01*
X12191D01*
Y18192D01*
D02*
G37*
G36*
X12528Y17924D02*
X12291D01*
Y17756D01*
X12528D01*
Y17924D01*
D02*
G37*
G36*
X12191D02*
X11954D01*
Y17756D01*
X12191D01*
Y17924D01*
D02*
G37*
G36*
X11406Y18152D02*
X10912D01*
Y17818D01*
X10872D01*
Y17650D01*
X11159D01*
X11446D01*
Y17818D01*
X11406D01*
Y18152D01*
D02*
G37*
G36*
X13097Y18013D02*
X12603D01*
Y17578D01*
X13097D01*
Y17632D01*
X13566D01*
X13629Y17645D01*
X13681Y17680D01*
X13717Y17733D01*
X13729Y17796D01*
X13717Y17858D01*
X13681Y17911D01*
X13629Y17946D01*
X13566Y17959D01*
X13097D01*
Y18013D01*
D02*
G37*
G36*
X10550Y17859D02*
Y17401D01*
X10722D01*
Y17646D01*
X10705Y17731D01*
X10657Y17803D01*
X10585Y17852D01*
X10550Y17859D01*
D02*
G37*
G36*
X10450D02*
X10415Y17852D01*
X10343Y17803D01*
X10295Y17731D01*
X10278Y17646D01*
Y17401D01*
X10450D01*
Y17859D01*
D02*
G37*
%LPD*%
G36*
X20336Y32118D02*
X20318Y32096D01*
X20302Y32073D01*
X20288Y32050D01*
X20277Y32026D01*
X20267Y32001D01*
X20260Y31976D01*
X20254Y31949D01*
X20251Y31923D01*
X20250Y31895D01*
X20050D01*
X20049Y31923D01*
X20046Y31949D01*
X20040Y31976D01*
X20033Y32001D01*
X20023Y32026D01*
X20012Y32050D01*
X19998Y32073D01*
X19982Y32096D01*
X19964Y32118D01*
X19943Y32139D01*
X20357D01*
X20336Y32118D01*
D02*
G37*
G36*
X20251Y31035D02*
X20259Y30953D01*
X20266Y30920D01*
X20275Y30892D01*
X20286Y30869D01*
X20299Y30852D01*
X20314Y30839D01*
X20330Y30831D01*
X20349Y30829D01*
X19951D01*
X19970Y30831D01*
X19986Y30839D01*
X20001Y30852D01*
X20014Y30869D01*
X20025Y30892D01*
X20034Y30920D01*
X20041Y30953D01*
X20046Y30992D01*
X20049Y31035D01*
X20050Y31083D01*
X20250D01*
X20251Y31035D01*
D02*
G37*
G36*
X36359Y29786D02*
X36308Y29734D01*
X36159Y29562D01*
X36134Y29528D01*
X36116Y29497D01*
X36102Y29469D01*
X36094Y29445D01*
X36092Y29425D01*
X35892Y29625D01*
X35912Y29628D01*
X35936Y29636D01*
X35964Y29649D01*
X35995Y29668D01*
X36029Y29692D01*
X36108Y29756D01*
X36201Y29841D01*
X36253Y29892D01*
X36359Y29786D01*
D02*
G37*
G36*
X36254Y29347D02*
X36220Y29335D01*
X36190Y29315D01*
X36164Y29287D01*
X36142Y29251D01*
X36124Y29207D01*
X36110Y29155D01*
X36100Y29095D01*
X36094Y29027D01*
X36092Y28951D01*
X35692D01*
X35690Y29027D01*
X35679Y29155D01*
X35669Y29207D01*
X35657Y29251D01*
X35641Y29287D01*
X35623Y29315D01*
X35602Y29335D01*
X35578Y29347D01*
X35551Y29351D01*
X36292D01*
X36254Y29347D01*
D02*
G37*
G36*
X18336Y32118D02*
X18318Y32096D01*
X18302Y32073D01*
X18288Y32050D01*
X18277Y32026D01*
X18267Y32001D01*
X18260Y31976D01*
X18254Y31949D01*
X18251Y31923D01*
X18250Y31895D01*
X18050D01*
X18049Y31923D01*
X18046Y31949D01*
X18040Y31976D01*
X18033Y32001D01*
X18023Y32026D01*
X18012Y32050D01*
X17998Y32073D01*
X17982Y32096D01*
X17964Y32118D01*
X17943Y32139D01*
X18357D01*
X18336Y32118D01*
D02*
G37*
G36*
X18251Y31035D02*
X18259Y30953D01*
X18266Y30920D01*
X18275Y30892D01*
X18286Y30869D01*
X18299Y30852D01*
X18314Y30839D01*
X18330Y30831D01*
X18349Y30829D01*
X17951D01*
X17970Y30831D01*
X17986Y30839D01*
X18001Y30852D01*
X18014Y30869D01*
X18025Y30892D01*
X18034Y30920D01*
X18041Y30953D01*
X18046Y30992D01*
X18049Y31035D01*
X18050Y31083D01*
X18250D01*
X18251Y31035D01*
D02*
G37*
G36*
X20279Y26029D02*
X20273Y26033D01*
X20264Y26037D01*
X20251Y26040D01*
X20235Y26043D01*
X20192Y26047D01*
X20101Y26050D01*
X20063Y26050D01*
Y26150D01*
X20101Y26150D01*
X20251Y26160D01*
X20264Y26163D01*
X20273Y26167D01*
X20279Y26171D01*
Y26029D01*
D02*
G37*
G36*
X19336Y32118D02*
X19318Y32096D01*
X19302Y32073D01*
X19288Y32050D01*
X19277Y32026D01*
X19267Y32001D01*
X19260Y31976D01*
X19254Y31949D01*
X19251Y31923D01*
X19250Y31895D01*
X19050D01*
X19049Y31923D01*
X19046Y31949D01*
X19040Y31976D01*
X19033Y32001D01*
X19023Y32026D01*
X19012Y32050D01*
X18998Y32073D01*
X18982Y32096D01*
X18964Y32118D01*
X18943Y32139D01*
X19357D01*
X19336Y32118D01*
D02*
G37*
G36*
X19251Y31035D02*
X19259Y30953D01*
X19266Y30920D01*
X19275Y30892D01*
X19286Y30869D01*
X19299Y30852D01*
X19314Y30839D01*
X19330Y30831D01*
X19349Y30829D01*
X18951D01*
X18970Y30831D01*
X18986Y30839D01*
X19001Y30852D01*
X19014Y30869D01*
X19025Y30892D01*
X19034Y30920D01*
X19041Y30953D01*
X19046Y30992D01*
X19049Y31035D01*
X19050Y31083D01*
X19250D01*
X19251Y31035D01*
D02*
G37*
G36*
X15506Y22955D02*
X15509Y22955D01*
X15512Y22954D01*
X15516Y22953D01*
X15526Y22952D01*
X15548Y22952D01*
X15557Y22952D01*
X15559Y22852D01*
X15550Y22852D01*
X15518Y22850D01*
X15514Y22849D01*
X15511Y22848D01*
X15509Y22847D01*
X15507Y22846D01*
X15505Y22956D01*
X15506Y22955D01*
D02*
G37*
G36*
X25771Y22546D02*
X25841Y22488D01*
X25875Y22465D01*
X25909Y22445D01*
X25943Y22429D01*
X25977Y22416D01*
X26011Y22407D01*
X26044Y22402D01*
X26077Y22400D01*
Y22200D01*
X26044Y22198D01*
X26011Y22193D01*
X25977Y22184D01*
X25943Y22171D01*
X25909Y22155D01*
X25875Y22135D01*
X25841Y22112D01*
X25806Y22085D01*
X25771Y22054D01*
X25736Y22020D01*
Y22580D01*
X25771Y22546D01*
D02*
G37*
G36*
X25164Y22020D02*
X25129Y22054D01*
X25059Y22112D01*
X25025Y22135D01*
X24991Y22155D01*
X24957Y22171D01*
X24923Y22184D01*
X24889Y22193D01*
X24856Y22198D01*
X24823Y22200D01*
Y22400D01*
X24856Y22402D01*
X24889Y22407D01*
X24923Y22416D01*
X24957Y22429D01*
X24991Y22445D01*
X25025Y22465D01*
X25059Y22488D01*
X25094Y22515D01*
X25129Y22546D01*
X25164Y22580D01*
Y22020D01*
D02*
G37*
G36*
X28264D02*
X28229Y22054D01*
X28159Y22112D01*
X28125Y22135D01*
X28091Y22155D01*
X28057Y22171D01*
X28023Y22184D01*
X27989Y22193D01*
X27956Y22198D01*
X27923Y22200D01*
Y22400D01*
X27956Y22402D01*
X27989Y22407D01*
X28023Y22416D01*
X28057Y22429D01*
X28091Y22445D01*
X28125Y22465D01*
X28159Y22488D01*
X28194Y22515D01*
X28229Y22546D01*
X28264Y22580D01*
Y22020D01*
D02*
G37*
G36*
X35525Y26025D02*
X35459Y26021D01*
X35399Y26011D01*
X35347Y25993D01*
X35301Y25969D01*
X35262Y25938D01*
X35231Y25899D01*
X35206Y25854D01*
X35189Y25801D01*
X35178Y25742D01*
X35175Y25675D01*
X34825D01*
X34822Y25742D01*
X34811Y25801D01*
X34794Y25854D01*
X34769Y25899D01*
X34738Y25938D01*
X34699Y25969D01*
X34653Y25993D01*
X34601Y26011D01*
X34541Y26021D01*
X34475Y26025D01*
X35000Y26375D01*
X35525Y26025D01*
D02*
G37*
%LPC*%
G36*
X27800Y15111D02*
Y14683D01*
X27972D01*
Y14899D01*
X27955Y14984D01*
X27907Y15056D01*
X27835Y15104D01*
X27800Y15111D01*
D02*
G37*
G36*
X27700D02*
X27665Y15104D01*
X27593Y15056D01*
X27545Y14984D01*
X27528Y14899D01*
Y14683D01*
X27700D01*
Y15111D01*
D02*
G37*
G36*
X35327Y14795D02*
X35100D01*
Y14450D01*
X35327D01*
Y14795D01*
D02*
G37*
G36*
X35000D02*
X34773D01*
Y14450D01*
X35000D01*
Y14795D01*
D02*
G37*
G36*
X27972Y14583D02*
X27800D01*
Y14155D01*
X27835Y14162D01*
X27907Y14210D01*
X27955Y14282D01*
X27972Y14367D01*
Y14583D01*
D02*
G37*
G36*
X27700D02*
X27528D01*
Y14367D01*
X27545Y14282D01*
X27593Y14210D01*
X27665Y14162D01*
X27700Y14155D01*
Y14583D01*
D02*
G37*
G36*
X35327Y14350D02*
X35100D01*
Y14005D01*
X35327D01*
Y14350D01*
D02*
G37*
G36*
X35000D02*
X34773D01*
Y14005D01*
X35000D01*
Y14350D01*
D02*
G37*
G36*
X32150Y14864D02*
X32030Y14848D01*
X31918Y14802D01*
X31822Y14728D01*
X31748Y14632D01*
X31702Y14520D01*
X31686Y14400D01*
X31702Y14280D01*
X31748Y14168D01*
X31822Y14072D01*
X31918Y13998D01*
X32030Y13952D01*
X32150Y13936D01*
X32151Y13936D01*
X32153Y13935D01*
X32200Y13934D01*
X32243Y13932D01*
X32283Y13927D01*
X32319Y13920D01*
X32353Y13911D01*
X32383Y13900D01*
X32411Y13887D01*
X32435Y13873D01*
X32457Y13857D01*
X32479Y13837D01*
X32483Y13836D01*
X32947Y13373D01*
X33000Y13337D01*
X33062Y13325D01*
X33185D01*
Y12927D01*
X33915D01*
Y13873D01*
X33915D01*
X33903Y13904D01*
X34044Y14045D01*
X34287D01*
Y14755D01*
X33813D01*
Y14275D01*
X33586Y14048D01*
X33550Y13995D01*
X33538Y13933D01*
Y13873D01*
X33185D01*
Y13651D01*
X33130D01*
X32714Y14067D01*
X32713Y14071D01*
X32693Y14093D01*
X32677Y14115D01*
X32663Y14139D01*
X32650Y14167D01*
X32639Y14197D01*
X32630Y14231D01*
X32624Y14266D01*
X32616Y14350D01*
X32615Y14397D01*
X32614Y14399D01*
X32614Y14400D01*
X32598Y14520D01*
X32552Y14632D01*
X32478Y14728D01*
X32382Y14802D01*
X32270Y14848D01*
X32150Y14864D01*
D02*
G37*
G36*
X25650Y14125D02*
X25350D01*
Y13800D01*
X25650D01*
Y14125D01*
D02*
G37*
G36*
X29475Y14100D02*
X29150D01*
Y13800D01*
X29475D01*
Y14100D01*
D02*
G37*
G36*
X28300D02*
X27975D01*
Y13800D01*
X28300D01*
Y14100D01*
D02*
G37*
G36*
X25250Y14125D02*
X24950D01*
Y13800D01*
X25250D01*
Y14125D01*
D02*
G37*
G36*
X37800Y14864D02*
X37680Y14848D01*
X37568Y14802D01*
X37472Y14728D01*
X37398Y14632D01*
X37352Y14520D01*
X37336Y14400D01*
X37336Y14399D01*
X37335Y14397D01*
X37334Y14350D01*
X37332Y14307D01*
X37327Y14267D01*
X37320Y14231D01*
X37311Y14197D01*
X37300Y14167D01*
X37287Y14139D01*
X37273Y14115D01*
X37257Y14093D01*
X37237Y14071D01*
X37236Y14067D01*
X36870Y13701D01*
X36815D01*
Y13873D01*
X36512D01*
Y13983D01*
X36500Y14045D01*
X36464Y14098D01*
X36287Y14275D01*
Y14755D01*
X35813D01*
Y14045D01*
X36056D01*
X36178Y13923D01*
X36167Y13873D01*
X36085D01*
Y12927D01*
X36815D01*
Y13375D01*
X36938D01*
X37000Y13387D01*
X37053Y13423D01*
X37467Y13836D01*
X37471Y13837D01*
X37493Y13857D01*
X37515Y13873D01*
X37539Y13887D01*
X37567Y13900D01*
X37597Y13911D01*
X37631Y13920D01*
X37666Y13926D01*
X37750Y13934D01*
X37797Y13935D01*
X37799Y13936D01*
X37800Y13936D01*
X37920Y13952D01*
X38032Y13998D01*
X38128Y14072D01*
X38202Y14168D01*
X38248Y14280D01*
X38264Y14400D01*
X38248Y14520D01*
X38202Y14632D01*
X38128Y14728D01*
X38032Y14802D01*
X37920Y14848D01*
X37800Y14864D01*
D02*
G37*
G36*
X26250Y15080D02*
X26181Y15067D01*
X26122Y15027D01*
X26082Y14968D01*
X26068Y14899D01*
Y14367D01*
X26082Y14298D01*
X26087Y14291D01*
Y14085D01*
X25890D01*
Y13415D01*
X26510D01*
Y14085D01*
X26413D01*
Y14291D01*
X26418Y14298D01*
X26432Y14367D01*
Y14899D01*
X26418Y14968D01*
X26378Y15027D01*
X26319Y15067D01*
X26250Y15080D01*
D02*
G37*
G36*
X29475Y13700D02*
X29150D01*
Y13400D01*
X29475D01*
Y13700D01*
D02*
G37*
G36*
X29050Y14100D02*
X28400D01*
Y13750D01*
X28350D01*
D01*
X28400D01*
Y13400D01*
X29050D01*
Y13750D01*
Y14100D01*
D02*
G37*
G36*
X28300Y13700D02*
X27975D01*
Y13400D01*
X28300D01*
Y13700D01*
D02*
G37*
G36*
X35350Y13350D02*
X34750D01*
Y13000D01*
Y12650D01*
X35350D01*
Y13000D01*
X35400D01*
D01*
X35350D01*
Y13100D01*
X35050Y12900D01*
X34750Y13100D01*
X34788Y13102D01*
X34822Y13108D01*
X34852Y13118D01*
X34878Y13132D01*
X34900Y13150D01*
X34918Y13172D01*
X34932Y13198D01*
X34942Y13228D01*
X34948Y13262D01*
X34950Y13300D01*
X35150D01*
X35152Y13262D01*
X35158Y13228D01*
X35168Y13198D01*
X35182Y13172D01*
X35200Y13150D01*
X35222Y13132D01*
X35248Y13118D01*
X35278Y13108D01*
X35312Y13102D01*
X35350Y13100D01*
Y13350D01*
D02*
G37*
G36*
X35775D02*
X35450D01*
Y13050D01*
X35775D01*
Y13350D01*
D02*
G37*
G36*
X34650D02*
X34325D01*
Y13050D01*
X34650D01*
Y13350D01*
D02*
G37*
G36*
X25650Y13700D02*
X25300D01*
X24950D01*
Y13375D01*
Y13000D01*
X25350D01*
X25750D01*
Y13375D01*
X25650D01*
Y13700D01*
D02*
G37*
G36*
X35775Y12950D02*
X35450D01*
Y12650D01*
X35775D01*
Y12950D01*
D02*
G37*
G36*
X34650D02*
X34325D01*
Y12650D01*
X34650D01*
Y12950D01*
D02*
G37*
G36*
X25750Y12900D02*
X25400D01*
Y12525D01*
X25750D01*
Y12900D01*
D02*
G37*
G36*
X25300D02*
X24950D01*
Y12525D01*
X25300D01*
Y12900D01*
D02*
G37*
G36*
X32900Y12225D02*
X32600D01*
Y11900D01*
X32900D01*
Y12225D01*
D02*
G37*
G36*
X32500D02*
X32200D01*
Y11900D01*
X32500D01*
Y12225D01*
D02*
G37*
G36*
X35035Y12410D02*
Y12410D01*
X35016Y12410D01*
X34365D01*
Y11996D01*
X34200Y11831D01*
X33915D01*
Y12141D01*
X33185D01*
Y11194D01*
X33915D01*
Y11505D01*
X34268D01*
X34330Y11517D01*
X34383Y11552D01*
X34621Y11790D01*
X34866D01*
X34885Y11746D01*
X34885Y11740D01*
X34883Y11710D01*
X34879Y11684D01*
X34871Y11657D01*
X34860Y11631D01*
X34846Y11605D01*
X34828Y11578D01*
X34807Y11551D01*
X34781Y11524D01*
X34752Y11497D01*
X34717Y11469D01*
X34711Y11458D01*
X34672Y11428D01*
X34598Y11332D01*
X34552Y11220D01*
X34536Y11100D01*
X34552Y10980D01*
X34598Y10868D01*
X34672Y10772D01*
X34768Y10698D01*
X34880Y10652D01*
X35000Y10636D01*
X35082Y10647D01*
X35083Y10646D01*
X35090Y10648D01*
X35092Y10648D01*
X35100Y10646D01*
X35109Y10647D01*
X35114Y10647D01*
X35122Y10646D01*
X35132Y10642D01*
X35145Y10637D01*
X35159Y10628D01*
X35175Y10618D01*
X35187Y10607D01*
Y10410D01*
X34365D01*
Y10263D01*
X33742D01*
Y10691D01*
X33248D01*
Y9509D01*
X33742D01*
Y9937D01*
X34365D01*
Y9790D01*
X35685D01*
Y10410D01*
X35513D01*
Y10683D01*
X35501Y10745D01*
X35471Y10789D01*
X35468Y10798D01*
X35451Y10816D01*
X35438Y10831D01*
X35428Y10845D01*
X35421Y10857D01*
X35417Y10867D01*
X35414Y10875D01*
X35413Y10881D01*
X35414Y10884D01*
X35414Y10887D01*
X35418Y10896D01*
X35417Y10905D01*
X35422Y10912D01*
X35421Y10914D01*
X35448Y10980D01*
X35464Y11100D01*
X35448Y11220D01*
X35402Y11332D01*
X35368Y11376D01*
X35365Y11388D01*
X35335Y11427D01*
X35286Y11502D01*
X35266Y11536D01*
X35250Y11569D01*
X35237Y11600D01*
X35227Y11631D01*
X35220Y11659D01*
X35216Y11686D01*
X35215Y11714D01*
X35213Y11718D01*
Y11790D01*
X35479D01*
X35717Y11552D01*
X35770Y11517D01*
X35832Y11505D01*
X35832Y11505D01*
X36085D01*
Y11194D01*
X36815D01*
Y12141D01*
X36085D01*
Y11831D01*
X35900D01*
X35735Y11996D01*
Y12410D01*
X35084D01*
X35065Y12410D01*
Y12410D01*
X35035D01*
D02*
G37*
G36*
X32900Y11800D02*
X32550D01*
X32200D01*
Y11475D01*
Y11250D01*
X32550D01*
X32900D01*
Y11475D01*
Y11800D01*
D02*
G37*
G36*
Y11150D02*
X32600D01*
Y10825D01*
X32900D01*
Y11150D01*
D02*
G37*
G36*
X32500D02*
X32200D01*
Y10825D01*
X32500D01*
Y11150D01*
D02*
G37*
G36*
X35725Y9550D02*
X35400D01*
Y9250D01*
X35725D01*
Y9550D01*
D02*
G37*
G36*
X34650D02*
X34325D01*
Y9250D01*
X34650D01*
Y9550D01*
D02*
G37*
G36*
X35725Y9150D02*
X35400D01*
Y8850D01*
X35725D01*
Y9150D01*
D02*
G37*
G36*
X35300Y9550D02*
X34750D01*
Y9200D01*
Y8850D01*
X35300D01*
Y9200D01*
Y9550D01*
D02*
G37*
G36*
X34650Y9150D02*
X34325D01*
Y8850D01*
X34650D01*
Y9150D01*
D02*
G37*
G36*
X33790Y8783D02*
X32648D01*
Y7532D01*
X33790D01*
Y8783D01*
D02*
G37*
G36*
X32548D02*
X31405D01*
Y7532D01*
X32548D01*
Y8783D01*
D02*
G37*
G36*
X34826Y7248D02*
X34836Y7220D01*
X34870Y7140D01*
X34891Y7097D01*
X34943Y7007D01*
X34650Y7082D01*
Y6850D01*
X35098D01*
X35087Y6931D01*
X35037Y7052D01*
X34957Y7157D01*
X34852Y7237D01*
X34826Y7248D01*
D02*
G37*
G36*
X34550Y7298D02*
X34469Y7287D01*
X34348Y7237D01*
X34243Y7157D01*
X34163Y7052D01*
X34114Y6932D01*
X34141Y6945D01*
X34175Y6965D01*
X34209Y6988D01*
X34244Y7015D01*
X34279Y7046D01*
X34314Y7080D01*
Y6850D01*
X34550D01*
Y7108D01*
X34400Y7147D01*
X34438Y7170D01*
X34472Y7195D01*
X34502Y7221D01*
X34528Y7249D01*
X34550Y7277D01*
Y7298D01*
D02*
G37*
G36*
Y6750D02*
X34314D01*
Y6520D01*
X34279Y6554D01*
X34209Y6612D01*
X34175Y6635D01*
X34141Y6655D01*
X34114Y6668D01*
X34163Y6548D01*
X34243Y6443D01*
X34348Y6363D01*
X34469Y6313D01*
X34550Y6302D01*
Y6750D01*
D02*
G37*
G36*
X35098D02*
X34650D01*
Y6302D01*
X34731Y6313D01*
X34852Y6363D01*
X34957Y6443D01*
X35037Y6548D01*
X35087Y6669D01*
X35098Y6750D01*
D02*
G37*
G36*
X33790Y7432D02*
X32648D01*
Y6181D01*
X33790D01*
Y7432D01*
D02*
G37*
G36*
X32548D02*
X31405D01*
Y6181D01*
X32548D01*
Y7432D01*
D02*
G37*
G36*
X31544Y3142D02*
X31100D01*
Y2600D01*
X31276D01*
Y3050D01*
X31467Y3055D01*
X31544Y3062D01*
Y3142D01*
D02*
G37*
G36*
X23694Y2942D02*
X23458D01*
X23459Y2938D01*
X23466Y2912D01*
X23475Y2890D01*
X23486Y2872D01*
X23499Y2858D01*
X23514Y2848D01*
X23531Y2842D01*
X23550Y2840D01*
X23250D01*
Y2400D01*
X23694D01*
Y2942D01*
D02*
G37*
G36*
X23150D02*
X22706D01*
Y2400D01*
X23150D01*
Y2942D01*
D02*
G37*
G36*
X31276Y2500D02*
X31100D01*
Y1958D01*
X31544D01*
Y2038D01*
X31467Y2045D01*
X31276Y2050D01*
Y2500D01*
D02*
G37*
G36*
X23694Y2300D02*
X23250D01*
Y1758D01*
X23694D01*
Y2300D01*
D02*
G37*
G36*
X23150D02*
X22706D01*
Y1758D01*
X23150D01*
Y2300D01*
D02*
G37*
%LPD*%
G36*
X32551Y14347D02*
X32559Y14257D01*
X32567Y14216D01*
X32577Y14178D01*
X32590Y14142D01*
X32605Y14109D01*
X32622Y14079D01*
X32642Y14052D01*
X32664Y14027D01*
X32523Y13886D01*
X32498Y13908D01*
X32471Y13928D01*
X32441Y13945D01*
X32408Y13960D01*
X32372Y13973D01*
X32334Y13983D01*
X32293Y13991D01*
X32249Y13996D01*
X32203Y13999D01*
X32154Y14000D01*
X32550Y14396D01*
X32551Y14347D01*
D02*
G37*
G36*
X37796Y14000D02*
X37747Y13999D01*
X37657Y13991D01*
X37616Y13983D01*
X37578Y13973D01*
X37542Y13960D01*
X37509Y13945D01*
X37479Y13928D01*
X37452Y13908D01*
X37427Y13886D01*
X37286Y14027D01*
X37308Y14052D01*
X37328Y14079D01*
X37345Y14109D01*
X37360Y14142D01*
X37373Y14178D01*
X37383Y14216D01*
X37391Y14257D01*
X37396Y14301D01*
X37399Y14347D01*
X37400Y14396D01*
X37796Y14000D01*
D02*
G37*
G36*
X35350Y12000D02*
X35312Y11998D01*
X35278Y11992D01*
X35248Y11982D01*
X35222Y11968D01*
X35200Y11950D01*
X35182Y11928D01*
X35168Y11902D01*
X35158Y11872D01*
X35152Y11838D01*
X35150Y11800D01*
X34950D01*
X34948Y11838D01*
X34942Y11872D01*
X34932Y11902D01*
X34918Y11928D01*
X34900Y11950D01*
X34878Y11968D01*
X34852Y11982D01*
X34822Y11992D01*
X34788Y11998D01*
X34750Y12000D01*
X35050Y12200D01*
X35350Y12000D01*
D02*
G37*
G36*
X35150Y11711D02*
X35152Y11679D01*
X35157Y11646D01*
X35165Y11613D01*
X35176Y11578D01*
X35191Y11542D01*
X35209Y11505D01*
X35230Y11468D01*
X35282Y11389D01*
X35314Y11348D01*
X34758Y11418D01*
X34794Y11448D01*
X34827Y11478D01*
X34856Y11508D01*
X34881Y11539D01*
X34902Y11571D01*
X34919Y11603D01*
X34933Y11636D01*
X34942Y11669D01*
X34948Y11703D01*
X34950Y11737D01*
X35150Y11711D01*
D02*
G37*
G36*
X35352Y10906D02*
X35349Y10891D01*
X35348Y10876D01*
X35351Y10861D01*
X35356Y10844D01*
X35364Y10827D01*
X35374Y10810D01*
X35387Y10792D01*
X35402Y10773D01*
X35421Y10754D01*
X35279Y10612D01*
X35257Y10634D01*
X35214Y10669D01*
X35194Y10683D01*
X35174Y10694D01*
X35156Y10703D01*
X35138Y10709D01*
X35122Y10712D01*
X35106Y10713D01*
X35091Y10710D01*
X35357Y10920D01*
X35352Y10906D01*
D02*
G37*
D12*
X9750Y18168D02*
Y20150D01*
X9500Y17008D02*
Y17918D01*
X9750Y18168D01*
X9441Y16948D02*
X9500Y17008D01*
X9750Y20150D02*
X10322Y20722D01*
X9441Y16941D02*
Y16948D01*
X8350Y16750D02*
X9250D01*
X10322Y20722D02*
X17700D01*
X9250Y16750D02*
X9441Y16941D01*
X15950Y22902D02*
X18448D01*
X15452D02*
X15950D01*
X15450Y22900D02*
X15452Y22902D01*
X15050Y25100D02*
X15450Y25500D01*
X15050Y22650D02*
X15596Y22104D01*
X15050Y22650D02*
Y25100D01*
X35950Y21325D02*
Y21350D01*
Y21325D02*
X36150Y21125D01*
X34676Y20572D02*
Y20641D01*
X34608Y20504D02*
X34676Y20572D01*
X34539Y20504D02*
X34608D01*
X15450Y25500D02*
X19122D01*
X15950Y23453D02*
X17700D01*
X15950D02*
Y23950D01*
X19550Y26300D02*
X19739D01*
X19939Y26100D01*
X20350D01*
X19700Y23700D02*
Y24250D01*
Y23700D02*
X19954Y23446D01*
X20900D01*
X20494Y22894D02*
X20900D01*
X20200Y22600D02*
X20494Y22894D01*
X20200Y22104D02*
Y22600D01*
X19122Y25500D02*
X19150Y25528D01*
X15596Y22104D02*
X17200D01*
X18700D02*
Y22650D01*
X18448Y22902D02*
X18700Y22650D01*
X19150Y20109D02*
Y21227D01*
X19140Y21237D02*
X19200Y21297D01*
Y22104D01*
X18259Y20050D02*
X19091D01*
X19140Y21237D02*
X19150Y21227D01*
X19091Y20050D02*
X19150Y20109D01*
X18200D02*
Y22104D01*
Y20109D02*
X18259Y20050D01*
X18589Y21237D02*
X18696Y21344D01*
Y21429D01*
X18700Y21432D01*
Y22104D01*
X17700Y21273D02*
Y22104D01*
X20200Y24250D02*
Y24809D01*
X20221Y24830D01*
Y24868D01*
X20328Y24975D01*
X20358D01*
X20900Y23446D02*
X20950Y23496D01*
X19200Y24250D02*
Y24927D01*
X19150Y24977D02*
X19200Y24927D01*
X17700Y23453D02*
X18200D01*
X17700D02*
Y24250D01*
X18200Y23453D02*
X18641D01*
X18200D02*
Y24250D01*
X18700Y23511D02*
Y24250D01*
X18641Y23453D02*
X18700Y23511D01*
D17*
X36317Y29850D02*
X36350D01*
X35892Y29425D02*
X36317Y29850D01*
D18*
X35050Y21350D02*
D03*
X35950D02*
D03*
X26200Y13750D02*
D03*
X25300D02*
D03*
X10200Y19150D02*
D03*
X9300D02*
D03*
X10200Y18500D02*
D03*
X9300D02*
D03*
X31650Y11850D02*
D03*
X32550D02*
D03*
X31650Y11200D02*
D03*
X32550D02*
D03*
X35050Y22000D02*
D03*
X35950D02*
D03*
X35000Y24300D02*
D03*
X35900D02*
D03*
X35000Y23600D02*
D03*
X35900D02*
D03*
Y28100D02*
D03*
X35000D02*
D03*
X35900Y28750D02*
D03*
X35000D02*
D03*
D19*
X33608Y26200D02*
D03*
D20*
X35892Y27106D02*
D03*
Y26200D02*
D03*
Y25294D02*
D03*
D21*
X26250Y14633D02*
D03*
X26750D02*
D03*
X27250D02*
D03*
X27750D02*
D03*
X26250Y18767D02*
D03*
X26750D02*
D03*
X27250D02*
D03*
X27750D02*
D03*
D22*
X33550Y11668D02*
D03*
Y13400D02*
D03*
X36450Y11668D02*
D03*
Y13400D02*
D03*
D23*
X26650Y8000D02*
D03*
Y6700D02*
D03*
Y10100D02*
D03*
Y8800D02*
D03*
Y12200D02*
D03*
Y10900D02*
D03*
X27450Y21350D02*
D03*
Y20050D02*
D03*
X26550Y21350D02*
D03*
Y20050D02*
D03*
D24*
X25350Y12950D02*
D03*
X26650D02*
D03*
D25*
X32598Y7482D02*
D03*
D26*
X31700Y10100D02*
D03*
X33495D02*
D03*
D27*
X7700Y17300D02*
D03*
Y16749D02*
D03*
X8350Y16750D02*
D03*
Y17301D02*
D03*
X12850Y17244D02*
D03*
Y17796D02*
D03*
X15950Y23453D02*
D03*
Y22902D02*
D03*
X16550Y22902D02*
D03*
Y23453D02*
D03*
X17700Y20722D02*
D03*
Y21273D02*
D03*
X19700Y21278D02*
D03*
Y20727D02*
D03*
X19150Y25528D02*
D03*
Y24977D02*
D03*
X20358Y24975D02*
D03*
Y25527D02*
D03*
X20900Y22894D02*
D03*
Y23446D02*
D03*
D28*
X10500Y17351D02*
D03*
X10000D02*
D03*
X9500D02*
D03*
X9000D02*
D03*
X10500Y14949D02*
D03*
X10000D02*
D03*
X9500D02*
D03*
X9000D02*
D03*
D29*
X18589Y21237D02*
D03*
X19140D02*
D03*
X19139Y20627D02*
D03*
X18588D02*
D03*
X20350Y26100D02*
D03*
X20901D02*
D03*
X27900Y23200D02*
D03*
X28451D02*
D03*
X28446Y23800D02*
D03*
X27894D02*
D03*
X26200Y23200D02*
D03*
X25649D02*
D03*
X25654Y23800D02*
D03*
X26206D02*
D03*
D30*
X27650Y22300D02*
D03*
X26350D02*
D03*
D31*
X24650Y19650D02*
D03*
Y18750D02*
D03*
X25350Y19650D02*
D03*
Y18750D02*
D03*
X28350Y13750D02*
D03*
Y12850D02*
D03*
X29100Y13750D02*
D03*
Y12850D02*
D03*
X34700Y10100D02*
D03*
Y9200D02*
D03*
X35350Y10100D02*
D03*
Y9200D02*
D03*
X34700Y12100D02*
D03*
Y13000D02*
D03*
X35400Y12100D02*
D03*
Y13000D02*
D03*
D32*
X36050Y14400D02*
D03*
X34050D02*
D03*
X35050D02*
D03*
X34050Y18825D02*
D03*
X35050D02*
D03*
X36050D02*
D03*
D33*
X34676Y20641D02*
D03*
X35424D02*
D03*
Y19559D02*
D03*
X35050D02*
D03*
X34676D02*
D03*
D34*
X20200Y24250D02*
D03*
X19700D02*
D03*
X19200D02*
D03*
X18700D02*
D03*
X18200D02*
D03*
X17700D02*
D03*
X17200D02*
D03*
X20200Y22104D02*
D03*
X19700D02*
D03*
X19200D02*
D03*
X18700D02*
D03*
X18200D02*
D03*
X17700D02*
D03*
X17200D02*
D03*
D35*
X12241Y17974D02*
D03*
Y17226D02*
D03*
X11159D02*
D03*
Y17600D02*
D03*
Y17974D02*
D03*
D63*
X35050Y13000D02*
Y14400D01*
X34700Y13000D02*
X35050D01*
X34675D02*
X34700D01*
X32550Y12600D02*
Y13350D01*
X32150Y13750D02*
X32550Y13350D01*
Y7530D02*
Y11200D01*
X32598Y2952D02*
Y7482D01*
X23500Y11100D02*
X25125Y12725D01*
X23500Y3250D02*
Y11100D01*
X23200Y2350D02*
X23350Y2500D01*
Y3150D02*
X23450Y3250D01*
X23350Y2500D02*
Y3150D01*
X21200Y14600D02*
X22050Y15450D01*
X21200Y2350D02*
Y14600D01*
X29100Y13750D02*
X32150D01*
X24000Y18800D02*
X24600D01*
X24650Y18750D01*
X12850Y17796D02*
X13566D01*
X25383Y20083D02*
X26050Y20750D01*
X18600Y19300D02*
X22350D01*
X10350D02*
X12241D01*
X28450Y19150D02*
Y20550D01*
X12241Y19300D02*
X18600D01*
X10400Y10200D02*
X10500Y10100D01*
Y10200D02*
Y12250D01*
X11400D02*
Y14250D01*
X10000Y10600D02*
Y11250D01*
Y13250D02*
Y14949D01*
X14400Y6200D02*
X15942Y4658D01*
X10500Y14250D02*
Y14949D01*
X10000Y10600D02*
X10400Y10200D01*
X10000Y11250D02*
Y13250D01*
X11325Y9275D02*
X11400Y9200D01*
X12400Y8200D02*
X14400Y6200D01*
X11400Y14250D02*
Y14950D01*
X10500Y12250D02*
Y14250D01*
X11400Y9200D02*
Y12250D01*
Y9200D02*
X12400Y8200D01*
X34350Y30550D02*
Y30914D01*
X34750Y31314D02*
X34769D01*
X34350Y30914D02*
X34750Y31314D01*
X35892Y24300D02*
Y25294D01*
X36950D01*
X35892Y21408D02*
Y22000D01*
X36950Y25294D02*
X37194D01*
X35892Y23600D02*
Y24300D01*
X35000Y29250D02*
Y30033D01*
Y28750D02*
Y29250D01*
X35892Y22000D02*
Y23600D01*
X36588Y13538D02*
X36938D01*
X37800Y14400D01*
X36450Y13400D02*
X36588Y13538D01*
X34700Y6900D02*
Y9200D01*
X33062Y13488D02*
X33462D01*
X32150Y14400D02*
X33062Y13488D01*
X36050Y18707D02*
Y18825D01*
Y18707D02*
X36127Y18630D01*
X33973Y18748D02*
X34050Y18825D01*
X36349Y13501D02*
Y13983D01*
Y13501D02*
X36450Y13400D01*
X36050Y14282D02*
X36349Y13983D01*
X33550Y13400D02*
X33701Y13551D01*
X34050Y14282D02*
Y14400D01*
X33701Y13551D02*
Y13933D01*
X34050Y14282D01*
X33462Y13488D02*
X33550Y13400D01*
X36050Y18825D02*
Y19354D01*
X35442Y19472D02*
X35933D01*
X36050Y19354D01*
X34050Y18825D02*
Y19350D01*
X34172Y19472D01*
X34658D01*
X12235Y17968D02*
X12241Y17974D01*
X11918Y17968D02*
X12235D01*
X11550Y17600D02*
X11918Y17968D01*
X11159Y17600D02*
X11550D01*
X10200Y18500D02*
X10208Y18492D01*
Y18042D02*
Y18492D01*
X10493Y17358D02*
X10500Y17351D01*
X10493Y17358D02*
Y17757D01*
X10208Y18042D02*
X10493Y17757D01*
X10200Y18500D02*
Y19150D01*
X10350Y19300D01*
X12241Y17974D02*
Y19300D01*
X22700Y19650D02*
X24650D01*
X22350Y19300D02*
X22700Y19650D01*
X6050Y16700D02*
X7651D01*
X7700Y16749D01*
X5700Y17050D02*
X6050Y16700D01*
X28446Y23800D02*
Y28604D01*
X27900Y29150D02*
X28446Y28604D01*
X29100Y13750D02*
X29200Y13850D01*
Y14500D01*
X24400Y13750D02*
X25300D01*
X9300Y19150D02*
Y19700D01*
X35950Y20850D02*
Y21325D01*
X20350Y26100D02*
Y28250D01*
X18454Y30146D02*
X20350Y28250D01*
X11750Y30450D02*
X17150D01*
X8350Y27050D02*
X11750Y30450D01*
X8350Y17301D02*
Y27050D01*
X18588Y20627D02*
X18600Y20616D01*
Y20300D02*
Y20616D01*
X26206Y23800D02*
X27894D01*
X26200Y23806D02*
X26206Y23800D01*
X26200Y23806D02*
Y25800D01*
X20901Y26100D02*
X21700D01*
X21150Y32350D02*
Y33250D01*
X8300Y34000D02*
X20400D01*
X21150Y33250D01*
X5700Y17050D02*
Y31400D01*
X8300Y34000D01*
X27250Y14633D02*
Y15200D01*
Y13350D02*
Y14633D01*
X22050Y15450D02*
X27000D01*
X27250Y15200D01*
X31700Y10100D02*
Y11200D01*
Y11850D02*
Y12800D01*
Y11200D02*
Y11850D01*
X18150Y30447D02*
Y30450D01*
Y30447D02*
X18451Y30146D01*
X18454D01*
X20358Y25527D02*
Y26092D01*
X20350Y26100D02*
X20358Y26092D01*
X19150Y30447D02*
Y30450D01*
Y30447D02*
X19451Y30146D01*
X19454D01*
X21100Y28500D01*
X25100D01*
X25654Y23800D02*
Y27946D01*
X25100Y28500D02*
X25654Y27946D01*
X21450Y29150D02*
X27900D01*
X20150Y30447D02*
Y30450D01*
Y30447D02*
X20451Y30146D01*
X20454D01*
X21450Y29150D01*
X21150Y30450D02*
Y32350D01*
X20150Y30450D02*
Y32350D01*
X19150Y30450D02*
Y32350D01*
X18150Y30450D02*
Y32350D01*
X17150Y30450D02*
Y32350D01*
X19700Y20727D02*
X20527D01*
X22100Y22300D02*
X25450D01*
X20527Y20727D02*
X22100Y22300D01*
X26350Y21550D02*
X26550Y21350D01*
X26350Y21550D02*
Y22300D01*
X6850Y17300D02*
X7700D01*
X8349D01*
X8350Y17301D01*
X9300Y18500D02*
Y19150D01*
X9000Y17351D02*
Y18200D01*
X9125Y18325D01*
X9150D01*
X9300Y18475D01*
Y18500D01*
X9000Y10100D02*
X9500Y10600D01*
X8100Y9200D02*
X9000Y10100D01*
Y14949D01*
X3558Y4658D02*
X8100Y9200D01*
Y14950D01*
X10500Y10100D02*
X11325Y9275D01*
X17700Y2900D02*
Y3183D01*
X16225Y4658D02*
X17700Y3183D01*
X15942Y4658D02*
X16225D01*
X9500Y10600D02*
Y14949D01*
X3275Y4658D02*
X3558D01*
X1800Y3183D02*
X3275Y4658D01*
X1800Y2900D02*
Y3183D01*
X8100Y14950D02*
X8150Y14900D01*
X32550Y12600D02*
X34300D01*
X32550Y11850D02*
Y12600D01*
Y11200D02*
Y11850D01*
X25350Y12925D02*
Y12950D01*
X25150Y12725D02*
X25350Y12925D01*
X25125Y12725D02*
X25150D01*
X34600Y6800D02*
X34700Y6900D01*
X34525Y12850D02*
X34675Y13000D01*
X34525Y12825D02*
Y12850D01*
X34300Y12600D02*
X34525Y12825D01*
X35050Y13000D02*
X35400D01*
X24650Y19650D02*
X25350D01*
X25383Y19683D01*
Y20083D01*
X26050Y20750D02*
X28250D01*
X28450Y20550D01*
X27750Y18767D02*
X28067D01*
X28450Y19150D01*
X24650Y18750D02*
X25350D01*
X26233D01*
X26250Y18767D01*
Y18767D01*
X24800Y23400D02*
X24962D01*
X25162Y23200D01*
X25649D01*
X25450Y22300D02*
X26350D01*
X27450Y21350D02*
Y22300D01*
X27650D02*
X28550D01*
X29138Y23400D02*
X29300D01*
X28938Y23200D02*
X29138Y23400D01*
X28451Y23200D02*
X28938D01*
X25649D02*
Y23794D01*
X25654Y23800D01*
X28446D02*
X28451Y23200D01*
X26200D02*
X26350Y22300D01*
X27650D02*
X27900Y23200D01*
X27450Y22300D02*
X27650D01*
X27250Y18767D02*
Y20050D01*
X27450D01*
X26750Y18767D02*
Y20050D01*
X26550D02*
X26750D01*
X27750Y14358D02*
Y14633D01*
Y14358D02*
X27768Y14339D01*
Y14332D02*
Y14339D01*
Y14332D02*
X28175Y13925D01*
Y13900D02*
Y13925D01*
Y13900D02*
X28325Y13750D01*
X28350D01*
X26750Y12300D02*
Y14633D01*
X25700Y11950D02*
X25844D01*
X26094Y12200D01*
X26650D01*
X25300Y13000D02*
Y13750D01*
Y13000D02*
X25350Y12950D01*
X26250Y13800D02*
Y14633D01*
X26200Y13750D02*
X26250Y13800D01*
X26650Y12200D02*
X26750Y12300D01*
X28350Y12850D02*
X29100D01*
X27750D02*
X28350D01*
X27250Y13350D02*
X27750Y12850D01*
X28350Y13750D02*
X29100D01*
Y12850D02*
X31650D01*
X33280Y6800D02*
X34600D01*
X32598Y7482D02*
X33280Y6800D01*
X32598Y2952D02*
X32650Y2900D01*
X32550Y7530D02*
X32598Y7482D01*
X31650Y12850D02*
X31700Y12800D01*
X33495Y10100D02*
X34700D01*
Y9200D02*
X35350D01*
X34700Y10100D02*
X35350D01*
X35050Y11150D02*
Y12100D01*
X35000Y11033D02*
Y11100D01*
Y11033D02*
X35350Y10683D01*
Y10100D02*
Y10683D01*
X34700Y12100D02*
X35050D01*
X35400D01*
X35000Y11100D02*
X35050Y11150D01*
X35400Y12100D02*
X35425D01*
X33550Y11668D02*
X34268D01*
X34525Y11925D01*
Y11950D01*
X34675Y12100D01*
X34700D01*
X35832Y11668D02*
X36450D01*
X35575Y11925D02*
X35832Y11668D01*
X35575Y11925D02*
Y11950D01*
X35425Y12100D02*
X35575Y11950D01*
X36050Y14282D02*
Y14400D01*
X35000Y28100D02*
Y28750D01*
X34883Y30150D02*
X35000Y30033D01*
X34750Y30150D02*
X34883D01*
X34350Y30550D02*
X34750Y30150D01*
X36350Y32350D02*
X36400Y32300D01*
X37500D01*
X37700Y32100D01*
Y25800D02*
Y32100D01*
X37194Y25294D02*
X37700Y25800D01*
X35741Y20641D02*
X35950Y20850D01*
X35424Y20641D02*
X35741D01*
X35424Y19490D02*
Y19559D01*
Y19490D02*
X35442Y19472D01*
X34676Y19490D02*
Y19559D01*
X34658Y19472D02*
X34676Y19490D01*
X35892Y21408D02*
X35950Y21350D01*
D64*
X31250Y2550D02*
X33500D01*
X33850Y2900D01*
X26400Y2550D02*
X28800D01*
X26200Y2950D02*
X26600Y2550D01*
D65*
X26650Y2950D02*
Y6700D01*
Y10200D02*
Y10900D01*
Y8000D02*
Y8800D01*
D66*
X34769Y31314D02*
X35555Y32100D01*
X36100D02*
X36350Y32350D01*
X35555Y32100D02*
X36100D01*
D67*
X35000Y23600D02*
Y24300D01*
Y26200D02*
X35892D01*
X35000Y24300D02*
Y26200D01*
X33608D02*
X35000D01*
X35050Y21350D02*
Y22000D01*
Y23550D01*
X33750Y24500D02*
Y26058D01*
X35000Y23600D02*
X35050Y23550D01*
X33608Y26200D02*
X33750Y26058D01*
X35050Y18825D02*
Y19559D01*
Y21350D01*
D68*
X19139Y20627D02*
Y21237D01*
X19700Y21278D02*
Y22104D01*
X12241Y17226D02*
X12832D01*
X12850Y17244D01*
X12150Y16700D02*
X12241Y16791D01*
Y17226D01*
X10000Y16800D02*
X10100Y16700D01*
X12150D01*
X10000Y16800D02*
Y17351D01*
D69*
X35892Y27106D02*
Y29425D01*
D70*
X26200Y2950D02*
D03*
X33850Y2900D02*
D03*
X1800D02*
D03*
X17700D02*
D03*
D71*
X31050Y2550D02*
D03*
X29050D02*
D03*
X10750Y2400D02*
D03*
X8750D02*
D03*
X23200Y2350D02*
D03*
X21200D02*
D03*
D72*
X36350Y29850D02*
D03*
Y32350D02*
D03*
D73*
X34350Y30850D02*
D03*
D74*
X25450Y22300D02*
D03*
X25700Y11950D02*
D03*
X8100Y14950D02*
D03*
X19550Y26300D02*
D03*
X37800Y14400D02*
D03*
X32150D02*
D03*
X11400Y14950D02*
D03*
X24800Y23400D02*
D03*
X29300D02*
D03*
X28550Y22300D02*
D03*
X34600Y6800D02*
D03*
X35000Y11100D02*
D03*
X31650Y12850D02*
D03*
X6850Y17300D02*
D03*
D75*
X20150Y30450D02*
D03*
X19150D02*
D03*
X18150D02*
D03*
X21150D02*
D03*
D76*
X17150D02*
D03*
D77*
X19150Y32350D02*
D03*
X18150D02*
D03*
X20150D02*
D03*
X21150D02*
D03*
D78*
X17150D02*
D03*
D79*
X38450Y13250D02*
D03*
X37950Y12250D02*
D03*
X38450Y11250D02*
D03*
X37950Y10250D02*
D03*
X38450Y9250D02*
D03*
X37950Y8250D02*
D03*
X38450Y7250D02*
D03*
X37950Y6250D02*
D03*
X38450Y5250D02*
D03*
X37950Y4250D02*
D03*
X38450Y3250D02*
D03*
X37950Y2250D02*
D03*
X38450Y1250D02*
D03*
X37950Y250D02*
D03*
X36950Y14250D02*
D03*
X37450Y13250D02*
D03*
X36950Y12250D02*
D03*
X37450Y11250D02*
D03*
X36950Y10250D02*
D03*
X37450Y9250D02*
D03*
X36950Y8250D02*
D03*
X37450Y7250D02*
D03*
X36950Y6250D02*
D03*
X37450Y5250D02*
D03*
X36950Y4250D02*
D03*
X37450Y3250D02*
D03*
X36950Y2250D02*
D03*
X37450Y1250D02*
D03*
X36950Y250D02*
D03*
X35950Y12250D02*
D03*
Y10250D02*
D03*
X36450Y9250D02*
D03*
X35950Y8250D02*
D03*
X36450Y7250D02*
D03*
X35950Y6250D02*
D03*
X36450Y5250D02*
D03*
X35950Y4250D02*
D03*
X36450Y3250D02*
D03*
X35950Y2250D02*
D03*
X36450Y1250D02*
D03*
X35950Y250D02*
D03*
X34950Y8250D02*
D03*
X35450Y7250D02*
D03*
X34950Y6250D02*
D03*
X35450Y5250D02*
D03*
X34950Y250D02*
D03*
X33950Y12250D02*
D03*
X34450Y11250D02*
D03*
X33950Y8250D02*
D03*
Y6250D02*
D03*
X34450Y5250D02*
D03*
X33950Y250D02*
D03*
X32950Y14250D02*
D03*
Y10250D02*
D03*
X33450Y9250D02*
D03*
Y5250D02*
D03*
X32950Y250D02*
D03*
X32450Y13250D02*
D03*
Y9250D02*
D03*
Y5250D02*
D03*
X31950Y4250D02*
D03*
Y2250D02*
D03*
Y250D02*
D03*
X30950Y14250D02*
D03*
Y12250D02*
D03*
Y10250D02*
D03*
X31450Y9250D02*
D03*
X30950Y8250D02*
D03*
Y6250D02*
D03*
X31450Y5250D02*
D03*
X30950Y4250D02*
D03*
X31450Y3250D02*
D03*
Y1250D02*
D03*
X30950Y250D02*
D03*
X29950Y14250D02*
D03*
X30450Y13250D02*
D03*
X29950Y12250D02*
D03*
X30450Y11250D02*
D03*
X29950Y10250D02*
D03*
X30450Y9250D02*
D03*
X29950Y8250D02*
D03*
X30450Y7250D02*
D03*
X28950Y14250D02*
D03*
X29450Y13250D02*
D03*
X28950Y12250D02*
D03*
X29450Y11250D02*
D03*
X28950Y10250D02*
D03*
X29450Y9250D02*
D03*
X28950Y8250D02*
D03*
X29450Y7250D02*
D03*
X27950Y12250D02*
D03*
X28450Y11250D02*
D03*
X27950Y10250D02*
D03*
X28450Y9250D02*
D03*
X27950Y8250D02*
D03*
X28450Y7250D02*
D03*
X25950Y14250D02*
D03*
X24950D02*
D03*
Y12250D02*
D03*
X25450Y11250D02*
D03*
X24950Y10250D02*
D03*
X25450Y9250D02*
D03*
X24950Y8250D02*
D03*
X25450Y7250D02*
D03*
X23950Y14250D02*
D03*
X24450Y13250D02*
D03*
X23950Y12250D02*
D03*
X24450Y11250D02*
D03*
X23950Y10250D02*
D03*
X24450Y9250D02*
D03*
X23950Y8250D02*
D03*
X24450Y7250D02*
D03*
X22950Y14250D02*
D03*
X23450Y13250D02*
D03*
X22950Y12250D02*
D03*
X23450Y11250D02*
D03*
X22950Y10250D02*
D03*
X23450Y9250D02*
D03*
X22950Y8250D02*
D03*
X23450Y7250D02*
D03*
X22950Y6250D02*
D03*
X23450Y5250D02*
D03*
X22950Y4250D02*
D03*
X23450Y3250D02*
D03*
Y1250D02*
D03*
X22950Y250D02*
D03*
X21950Y14250D02*
D03*
X22450Y13250D02*
D03*
X21950Y12250D02*
D03*
X22450Y11250D02*
D03*
X21950Y10250D02*
D03*
X22450Y9250D02*
D03*
X21950Y8250D02*
D03*
X22450Y7250D02*
D03*
X21950Y6250D02*
D03*
X22450Y5250D02*
D03*
X21950Y4250D02*
D03*
X22450Y3250D02*
D03*
X21950Y2250D02*
D03*
X22450Y1250D02*
D03*
X21950Y250D02*
D03*
X21450Y1250D02*
D03*
X20950Y250D02*
D03*
X13251Y20250D02*
D03*
Y22079D02*
D03*
X11764Y21436D02*
D03*
X10450Y20250D02*
D03*
X12450Y22250D02*
D03*
X11450Y20250D02*
D03*
X12950Y21250D02*
D03*
X12414Y20286D02*
D03*
X14414Y22286D02*
D03*
X14086Y21114D02*
D03*
X14486Y20214D02*
D03*
X14814Y21386D02*
D03*
X14950Y19250D02*
D03*
X37950Y33250D02*
D03*
X38450Y32250D02*
D03*
X37950Y31250D02*
D03*
X38450Y30250D02*
D03*
X37950Y29250D02*
D03*
X38450Y28250D02*
D03*
X37950Y27250D02*
D03*
X38450Y26250D02*
D03*
X37950Y25250D02*
D03*
X38450Y24250D02*
D03*
X37950Y23250D02*
D03*
X38450Y22250D02*
D03*
X37950Y21250D02*
D03*
X38450Y20250D02*
D03*
X37950Y19250D02*
D03*
X36950Y33250D02*
D03*
X37450Y32250D02*
D03*
X36950Y31250D02*
D03*
X37450Y30250D02*
D03*
Y28250D02*
D03*
X36950Y27250D02*
D03*
X37450Y26250D02*
D03*
X36950Y25250D02*
D03*
X37450Y24250D02*
D03*
X36950Y23250D02*
D03*
X37450Y22250D02*
D03*
X36950Y21250D02*
D03*
X37450Y20250D02*
D03*
X36950Y19250D02*
D03*
X35950Y33250D02*
D03*
Y31250D02*
D03*
X36450Y28250D02*
D03*
Y24250D02*
D03*
Y22250D02*
D03*
Y20250D02*
D03*
X34950Y33250D02*
D03*
Y29250D02*
D03*
X35450Y28250D02*
D03*
X34950Y27250D02*
D03*
X35450Y24250D02*
D03*
Y20250D02*
D03*
X33950Y33250D02*
D03*
X34450Y32250D02*
D03*
X33950Y29250D02*
D03*
X34450Y28250D02*
D03*
X33950Y27250D02*
D03*
X34450Y24250D02*
D03*
Y22250D02*
D03*
X33950Y21250D02*
D03*
X34450Y20250D02*
D03*
X32950Y33250D02*
D03*
X33450Y32250D02*
D03*
X32950Y31250D02*
D03*
X33450Y30250D02*
D03*
X32950Y29250D02*
D03*
X33450Y28250D02*
D03*
X32950Y27250D02*
D03*
Y25250D02*
D03*
Y23250D02*
D03*
X33450Y20250D02*
D03*
X32950Y19250D02*
D03*
X31950Y33250D02*
D03*
X32450Y32250D02*
D03*
X31950Y31250D02*
D03*
X32450Y30250D02*
D03*
X31950Y29250D02*
D03*
X32450Y28250D02*
D03*
X31950Y27250D02*
D03*
X32450Y26250D02*
D03*
X31950Y25250D02*
D03*
X32450Y24250D02*
D03*
X31950Y23250D02*
D03*
X32450Y22250D02*
D03*
X31950Y21250D02*
D03*
Y19250D02*
D03*
X30950Y33250D02*
D03*
X31450Y32250D02*
D03*
X30950Y31250D02*
D03*
X31450Y30250D02*
D03*
X30950Y29250D02*
D03*
X31450Y28250D02*
D03*
X30950Y27250D02*
D03*
X31450Y26250D02*
D03*
X30950Y25250D02*
D03*
X31450Y24250D02*
D03*
X30950Y23250D02*
D03*
X31450Y22250D02*
D03*
X30950Y21250D02*
D03*
X31450Y20250D02*
D03*
X29950Y33250D02*
D03*
X30450Y32250D02*
D03*
X29950Y31250D02*
D03*
X30450Y30250D02*
D03*
X29950Y29250D02*
D03*
X30450Y28250D02*
D03*
X29950Y27250D02*
D03*
X30450Y26250D02*
D03*
X29950Y25250D02*
D03*
X30450Y24250D02*
D03*
X29950Y23250D02*
D03*
X30450Y22250D02*
D03*
X29950Y21250D02*
D03*
X30450Y20250D02*
D03*
X29950Y19250D02*
D03*
X28950Y33250D02*
D03*
X29450Y32250D02*
D03*
X28950Y31250D02*
D03*
X29450Y30250D02*
D03*
X28950Y29250D02*
D03*
X29450Y28250D02*
D03*
X28950Y27250D02*
D03*
X29450Y26250D02*
D03*
X28950Y25250D02*
D03*
X29450Y24250D02*
D03*
Y22250D02*
D03*
X28950Y21250D02*
D03*
X29450Y20250D02*
D03*
X28950Y19250D02*
D03*
X27950Y33250D02*
D03*
X28450Y32250D02*
D03*
X27950Y31250D02*
D03*
X28450Y30250D02*
D03*
X27950Y27250D02*
D03*
Y25250D02*
D03*
Y21250D02*
D03*
X28450Y20250D02*
D03*
X26950Y33250D02*
D03*
X27450Y32250D02*
D03*
X26950Y31250D02*
D03*
X27450Y30250D02*
D03*
Y28250D02*
D03*
X26950Y27250D02*
D03*
X27450Y26250D02*
D03*
X26950Y25250D02*
D03*
X27450Y24250D02*
D03*
X26950Y23250D02*
D03*
X25950Y33250D02*
D03*
X26450Y32250D02*
D03*
X25950Y31250D02*
D03*
X26450Y30250D02*
D03*
Y28250D02*
D03*
X25950Y27250D02*
D03*
X26450Y26250D02*
D03*
X25950Y25250D02*
D03*
X26450Y24250D02*
D03*
X25950Y21250D02*
D03*
Y19250D02*
D03*
X24950Y33250D02*
D03*
X25450Y32250D02*
D03*
X24950Y31250D02*
D03*
X25450Y30250D02*
D03*
X24950Y27250D02*
D03*
Y25250D02*
D03*
Y21250D02*
D03*
X25450Y20250D02*
D03*
X23950Y33250D02*
D03*
X24450Y32250D02*
D03*
X23950Y31250D02*
D03*
X24450Y30250D02*
D03*
X23950Y27250D02*
D03*
X24450Y26250D02*
D03*
X23950Y25250D02*
D03*
X24450Y24250D02*
D03*
X23950Y23250D02*
D03*
Y21250D02*
D03*
X24450Y20250D02*
D03*
X23950Y19250D02*
D03*
X22950Y33250D02*
D03*
X23450Y32250D02*
D03*
X22950Y31250D02*
D03*
X23450Y30250D02*
D03*
X22950Y27250D02*
D03*
X23450Y26250D02*
D03*
X22950Y25250D02*
D03*
X23450Y24250D02*
D03*
X22950Y23250D02*
D03*
Y21250D02*
D03*
X23450Y20250D02*
D03*
X22950Y19250D02*
D03*
X21950Y33250D02*
D03*
X22450Y32250D02*
D03*
X21950Y31250D02*
D03*
X22450Y30250D02*
D03*
X21950Y27250D02*
D03*
X22450Y26250D02*
D03*
X21950Y25250D02*
D03*
X22450Y24250D02*
D03*
X21950Y23250D02*
D03*
Y21250D02*
D03*
X22450Y20250D02*
D03*
X21950Y19250D02*
D03*
X20950Y33250D02*
D03*
Y31250D02*
D03*
Y29250D02*
D03*
Y27250D02*
D03*
X21450Y26250D02*
D03*
X20950Y25250D02*
D03*
X21450Y24250D02*
D03*
Y22250D02*
D03*
Y20250D02*
D03*
X20950Y19250D02*
D03*
X19950Y33250D02*
D03*
Y29250D02*
D03*
Y27250D02*
D03*
Y25250D02*
D03*
X20450Y20250D02*
D03*
X19950Y19250D02*
D03*
X18950Y33250D02*
D03*
Y29250D02*
D03*
X19450Y28250D02*
D03*
X18950Y27250D02*
D03*
Y23250D02*
D03*
X19450Y20250D02*
D03*
X18950Y19250D02*
D03*
X19450Y18250D02*
D03*
X18950Y17250D02*
D03*
X17950Y33250D02*
D03*
Y29250D02*
D03*
X18450Y28250D02*
D03*
X17950Y27250D02*
D03*
X18450Y26250D02*
D03*
X17950Y25250D02*
D03*
Y23250D02*
D03*
Y19250D02*
D03*
X18450Y18250D02*
D03*
X17950Y17250D02*
D03*
X16950Y33250D02*
D03*
Y29250D02*
D03*
X17450Y28250D02*
D03*
X16950Y27250D02*
D03*
X17450Y26250D02*
D03*
X16950Y25250D02*
D03*
Y23250D02*
D03*
Y21250D02*
D03*
X17450Y20250D02*
D03*
X16950Y19250D02*
D03*
X17450Y18250D02*
D03*
X16950Y17250D02*
D03*
X15950Y33250D02*
D03*
X16450Y32250D02*
D03*
X15950Y31250D02*
D03*
Y29250D02*
D03*
X16450Y28250D02*
D03*
X15950Y27250D02*
D03*
X16450Y26250D02*
D03*
X15950Y25250D02*
D03*
X16450Y24250D02*
D03*
X15950Y21250D02*
D03*
X16450Y20250D02*
D03*
X15950Y19250D02*
D03*
X16450Y18250D02*
D03*
X15950Y17250D02*
D03*
X14950Y33250D02*
D03*
X15450Y32250D02*
D03*
X14950Y31250D02*
D03*
Y29250D02*
D03*
X15450Y28250D02*
D03*
X14950Y27250D02*
D03*
X15450Y26250D02*
D03*
Y24250D02*
D03*
Y18250D02*
D03*
X14950Y17250D02*
D03*
X13950Y33250D02*
D03*
X14450Y32250D02*
D03*
X13950Y31250D02*
D03*
Y29250D02*
D03*
X14450Y28250D02*
D03*
X13950Y27250D02*
D03*
X14450Y26250D02*
D03*
X13950Y25250D02*
D03*
X14450Y24250D02*
D03*
X13950Y23250D02*
D03*
Y19250D02*
D03*
X14450Y18250D02*
D03*
X13950Y17250D02*
D03*
X12950Y33250D02*
D03*
X13450Y32250D02*
D03*
X12950Y31250D02*
D03*
Y29250D02*
D03*
X13450Y28250D02*
D03*
X12950Y27250D02*
D03*
X13450Y26250D02*
D03*
X12950Y25250D02*
D03*
X13450Y24250D02*
D03*
X12950Y23250D02*
D03*
Y19250D02*
D03*
X11950Y33250D02*
D03*
X12450Y32250D02*
D03*
X11950Y31250D02*
D03*
Y29250D02*
D03*
X12450Y28250D02*
D03*
X11950Y27250D02*
D03*
X12450Y26250D02*
D03*
X11950Y25250D02*
D03*
X12450Y24250D02*
D03*
X11950Y23250D02*
D03*
Y19250D02*
D03*
X10950Y33250D02*
D03*
X11450Y32250D02*
D03*
X10950Y31250D02*
D03*
Y29250D02*
D03*
X11450Y28250D02*
D03*
X10950Y27250D02*
D03*
X11450Y26250D02*
D03*
X10950Y25250D02*
D03*
X11450Y24250D02*
D03*
X10950Y23250D02*
D03*
X11450Y22250D02*
D03*
X10950Y21250D02*
D03*
Y19250D02*
D03*
X11450Y18250D02*
D03*
X9950Y33250D02*
D03*
X10450Y32250D02*
D03*
X9950Y31250D02*
D03*
X10450Y30250D02*
D03*
X9950Y29250D02*
D03*
X10450Y28250D02*
D03*
X9950Y27250D02*
D03*
X10450Y26250D02*
D03*
X9950Y25250D02*
D03*
X10450Y24250D02*
D03*
X9950Y23250D02*
D03*
X10450Y22250D02*
D03*
X9950Y21250D02*
D03*
X8950Y33250D02*
D03*
X9450Y32250D02*
D03*
X8950Y31250D02*
D03*
X9450Y30250D02*
D03*
X8950Y29250D02*
D03*
Y27250D02*
D03*
X9450Y26250D02*
D03*
X8950Y25250D02*
D03*
X9450Y24250D02*
D03*
X8950Y23250D02*
D03*
X9450Y22250D02*
D03*
X8950Y21250D02*
D03*
X9450Y20250D02*
D03*
X7950Y33250D02*
D03*
X8450Y32250D02*
D03*
X7950Y31250D02*
D03*
X8450Y30250D02*
D03*
X7950Y29250D02*
D03*
X8450Y28250D02*
D03*
X7950Y27250D02*
D03*
Y25250D02*
D03*
Y23250D02*
D03*
Y21250D02*
D03*
Y19250D02*
D03*
X6950Y33250D02*
D03*
X7450Y32250D02*
D03*
X6950Y31250D02*
D03*
X7450Y30250D02*
D03*
X6950Y29250D02*
D03*
X7450Y28250D02*
D03*
X6950Y27250D02*
D03*
X7450Y26250D02*
D03*
X6950Y25250D02*
D03*
X7450Y24250D02*
D03*
X6950Y23250D02*
D03*
X7450Y22250D02*
D03*
X6950Y21250D02*
D03*
X7450Y20250D02*
D03*
X6950Y19250D02*
D03*
X7450Y18250D02*
D03*
X5950Y33250D02*
D03*
X6450Y32250D02*
D03*
X5950Y31250D02*
D03*
X6450Y30250D02*
D03*
X5950Y29250D02*
D03*
X6450Y28250D02*
D03*
X5950Y27250D02*
D03*
X6450Y26250D02*
D03*
X5950Y25250D02*
D03*
X6450Y24250D02*
D03*
X5950Y23250D02*
D03*
X6450Y22250D02*
D03*
X5950Y21250D02*
D03*
X6450Y20250D02*
D03*
X5950Y19250D02*
D03*
X6450Y18250D02*
D03*
X5950Y17250D02*
D03*
X4950Y33250D02*
D03*
X5450Y32250D02*
D03*
X4950Y31250D02*
D03*
X5450Y30250D02*
D03*
X4950Y29250D02*
D03*
X5450Y28250D02*
D03*
X4950Y27250D02*
D03*
X5450Y26250D02*
D03*
X4950Y25250D02*
D03*
X5450Y24250D02*
D03*
X4950Y23250D02*
D03*
X5450Y22250D02*
D03*
X4950Y21250D02*
D03*
X5450Y20250D02*
D03*
X4950Y19250D02*
D03*
X5450Y18250D02*
D03*
X4950Y17250D02*
D03*
X3950Y33250D02*
D03*
X4450Y32250D02*
D03*
X3950Y31250D02*
D03*
X4450Y30250D02*
D03*
X3950Y29250D02*
D03*
X4450Y28250D02*
D03*
X3950Y27250D02*
D03*
X4450Y26250D02*
D03*
X3950Y25250D02*
D03*
X4450Y24250D02*
D03*
X3950Y23250D02*
D03*
X4450Y22250D02*
D03*
X3950Y21250D02*
D03*
X4450Y20250D02*
D03*
X3950Y19250D02*
D03*
X4450Y18250D02*
D03*
X3950Y17250D02*
D03*
X2950Y33250D02*
D03*
X3450Y32250D02*
D03*
X2950Y31250D02*
D03*
X3450Y30250D02*
D03*
X2950Y29250D02*
D03*
X3450Y28250D02*
D03*
X2950Y27250D02*
D03*
X3450Y26250D02*
D03*
X2950Y25250D02*
D03*
X3450Y24250D02*
D03*
X2950Y23250D02*
D03*
X3450Y22250D02*
D03*
X2950Y21250D02*
D03*
X3450Y20250D02*
D03*
X2950Y19250D02*
D03*
X3450Y18250D02*
D03*
X2950Y17250D02*
D03*
X1950Y33250D02*
D03*
X2450Y32250D02*
D03*
X1950Y31250D02*
D03*
X2450Y30250D02*
D03*
X1950Y29250D02*
D03*
X2450Y28250D02*
D03*
X1950Y27250D02*
D03*
X2450Y26250D02*
D03*
X1950Y25250D02*
D03*
X2450Y24250D02*
D03*
X1950Y23250D02*
D03*
X2450Y22250D02*
D03*
X1950Y21250D02*
D03*
X2450Y20250D02*
D03*
X1950Y19250D02*
D03*
X2450Y18250D02*
D03*
X1950Y17250D02*
D03*
X950Y33250D02*
D03*
X1450Y32250D02*
D03*
X950Y31250D02*
D03*
X1450Y30250D02*
D03*
X950Y29250D02*
D03*
X1450Y28250D02*
D03*
X950Y27250D02*
D03*
X1450Y26250D02*
D03*
X950Y25250D02*
D03*
X1450Y24250D02*
D03*
X950Y23250D02*
D03*
X1450Y22250D02*
D03*
X950Y21250D02*
D03*
X1450Y20250D02*
D03*
X950Y19250D02*
D03*
X1450Y18250D02*
D03*
X950Y17250D02*
D03*
X17950Y9250D02*
D03*
X18450Y8250D02*
D03*
X17950Y7250D02*
D03*
X18450Y6250D02*
D03*
X17950Y5250D02*
D03*
X16950Y9250D02*
D03*
X17450Y8250D02*
D03*
X16950Y7250D02*
D03*
X17450Y6250D02*
D03*
X16950Y5250D02*
D03*
X15950Y11250D02*
D03*
X16450Y10250D02*
D03*
X15950Y9250D02*
D03*
X16450Y8250D02*
D03*
X15950Y7250D02*
D03*
X16450Y6250D02*
D03*
X15950Y5250D02*
D03*
Y3250D02*
D03*
Y1250D02*
D03*
X14950Y11250D02*
D03*
X15450Y10250D02*
D03*
X14950Y9250D02*
D03*
X15450Y8250D02*
D03*
X14950Y7250D02*
D03*
X15450Y6250D02*
D03*
X14950Y5250D02*
D03*
X15450Y4250D02*
D03*
X14950Y3250D02*
D03*
X15450Y2250D02*
D03*
X14950Y1250D02*
D03*
X13950Y13250D02*
D03*
X14450Y12250D02*
D03*
X13950Y11250D02*
D03*
X14450Y10250D02*
D03*
X13950Y9250D02*
D03*
X14450Y8250D02*
D03*
X13950Y7250D02*
D03*
X14450Y6250D02*
D03*
X13950Y5250D02*
D03*
X14450Y4250D02*
D03*
X13950Y3250D02*
D03*
X14450Y2250D02*
D03*
X13950Y1250D02*
D03*
X12950Y13250D02*
D03*
X13450Y12250D02*
D03*
X12950Y11250D02*
D03*
X13450Y10250D02*
D03*
X12950Y9250D02*
D03*
X13450Y8250D02*
D03*
X12950Y7250D02*
D03*
X13450Y6250D02*
D03*
X12950Y5250D02*
D03*
X13450Y4250D02*
D03*
X12950Y3250D02*
D03*
X13450Y2250D02*
D03*
X12950Y1250D02*
D03*
X12450Y14250D02*
D03*
X11950Y13250D02*
D03*
X12450Y12250D02*
D03*
X11950Y11250D02*
D03*
X12450Y10250D02*
D03*
X11950Y9250D02*
D03*
X12450Y8250D02*
D03*
X11950Y7250D02*
D03*
X12450Y6250D02*
D03*
X11950Y5250D02*
D03*
X12450Y4250D02*
D03*
X11950Y3250D02*
D03*
X12450Y2250D02*
D03*
X11950Y1250D02*
D03*
X11450Y14250D02*
D03*
X10950Y13250D02*
D03*
X11450Y12250D02*
D03*
X10950Y11250D02*
D03*
X11450Y10250D02*
D03*
X10950Y9250D02*
D03*
X11450Y8250D02*
D03*
X10950Y7250D02*
D03*
X11450Y6250D02*
D03*
X10950Y5250D02*
D03*
X11450Y4250D02*
D03*
X10950Y3250D02*
D03*
X11450Y2250D02*
D03*
X10950Y1250D02*
D03*
X10450Y14250D02*
D03*
X9950Y13250D02*
D03*
X10450Y12250D02*
D03*
X9950Y11250D02*
D03*
X10450Y10250D02*
D03*
X9950Y9250D02*
D03*
X10450Y8250D02*
D03*
X9950Y7250D02*
D03*
X10450Y6250D02*
D03*
X9950Y5250D02*
D03*
X10450Y4250D02*
D03*
X9950Y3250D02*
D03*
X10450Y2250D02*
D03*
X9450Y14250D02*
D03*
X8950Y13250D02*
D03*
X9450Y12250D02*
D03*
X8950Y11250D02*
D03*
X9450Y10250D02*
D03*
X8950Y9250D02*
D03*
X9450Y8250D02*
D03*
X8950Y7250D02*
D03*
X9450Y6250D02*
D03*
X8950Y5250D02*
D03*
X9450Y4250D02*
D03*
X8950Y3250D02*
D03*
X9450Y2250D02*
D03*
X8950Y1250D02*
D03*
X8450Y14250D02*
D03*
X7950Y13250D02*
D03*
X8450Y12250D02*
D03*
X7950Y11250D02*
D03*
X8450Y10250D02*
D03*
X7950Y9250D02*
D03*
X8450Y8250D02*
D03*
X7950Y7250D02*
D03*
X8450Y6250D02*
D03*
X7950Y5250D02*
D03*
X8450Y4250D02*
D03*
X7950Y3250D02*
D03*
X8450Y2250D02*
D03*
X7950Y1250D02*
D03*
X7450Y14250D02*
D03*
X6950Y13250D02*
D03*
X7450Y12250D02*
D03*
X6950Y11250D02*
D03*
X7450Y10250D02*
D03*
X6950Y9250D02*
D03*
X7450Y8250D02*
D03*
X6950Y7250D02*
D03*
X7450Y6250D02*
D03*
X6950Y5250D02*
D03*
X7450Y4250D02*
D03*
X6950Y3250D02*
D03*
X7450Y2250D02*
D03*
X6950Y1250D02*
D03*
X5950Y13250D02*
D03*
X6450Y12250D02*
D03*
X5950Y11250D02*
D03*
X6450Y10250D02*
D03*
X5950Y9250D02*
D03*
X6450Y8250D02*
D03*
X5950Y7250D02*
D03*
X6450Y6250D02*
D03*
X5950Y5250D02*
D03*
X6450Y4250D02*
D03*
X5950Y3250D02*
D03*
X6450Y2250D02*
D03*
X5950Y1250D02*
D03*
X5450Y12250D02*
D03*
X4950Y11250D02*
D03*
X5450Y10250D02*
D03*
X4950Y9250D02*
D03*
X5450Y8250D02*
D03*
X4950Y7250D02*
D03*
X5450Y6250D02*
D03*
X4950Y5250D02*
D03*
X5450Y4250D02*
D03*
X4950Y3250D02*
D03*
X5450Y2250D02*
D03*
X4950Y1250D02*
D03*
X3950Y11250D02*
D03*
X4450Y10250D02*
D03*
X3950Y9250D02*
D03*
X4450Y8250D02*
D03*
X3950Y7250D02*
D03*
X4450Y6250D02*
D03*
X3950Y5250D02*
D03*
X4450Y4250D02*
D03*
X3950Y3250D02*
D03*
X4450Y2250D02*
D03*
X3950Y1250D02*
D03*
X3450Y10250D02*
D03*
X2950Y9250D02*
D03*
X3450Y8250D02*
D03*
X2950Y7250D02*
D03*
X3450Y6250D02*
D03*
X2950Y5250D02*
D03*
X1950Y9250D02*
D03*
X2450Y8250D02*
D03*
X1950Y7250D02*
D03*
X2450Y6250D02*
D03*
X1950Y5250D02*
D03*
X1450Y8250D02*
D03*
X950Y7250D02*
D03*
X1450Y6250D02*
D03*
X950Y5250D02*
D03*
X21700Y26100D02*
D03*
D80*
X24000Y18800D02*
D03*
X13566Y17796D02*
D03*
X18600Y19300D02*
D03*
X29200Y14500D02*
D03*
X24400Y13750D02*
D03*
X15450Y22900D02*
D03*
X9300Y19700D02*
D03*
X33750Y24500D02*
D03*
X15950Y23950D02*
D03*
X18600Y20300D02*
D03*
X26200Y25800D02*
D03*
M02*
