G04*
G04 #@! TF.GenerationSoftware,Altium Limited,Altium Designer,20.2.7 (254)*
G04*
G04 Layer_Color=8388736*
%FSLAX24Y24*%
%MOIN*%
G70*
G04*
G04 #@! TF.SameCoordinates,C515DB23-E466-4867-BC0D-23839EB9CC1E*
G04*
G04*
G04 #@! TF.FilePolarity,Negative*
G04*
G01*
G75*
%ADD36R,0.0580X0.0630*%
%ADD37R,0.1025X0.1379*%
%ADD38R,0.1025X0.0474*%
%ADD39O,0.0316X0.0848*%
%ADD40R,0.0690X0.0907*%
%ADD41R,0.0730X0.0680*%
%ADD42R,0.0680X0.0730*%
%ADD43R,0.2265X0.2482*%
%ADD44R,0.0454X0.1143*%
%ADD45R,0.0454X0.0395*%
%ADD46O,0.0316X0.0907*%
%ADD47R,0.0395X0.0454*%
%ADD48R,0.0710X0.1140*%
%ADD49R,0.0630X0.0580*%
%ADD50R,0.0434X0.0671*%
%ADD51R,0.0316X0.0454*%
%ADD52O,0.0316X0.0651*%
%ADD53R,0.0454X0.0316*%
%ADD54R,0.3230X0.4017*%
%ADD55R,0.0867X0.1064*%
%ADD56R,0.1680X0.1080*%
%ADD57R,0.1080X0.1680*%
%ADD58C,0.0880*%
%ADD59O,0.0730X0.0980*%
%ADD60R,0.0730X0.0980*%
%ADD61C,0.0671*%
%ADD62R,0.0671X0.0671*%
D36*
X35050Y21350D02*
D03*
X35950D02*
D03*
X26200Y13750D02*
D03*
X25300D02*
D03*
X10200Y19150D02*
D03*
X9300D02*
D03*
X10200Y18500D02*
D03*
X9300D02*
D03*
X31650Y11850D02*
D03*
X32550D02*
D03*
X31650Y11200D02*
D03*
X32550D02*
D03*
X35050Y22000D02*
D03*
X35950D02*
D03*
X35000Y24300D02*
D03*
X35900D02*
D03*
X35000Y23600D02*
D03*
X35900D02*
D03*
Y28100D02*
D03*
X35000D02*
D03*
X35900Y28750D02*
D03*
X35000D02*
D03*
D37*
X33608Y26200D02*
D03*
D38*
X35892Y27106D02*
D03*
Y26200D02*
D03*
Y25294D02*
D03*
D39*
X26250Y14633D02*
D03*
X26750D02*
D03*
X27250D02*
D03*
X27750D02*
D03*
X26250Y18767D02*
D03*
X26750D02*
D03*
X27250D02*
D03*
X27750D02*
D03*
D40*
X33550Y11668D02*
D03*
Y13400D02*
D03*
X36450Y11668D02*
D03*
Y13400D02*
D03*
D41*
X26650Y8000D02*
D03*
Y6700D02*
D03*
Y10100D02*
D03*
Y8800D02*
D03*
Y12200D02*
D03*
Y10900D02*
D03*
X27450Y21350D02*
D03*
Y20050D02*
D03*
X26550Y21350D02*
D03*
Y20050D02*
D03*
D42*
X25350Y12950D02*
D03*
X26650D02*
D03*
D43*
X32598Y7482D02*
D03*
D44*
X31700Y10100D02*
D03*
X33495D02*
D03*
D45*
X7700Y17300D02*
D03*
Y16749D02*
D03*
X8350Y16750D02*
D03*
Y17301D02*
D03*
X12850Y17244D02*
D03*
Y17796D02*
D03*
X15950Y23453D02*
D03*
Y22902D02*
D03*
X16550Y22902D02*
D03*
Y23453D02*
D03*
X17700Y20722D02*
D03*
Y21273D02*
D03*
X19700Y21278D02*
D03*
Y20727D02*
D03*
X19150Y25528D02*
D03*
Y24977D02*
D03*
X20358Y24975D02*
D03*
Y25527D02*
D03*
X20900Y22894D02*
D03*
Y23446D02*
D03*
D46*
X10500Y17351D02*
D03*
X10000D02*
D03*
X9500D02*
D03*
X9000D02*
D03*
X10500Y14949D02*
D03*
X10000D02*
D03*
X9500D02*
D03*
X9000D02*
D03*
D47*
X18589Y21237D02*
D03*
X19140D02*
D03*
X19139Y20627D02*
D03*
X18588D02*
D03*
X20350Y26100D02*
D03*
X20901D02*
D03*
X27900Y23200D02*
D03*
X28451D02*
D03*
X28446Y23800D02*
D03*
X27894D02*
D03*
X26200Y23200D02*
D03*
X25649D02*
D03*
X25654Y23800D02*
D03*
X26206D02*
D03*
D48*
X27650Y22300D02*
D03*
X26350D02*
D03*
D49*
X24650Y19650D02*
D03*
Y18750D02*
D03*
X25350Y19650D02*
D03*
Y18750D02*
D03*
X28350Y13750D02*
D03*
Y12850D02*
D03*
X29100Y13750D02*
D03*
Y12850D02*
D03*
X34700Y10100D02*
D03*
Y9200D02*
D03*
X35350Y10100D02*
D03*
Y9200D02*
D03*
X34700Y12100D02*
D03*
Y13000D02*
D03*
X35400Y12100D02*
D03*
Y13000D02*
D03*
D50*
X36050Y14400D02*
D03*
X34050D02*
D03*
X35050D02*
D03*
X34050Y18825D02*
D03*
X35050D02*
D03*
X36050D02*
D03*
D51*
X34676Y20641D02*
D03*
X35424D02*
D03*
Y19559D02*
D03*
X35050D02*
D03*
X34676D02*
D03*
D52*
X20200Y24250D02*
D03*
X19700D02*
D03*
X19200D02*
D03*
X18700D02*
D03*
X18200D02*
D03*
X17700D02*
D03*
X17200D02*
D03*
X20200Y22104D02*
D03*
X19700D02*
D03*
X19200D02*
D03*
X18700D02*
D03*
X18200D02*
D03*
X17700D02*
D03*
X17200D02*
D03*
D53*
X12241Y17974D02*
D03*
Y17226D02*
D03*
X11159D02*
D03*
Y17600D02*
D03*
Y17974D02*
D03*
D54*
X26200Y2950D02*
D03*
X33850Y2900D02*
D03*
X1800D02*
D03*
X17700D02*
D03*
D55*
X31050Y2550D02*
D03*
X29050D02*
D03*
X10750Y2400D02*
D03*
X8750D02*
D03*
X23200Y2350D02*
D03*
X21200D02*
D03*
D56*
X36350Y29850D02*
D03*
Y32350D02*
D03*
D57*
X34350Y30850D02*
D03*
D58*
X25450Y22300D02*
D03*
X25700Y11950D02*
D03*
X8100Y14950D02*
D03*
X19550Y26300D02*
D03*
X37800Y14400D02*
D03*
X32150D02*
D03*
X11400Y14950D02*
D03*
X24800Y23400D02*
D03*
X29300D02*
D03*
X28550Y22300D02*
D03*
X34600Y6800D02*
D03*
X35000Y11100D02*
D03*
X31650Y12850D02*
D03*
X6850Y17300D02*
D03*
D59*
X20150Y30450D02*
D03*
X19150D02*
D03*
X18150D02*
D03*
X21150D02*
D03*
D60*
X17150D02*
D03*
D61*
X19150Y32350D02*
D03*
X18150D02*
D03*
X20150D02*
D03*
X21150D02*
D03*
D62*
X17150D02*
D03*
M02*
