G04*
G04 #@! TF.GenerationSoftware,Altium Limited,Altium Designer,20.2.7 (254)*
G04*
G04 Layer_Color=32896*
%FSLAX24Y24*%
%MOIN*%
G70*
G04*
G04 #@! TF.SameCoordinates,C515DB23-E466-4867-BC0D-23839EB9CC1E*
G04*
G04*
G04 #@! TF.FilePolarity,Positive*
G04*
G01*
G75*
G36*
X13852Y9686D02*
X13878Y9683D01*
X13900Y9675D01*
X13915Y9668D01*
X13930Y9661D01*
X13937Y9657D01*
X13941Y9653D01*
X13956Y9646D01*
X13963Y9642D01*
X13997Y9612D01*
X14026Y9579D01*
X14041Y9557D01*
X14048Y9549D01*
Y9546D01*
X15163Y7613D01*
X15167D01*
Y7609D01*
Y7605D01*
X15174Y7591D01*
X15181Y7579D01*
X15185Y7572D01*
Y7568D01*
X15189Y7557D01*
X15193Y7542D01*
X15196Y7531D01*
Y7528D01*
X15200Y7487D01*
Y7450D01*
X15196Y7416D01*
X15189Y7387D01*
X15178Y7361D01*
X15170Y7342D01*
X15167Y7331D01*
X15163Y7328D01*
X15148Y7302D01*
X15144Y7294D01*
X15141Y7291D01*
X15122Y7272D01*
X15115Y7265D01*
X15111Y7261D01*
X15078Y7235D01*
X15044Y7217D01*
X15011Y7202D01*
X14978Y7194D01*
X14952Y7187D01*
X14930Y7183D01*
X12675D01*
X12656Y7187D01*
X12641D01*
X12638Y7191D01*
X12623D01*
X12608Y7194D01*
X12597Y7198D01*
X12593D01*
X12556Y7213D01*
X12523Y7231D01*
X12497Y7254D01*
X12475Y7276D01*
X12456Y7294D01*
X12445Y7313D01*
X12438Y7324D01*
X12434Y7328D01*
X12430D01*
X12423Y7346D01*
X12415Y7357D01*
X12412Y7365D01*
Y7368D01*
X12408Y7383D01*
X12404Y7398D01*
X12401Y7405D01*
Y7409D01*
X12397Y7450D01*
Y7487D01*
X12401Y7524D01*
X12408Y7554D01*
X12419Y7579D01*
X12426Y7602D01*
X12430Y7613D01*
X12434Y7616D01*
X13552Y9553D01*
X13567Y9575D01*
X13571Y9583D01*
X13574Y9586D01*
X13593Y9605D01*
X13600Y9612D01*
X13604Y9616D01*
X13637Y9642D01*
X13667Y9661D01*
X13700Y9675D01*
X13730Y9683D01*
X13756Y9690D01*
X13778Y9694D01*
X13826D01*
X13852Y9686D01*
D02*
G37*
G36*
X13897Y6783D02*
X13852D01*
Y7065D01*
X13663Y6783D01*
X13615D01*
Y7139D01*
X13660D01*
Y6861D01*
X13848Y7139D01*
X13897D01*
Y6783D01*
D02*
G37*
G36*
X12712D02*
X12667D01*
Y7065D01*
X12482Y6783D01*
X12434D01*
Y7139D01*
X12478D01*
Y6861D01*
X12663Y7139D01*
X12712D01*
Y6783D01*
D02*
G37*
G36*
X15163D02*
X15115D01*
X15074Y6891D01*
X14926D01*
X14885Y6783D01*
X14833D01*
X14978Y7139D01*
X15030D01*
X15163Y6783D01*
D02*
G37*
G36*
X14859Y7098D02*
X14741D01*
Y6783D01*
X14693D01*
Y7098D01*
X14578D01*
Y7139D01*
X14859D01*
Y7098D01*
D02*
G37*
G36*
X14556D02*
X14437D01*
Y6783D01*
X14393D01*
Y7098D01*
X14274D01*
Y7139D01*
X14556D01*
Y7098D01*
D02*
G37*
G36*
X14226Y6783D02*
X13959D01*
Y6824D01*
X14178D01*
Y6946D01*
X13982D01*
Y6987D01*
X14178D01*
Y7098D01*
X13967D01*
Y7139D01*
X14226D01*
Y6783D01*
D02*
G37*
G36*
X13563Y7098D02*
X13448D01*
Y6783D01*
X13400D01*
Y7098D01*
X13282D01*
Y7139D01*
X13563D01*
Y7098D01*
D02*
G37*
G36*
X13226Y6783D02*
X13178D01*
Y7139D01*
X13226D01*
Y6783D01*
D02*
G37*
G36*
X12967Y7142D02*
X12993Y7139D01*
X13030Y7120D01*
X13045Y7109D01*
X13056Y7102D01*
X13060Y7098D01*
X13063Y7094D01*
X13078Y7076D01*
X13089Y7054D01*
X13104Y7009D01*
X13108Y6987D01*
X13112Y6972D01*
Y6961D01*
Y6957D01*
X13108Y6924D01*
X13100Y6894D01*
X13097Y6876D01*
X13093Y6872D01*
Y6868D01*
X13074Y6839D01*
X13052Y6820D01*
X13037Y6806D01*
X13030Y6802D01*
X13000Y6791D01*
X12971Y6783D01*
X12949Y6780D01*
X12941D01*
X12908Y6783D01*
X12882Y6791D01*
X12863Y6798D01*
X12856Y6802D01*
X12830Y6820D01*
X12808Y6839D01*
X12797Y6857D01*
X12793Y6865D01*
X12778Y6898D01*
X12775Y6928D01*
X12771Y6954D01*
Y6957D01*
Y6961D01*
X12775Y6998D01*
X12782Y7028D01*
X12789Y7050D01*
X12793Y7054D01*
Y7057D01*
X12812Y7083D01*
X12830Y7105D01*
X12845Y7117D01*
X12852Y7120D01*
X12882Y7135D01*
X12912Y7142D01*
X12934Y7146D01*
X12941D01*
X12967Y7142D01*
D02*
G37*
G36*
X14641Y6554D02*
X14619D01*
Y6635D01*
X14526D01*
Y6554D01*
X14500D01*
Y6728D01*
X14526D01*
Y6654D01*
X14619D01*
Y6728D01*
X14641D01*
Y6554D01*
D02*
G37*
G36*
X13889Y6624D02*
Y6606D01*
X13885Y6591D01*
X13882Y6583D01*
Y6580D01*
X13867Y6565D01*
X13863Y6561D01*
X13860D01*
X13848Y6554D01*
X13834Y6550D01*
X13819D01*
X13800Y6554D01*
X13789Y6557D01*
X13782Y6561D01*
X13778D01*
X13767Y6569D01*
X13760Y6576D01*
X13756Y6583D01*
X13752Y6594D01*
X13748Y6609D01*
Y6620D01*
Y6624D01*
Y6728D01*
X13771D01*
Y6624D01*
Y6602D01*
X13774Y6591D01*
X13778Y6583D01*
X13782Y6580D01*
X13793Y6576D01*
X13804Y6572D01*
X13845D01*
X13856Y6583D01*
X13860Y6591D01*
X13863Y6598D01*
Y6609D01*
Y6620D01*
Y6624D01*
Y6728D01*
X13889D01*
Y6624D01*
D02*
G37*
G36*
X13182Y6728D02*
X13189Y6724D01*
X13193Y6720D01*
X13208Y6709D01*
X13215Y6698D01*
X13223Y6691D01*
Y6687D01*
X13230Y6672D01*
X13234Y6657D01*
Y6643D01*
Y6639D01*
Y6620D01*
X13230Y6606D01*
X13226Y6594D01*
Y6591D01*
X13215Y6580D01*
X13208Y6572D01*
X13200Y6565D01*
X13197D01*
X13182Y6557D01*
X13167Y6554D01*
X13152Y6550D01*
X13149D01*
X13130Y6554D01*
X13115Y6561D01*
X13108Y6565D01*
X13104Y6569D01*
X13093Y6576D01*
X13086Y6591D01*
X13078Y6602D01*
Y6606D01*
X13100Y6613D01*
X13104Y6598D01*
X13112Y6587D01*
X13115Y6583D01*
X13119Y6580D01*
X13141Y6572D01*
X13152D01*
X13171Y6576D01*
X13182D01*
X13193Y6583D01*
X13197Y6591D01*
X13204Y6598D01*
Y6602D01*
X13211Y6628D01*
Y6635D01*
Y6639D01*
X13208Y6661D01*
X13204Y6668D01*
Y6672D01*
X13193Y6694D01*
X13186Y6698D01*
Y6702D01*
X13160Y6709D01*
X13149D01*
X13130Y6706D01*
X13123Y6702D01*
X13108Y6683D01*
X13104Y6676D01*
Y6672D01*
X13082Y6680D01*
X13089Y6694D01*
X13097Y6706D01*
X13100Y6713D01*
X13104Y6717D01*
X13119Y6724D01*
X13134Y6731D01*
X13167D01*
X13182Y6728D01*
D02*
G37*
G36*
X14282Y6706D02*
X14222D01*
Y6554D01*
X14200D01*
Y6706D01*
X14141D01*
Y6728D01*
X14282D01*
Y6706D01*
D02*
G37*
G36*
X13708Y6554D02*
X13685D01*
Y6628D01*
X13645D01*
X13637Y6624D01*
X13634D01*
X13626Y6617D01*
X13623Y6613D01*
X13619Y6606D01*
X13611Y6598D01*
X13608Y6591D01*
X13604Y6587D01*
X13582Y6554D01*
X13552D01*
X13582Y6598D01*
X13597Y6617D01*
X13604Y6620D01*
X13611Y6628D01*
X13615Y6631D01*
X13600Y6635D01*
X13589Y6639D01*
X13582Y6646D01*
X13578D01*
X13571Y6657D01*
X13567Y6668D01*
Y6676D01*
Y6680D01*
X13571Y6698D01*
X13574Y6702D01*
Y6706D01*
X13585Y6720D01*
X13589Y6724D01*
X13593D01*
X13615Y6728D01*
X13708D01*
Y6554D01*
D02*
G37*
G36*
X13530D02*
X13508D01*
Y6631D01*
X13423D01*
Y6650D01*
X13508D01*
Y6706D01*
X13411D01*
Y6728D01*
X13530D01*
Y6554D01*
D02*
G37*
G36*
X13411D02*
X13386D01*
X13367Y6602D01*
X13293D01*
X13274Y6554D01*
X13245D01*
X13319Y6728D01*
X13345D01*
X13411Y6554D01*
D02*
G37*
G36*
X13049D02*
X12915D01*
Y6572D01*
X13023D01*
Y6631D01*
X12926D01*
Y6654D01*
X13023D01*
Y6706D01*
X12919D01*
Y6728D01*
X13049D01*
Y6554D01*
D02*
G37*
G36*
X14411Y6728D02*
X14430Y6720D01*
X14441Y6709D01*
X14445Y6706D01*
X14459Y6683D01*
X14467Y6661D01*
X14471Y6643D01*
Y6639D01*
Y6635D01*
X14467Y6620D01*
X14463Y6606D01*
X14459Y6594D01*
Y6591D01*
X14448Y6580D01*
X14441Y6572D01*
X14433Y6565D01*
X14430D01*
X14415Y6557D01*
X14400Y6554D01*
X14389Y6550D01*
X14385D01*
X14371Y6554D01*
X14356Y6557D01*
X14345Y6561D01*
X14341D01*
X14319Y6580D01*
X14315Y6587D01*
X14311Y6591D01*
X14304Y6606D01*
X14300Y6620D01*
Y6635D01*
Y6639D01*
Y6657D01*
X14304Y6672D01*
X14308Y6683D01*
Y6687D01*
X14319Y6702D01*
X14330Y6709D01*
X14337Y6717D01*
X14341D01*
X14356Y6724D01*
X14371Y6731D01*
X14385D01*
X14411Y6728D01*
D02*
G37*
G36*
X14015D02*
X14022Y6724D01*
X14026D01*
X14041Y6713D01*
X14048Y6709D01*
Y6706D01*
X14056Y6687D01*
Y6683D01*
Y6680D01*
X14052Y6665D01*
X14048Y6661D01*
X14037Y6646D01*
X14030Y6643D01*
X14019Y6639D01*
X14008Y6635D01*
X14000Y6631D01*
X13997D01*
X13978Y6628D01*
X13967Y6624D01*
X13963D01*
X13952Y6617D01*
X13948Y6613D01*
X13941Y6602D01*
Y6598D01*
X13945Y6587D01*
X13948Y6583D01*
X13956Y6576D01*
X13959Y6572D01*
X14015D01*
X14026Y6583D01*
X14030Y6587D01*
X14037Y6602D01*
Y6609D01*
X14063Y6606D01*
X14056Y6583D01*
X14052Y6580D01*
Y6576D01*
X14034Y6561D01*
X14030Y6557D01*
X14026D01*
X14000Y6550D01*
X13985D01*
X13963Y6554D01*
X13956Y6557D01*
X13952D01*
X13934Y6569D01*
X13930Y6572D01*
X13922Y6580D01*
X13919Y6591D01*
Y6594D01*
Y6598D01*
X13922Y6617D01*
X13926Y6624D01*
X13934Y6631D01*
X13941Y6639D01*
X13948Y6643D01*
X13952D01*
X13959Y6646D01*
X13974Y6650D01*
X13985Y6654D01*
X13989D01*
X14008Y6657D01*
X14019Y6661D01*
X14026Y6665D01*
X14030Y6676D01*
Y6683D01*
X14026Y6698D01*
X14022Y6702D01*
X14011Y6706D01*
X14000Y6709D01*
X13989D01*
X13967Y6706D01*
X13963Y6702D01*
X13959D01*
X13952Y6694D01*
X13948Y6687D01*
Y6680D01*
Y6676D01*
X13926D01*
X13930Y6698D01*
X13934Y6702D01*
Y6706D01*
X13948Y6720D01*
X13952Y6724D01*
X13956D01*
X13978Y6731D01*
X13993D01*
X14015Y6728D01*
D02*
G37*
G36*
X5902Y9686D02*
X5928Y9683D01*
X5950Y9675D01*
X5965Y9668D01*
X5980Y9661D01*
X5987Y9657D01*
X5991Y9653D01*
X6006Y9646D01*
X6013Y9642D01*
X6047Y9612D01*
X6076Y9579D01*
X6091Y9557D01*
X6098Y9549D01*
Y9546D01*
X7213Y7613D01*
X7217D01*
Y7609D01*
Y7605D01*
X7224Y7591D01*
X7231Y7579D01*
X7235Y7572D01*
Y7568D01*
X7239Y7557D01*
X7243Y7542D01*
X7246Y7531D01*
Y7528D01*
X7250Y7487D01*
Y7450D01*
X7246Y7416D01*
X7239Y7387D01*
X7228Y7361D01*
X7220Y7342D01*
X7217Y7331D01*
X7213Y7328D01*
X7198Y7302D01*
X7194Y7294D01*
X7191Y7291D01*
X7172Y7272D01*
X7165Y7265D01*
X7161Y7261D01*
X7128Y7235D01*
X7094Y7217D01*
X7061Y7202D01*
X7028Y7194D01*
X7002Y7187D01*
X6980Y7183D01*
X4725D01*
X4706Y7187D01*
X4691D01*
X4688Y7191D01*
X4673D01*
X4658Y7194D01*
X4647Y7198D01*
X4643D01*
X4606Y7213D01*
X4573Y7231D01*
X4547Y7254D01*
X4525Y7276D01*
X4506Y7294D01*
X4495Y7313D01*
X4488Y7324D01*
X4484Y7328D01*
X4480D01*
X4473Y7346D01*
X4465Y7357D01*
X4462Y7365D01*
Y7368D01*
X4458Y7383D01*
X4454Y7398D01*
X4451Y7405D01*
Y7409D01*
X4447Y7450D01*
Y7487D01*
X4451Y7524D01*
X4458Y7554D01*
X4469Y7579D01*
X4476Y7602D01*
X4480Y7613D01*
X4484Y7616D01*
X5602Y9553D01*
X5617Y9575D01*
X5621Y9583D01*
X5624Y9586D01*
X5643Y9605D01*
X5650Y9612D01*
X5654Y9616D01*
X5687Y9642D01*
X5717Y9661D01*
X5750Y9675D01*
X5780Y9683D01*
X5806Y9690D01*
X5828Y9694D01*
X5876D01*
X5902Y9686D01*
D02*
G37*
G36*
X5947Y6783D02*
X5902D01*
Y7065D01*
X5713Y6783D01*
X5665D01*
Y7139D01*
X5710D01*
Y6861D01*
X5898Y7139D01*
X5947D01*
Y6783D01*
D02*
G37*
G36*
X4762D02*
X4717D01*
Y7065D01*
X4532Y6783D01*
X4484D01*
Y7139D01*
X4528D01*
Y6861D01*
X4713Y7139D01*
X4762D01*
Y6783D01*
D02*
G37*
G36*
X7213D02*
X7165D01*
X7124Y6891D01*
X6976D01*
X6935Y6783D01*
X6883D01*
X7028Y7139D01*
X7080D01*
X7213Y6783D01*
D02*
G37*
G36*
X6909Y7098D02*
X6791D01*
Y6783D01*
X6743D01*
Y7098D01*
X6628D01*
Y7139D01*
X6909D01*
Y7098D01*
D02*
G37*
G36*
X6606D02*
X6487D01*
Y6783D01*
X6443D01*
Y7098D01*
X6324D01*
Y7139D01*
X6606D01*
Y7098D01*
D02*
G37*
G36*
X6276Y6783D02*
X6009D01*
Y6824D01*
X6228D01*
Y6946D01*
X6032D01*
Y6987D01*
X6228D01*
Y7098D01*
X6017D01*
Y7139D01*
X6276D01*
Y6783D01*
D02*
G37*
G36*
X5613Y7098D02*
X5498D01*
Y6783D01*
X5450D01*
Y7098D01*
X5332D01*
Y7139D01*
X5613D01*
Y7098D01*
D02*
G37*
G36*
X5276Y6783D02*
X5228D01*
Y7139D01*
X5276D01*
Y6783D01*
D02*
G37*
G36*
X5017Y7142D02*
X5043Y7139D01*
X5080Y7120D01*
X5095Y7109D01*
X5106Y7102D01*
X5110Y7098D01*
X5113Y7094D01*
X5128Y7076D01*
X5139Y7054D01*
X5154Y7009D01*
X5158Y6987D01*
X5162Y6972D01*
Y6961D01*
Y6957D01*
X5158Y6924D01*
X5150Y6894D01*
X5147Y6876D01*
X5143Y6872D01*
Y6868D01*
X5124Y6839D01*
X5102Y6820D01*
X5087Y6806D01*
X5080Y6802D01*
X5050Y6791D01*
X5021Y6783D01*
X4999Y6780D01*
X4991D01*
X4958Y6783D01*
X4932Y6791D01*
X4913Y6798D01*
X4906Y6802D01*
X4880Y6820D01*
X4858Y6839D01*
X4847Y6857D01*
X4843Y6865D01*
X4828Y6898D01*
X4825Y6928D01*
X4821Y6954D01*
Y6957D01*
Y6961D01*
X4825Y6998D01*
X4832Y7028D01*
X4839Y7050D01*
X4843Y7054D01*
Y7057D01*
X4862Y7083D01*
X4880Y7105D01*
X4895Y7117D01*
X4902Y7120D01*
X4932Y7135D01*
X4962Y7142D01*
X4984Y7146D01*
X4991D01*
X5017Y7142D01*
D02*
G37*
G36*
X6691Y6554D02*
X6669D01*
Y6635D01*
X6576D01*
Y6554D01*
X6550D01*
Y6728D01*
X6576D01*
Y6654D01*
X6669D01*
Y6728D01*
X6691D01*
Y6554D01*
D02*
G37*
G36*
X5939Y6624D02*
Y6606D01*
X5935Y6591D01*
X5932Y6583D01*
Y6580D01*
X5917Y6565D01*
X5913Y6561D01*
X5910D01*
X5898Y6554D01*
X5884Y6550D01*
X5869D01*
X5850Y6554D01*
X5839Y6557D01*
X5832Y6561D01*
X5828D01*
X5817Y6569D01*
X5810Y6576D01*
X5806Y6583D01*
X5802Y6594D01*
X5798Y6609D01*
Y6620D01*
Y6624D01*
Y6728D01*
X5821D01*
Y6624D01*
Y6602D01*
X5824Y6591D01*
X5828Y6583D01*
X5832Y6580D01*
X5843Y6576D01*
X5854Y6572D01*
X5895D01*
X5906Y6583D01*
X5910Y6591D01*
X5913Y6598D01*
Y6609D01*
Y6620D01*
Y6624D01*
Y6728D01*
X5939D01*
Y6624D01*
D02*
G37*
G36*
X5232Y6728D02*
X5239Y6724D01*
X5243Y6720D01*
X5258Y6709D01*
X5265Y6698D01*
X5273Y6691D01*
Y6687D01*
X5280Y6672D01*
X5284Y6657D01*
Y6643D01*
Y6639D01*
Y6620D01*
X5280Y6606D01*
X5276Y6594D01*
Y6591D01*
X5265Y6580D01*
X5258Y6572D01*
X5250Y6565D01*
X5247D01*
X5232Y6557D01*
X5217Y6554D01*
X5202Y6550D01*
X5199D01*
X5180Y6554D01*
X5165Y6561D01*
X5158Y6565D01*
X5154Y6569D01*
X5143Y6576D01*
X5136Y6591D01*
X5128Y6602D01*
Y6606D01*
X5150Y6613D01*
X5154Y6598D01*
X5162Y6587D01*
X5165Y6583D01*
X5169Y6580D01*
X5191Y6572D01*
X5202D01*
X5221Y6576D01*
X5232D01*
X5243Y6583D01*
X5247Y6591D01*
X5254Y6598D01*
Y6602D01*
X5261Y6628D01*
Y6635D01*
Y6639D01*
X5258Y6661D01*
X5254Y6668D01*
Y6672D01*
X5243Y6694D01*
X5236Y6698D01*
Y6702D01*
X5210Y6709D01*
X5199D01*
X5180Y6706D01*
X5173Y6702D01*
X5158Y6683D01*
X5154Y6676D01*
Y6672D01*
X5132Y6680D01*
X5139Y6694D01*
X5147Y6706D01*
X5150Y6713D01*
X5154Y6717D01*
X5169Y6724D01*
X5184Y6731D01*
X5217D01*
X5232Y6728D01*
D02*
G37*
G36*
X6332Y6706D02*
X6272D01*
Y6554D01*
X6250D01*
Y6706D01*
X6191D01*
Y6728D01*
X6332D01*
Y6706D01*
D02*
G37*
G36*
X5758Y6554D02*
X5735D01*
Y6628D01*
X5695D01*
X5687Y6624D01*
X5684D01*
X5676Y6617D01*
X5673Y6613D01*
X5669Y6606D01*
X5661Y6598D01*
X5658Y6591D01*
X5654Y6587D01*
X5632Y6554D01*
X5602D01*
X5632Y6598D01*
X5647Y6617D01*
X5654Y6620D01*
X5661Y6628D01*
X5665Y6631D01*
X5650Y6635D01*
X5639Y6639D01*
X5632Y6646D01*
X5628D01*
X5621Y6657D01*
X5617Y6668D01*
Y6676D01*
Y6680D01*
X5621Y6698D01*
X5624Y6702D01*
Y6706D01*
X5635Y6720D01*
X5639Y6724D01*
X5643D01*
X5665Y6728D01*
X5758D01*
Y6554D01*
D02*
G37*
G36*
X5580D02*
X5558D01*
Y6631D01*
X5473D01*
Y6650D01*
X5558D01*
Y6706D01*
X5461D01*
Y6728D01*
X5580D01*
Y6554D01*
D02*
G37*
G36*
X5461D02*
X5436D01*
X5417Y6602D01*
X5343D01*
X5324Y6554D01*
X5295D01*
X5369Y6728D01*
X5395D01*
X5461Y6554D01*
D02*
G37*
G36*
X5099D02*
X4965D01*
Y6572D01*
X5073D01*
Y6631D01*
X4976D01*
Y6654D01*
X5073D01*
Y6706D01*
X4969D01*
Y6728D01*
X5099D01*
Y6554D01*
D02*
G37*
G36*
X6461Y6728D02*
X6480Y6720D01*
X6491Y6709D01*
X6495Y6706D01*
X6509Y6683D01*
X6517Y6661D01*
X6521Y6643D01*
Y6639D01*
Y6635D01*
X6517Y6620D01*
X6513Y6606D01*
X6509Y6594D01*
Y6591D01*
X6498Y6580D01*
X6491Y6572D01*
X6483Y6565D01*
X6480D01*
X6465Y6557D01*
X6450Y6554D01*
X6439Y6550D01*
X6435D01*
X6421Y6554D01*
X6406Y6557D01*
X6395Y6561D01*
X6391D01*
X6369Y6580D01*
X6365Y6587D01*
X6361Y6591D01*
X6354Y6606D01*
X6350Y6620D01*
Y6635D01*
Y6639D01*
Y6657D01*
X6354Y6672D01*
X6358Y6683D01*
Y6687D01*
X6369Y6702D01*
X6380Y6709D01*
X6387Y6717D01*
X6391D01*
X6406Y6724D01*
X6421Y6731D01*
X6435D01*
X6461Y6728D01*
D02*
G37*
G36*
X6065D02*
X6072Y6724D01*
X6076D01*
X6091Y6713D01*
X6098Y6709D01*
Y6706D01*
X6106Y6687D01*
Y6683D01*
Y6680D01*
X6102Y6665D01*
X6098Y6661D01*
X6087Y6646D01*
X6080Y6643D01*
X6069Y6639D01*
X6058Y6635D01*
X6050Y6631D01*
X6047D01*
X6028Y6628D01*
X6017Y6624D01*
X6013D01*
X6002Y6617D01*
X5998Y6613D01*
X5991Y6602D01*
Y6598D01*
X5995Y6587D01*
X5998Y6583D01*
X6006Y6576D01*
X6009Y6572D01*
X6065D01*
X6076Y6583D01*
X6080Y6587D01*
X6087Y6602D01*
Y6609D01*
X6113Y6606D01*
X6106Y6583D01*
X6102Y6580D01*
Y6576D01*
X6084Y6561D01*
X6080Y6557D01*
X6076D01*
X6050Y6550D01*
X6035D01*
X6013Y6554D01*
X6006Y6557D01*
X6002D01*
X5984Y6569D01*
X5980Y6572D01*
X5972Y6580D01*
X5969Y6591D01*
Y6594D01*
Y6598D01*
X5972Y6617D01*
X5976Y6624D01*
X5984Y6631D01*
X5991Y6639D01*
X5998Y6643D01*
X6002D01*
X6009Y6646D01*
X6024Y6650D01*
X6035Y6654D01*
X6039D01*
X6058Y6657D01*
X6069Y6661D01*
X6076Y6665D01*
X6080Y6676D01*
Y6683D01*
X6076Y6698D01*
X6072Y6702D01*
X6061Y6706D01*
X6050Y6709D01*
X6039D01*
X6017Y6706D01*
X6013Y6702D01*
X6009D01*
X6002Y6694D01*
X5998Y6687D01*
Y6680D01*
Y6676D01*
X5976D01*
X5980Y6698D01*
X5984Y6702D01*
Y6706D01*
X5998Y6720D01*
X6002Y6724D01*
X6006D01*
X6028Y6731D01*
X6043D01*
X6065Y6728D01*
D02*
G37*
%LPC*%
G36*
X13804Y9505D02*
X13797D01*
Y9501D01*
X13774D01*
X13756Y9494D01*
X13722Y9483D01*
X13700Y9468D01*
X13697Y9464D01*
X13693Y9461D01*
X13685Y9453D01*
X13678Y9449D01*
Y9446D01*
X13671Y9431D01*
X13667Y9427D01*
X13663D01*
X12604Y7591D01*
Y7587D01*
X12593Y7565D01*
X12586Y7546D01*
X12582Y7531D01*
Y7524D01*
Y7513D01*
Y7509D01*
X12586Y7479D01*
X12589Y7454D01*
X12597Y7439D01*
X12600Y7431D01*
X12630Y7398D01*
X12656Y7376D01*
X12678Y7365D01*
X12686Y7361D01*
X12700D01*
X12708Y7357D01*
X12734D01*
Y7354D01*
X14859D01*
X14882Y7357D01*
X14904Y7361D01*
X14937Y7376D01*
X14959Y7387D01*
X14963Y7394D01*
X14967D01*
X14978Y7409D01*
X14982Y7413D01*
X14989Y7424D01*
X14993Y7431D01*
X14996D01*
X15011Y7468D01*
X15015Y7502D01*
Y7516D01*
X15011Y7528D01*
Y7535D01*
Y7539D01*
X15007Y7557D01*
X15004Y7561D01*
X15000Y7576D01*
X14996Y7579D01*
Y7583D01*
Y7587D01*
X13934Y9424D01*
X13919Y9446D01*
X13904Y9461D01*
X13893Y9472D01*
X13889Y9475D01*
X13885D01*
X13882Y9479D01*
X13878Y9483D01*
X13848Y9498D01*
X13822Y9501D01*
X13804Y9505D01*
D02*
G37*
%LPD*%
G36*
X14004Y8909D02*
X14026Y8890D01*
X14037Y8879D01*
X14045Y8872D01*
X14063Y8850D01*
X14078Y8831D01*
X14089Y8816D01*
X14093Y8809D01*
X14111Y8776D01*
X14126Y8738D01*
X14141Y8705D01*
X14148Y8676D01*
X14156Y8650D01*
X14159Y8627D01*
X14163Y8613D01*
Y8609D01*
X14167Y8568D01*
X14163Y8527D01*
X14156Y8490D01*
X14148Y8457D01*
X14141Y8427D01*
X14130Y8405D01*
X14126Y8390D01*
X14122Y8387D01*
X14108Y8357D01*
X14089Y8327D01*
X14074Y8305D01*
X14067Y8302D01*
Y8298D01*
X14048Y8268D01*
X14030Y8242D01*
X14019Y8216D01*
X14011Y8194D01*
X14004Y8176D01*
Y8161D01*
X14000Y8153D01*
Y8150D01*
Y8127D01*
Y8124D01*
Y8120D01*
Y8102D01*
X14004Y8094D01*
Y8090D01*
X14011Y8057D01*
X14019Y8035D01*
X14026Y8013D01*
X14034Y8002D01*
X14045Y7990D01*
X14048Y7987D01*
X14056Y7983D01*
X14030Y7905D01*
X14000Y7920D01*
X13978Y7942D01*
X13959Y7972D01*
X13945Y8002D01*
X13934Y8031D01*
X13926Y8057D01*
X13922Y8072D01*
Y8079D01*
X13919Y8090D01*
Y8105D01*
Y8116D01*
Y8120D01*
Y8131D01*
Y8142D01*
Y8153D01*
Y8157D01*
X13926Y8205D01*
X13937Y8239D01*
X13948Y8261D01*
X13952Y8268D01*
X13971Y8298D01*
X13985Y8324D01*
X13997Y8342D01*
X14000Y8350D01*
X14022Y8383D01*
X14037Y8405D01*
X14045Y8420D01*
X14048Y8424D01*
X14063Y8457D01*
X14071Y8487D01*
X14082Y8550D01*
X14078Y8605D01*
X14067Y8657D01*
X14052Y8698D01*
X14037Y8731D01*
X14026Y8753D01*
X14022Y8761D01*
X14008Y8783D01*
X13997Y8801D01*
X13985Y8813D01*
X13982Y8816D01*
X13967Y8831D01*
X13952Y8846D01*
X13941Y8853D01*
X13937Y8857D01*
X13934D01*
X13963Y8894D01*
X13985Y8924D01*
X14004Y8909D01*
D02*
G37*
G36*
X13800Y8905D02*
X13819Y8890D01*
X13834Y8875D01*
X13837Y8872D01*
X13856Y8850D01*
X13871Y8831D01*
X13882Y8816D01*
X13885Y8809D01*
X13919Y8738D01*
X13934Y8705D01*
X13945Y8676D01*
X13952Y8650D01*
X13956Y8627D01*
X13959Y8613D01*
Y8609D01*
X13963Y8568D01*
X13959Y8527D01*
X13952Y8490D01*
X13941Y8457D01*
X13934Y8427D01*
X13922Y8405D01*
X13919Y8390D01*
X13915Y8387D01*
X13900Y8361D01*
X13882Y8331D01*
X13867Y8309D01*
X13860Y8302D01*
Y8298D01*
X13841Y8268D01*
X13826Y8242D01*
X13815Y8216D01*
X13804Y8194D01*
X13800Y8176D01*
X13797Y8161D01*
Y8153D01*
Y8150D01*
Y8131D01*
Y8124D01*
Y8120D01*
Y8102D01*
Y8094D01*
Y8090D01*
X13804Y8057D01*
X13811Y8035D01*
X13819Y8013D01*
X13826Y8002D01*
X13837Y7990D01*
X13841Y7987D01*
X13848Y7983D01*
X13822Y7905D01*
X13793Y7920D01*
X13771Y7942D01*
X13752Y7972D01*
X13737Y8002D01*
X13726Y8031D01*
X13719Y8057D01*
X13715Y8072D01*
Y8079D01*
Y8090D01*
X13711Y8105D01*
Y8116D01*
Y8120D01*
Y8139D01*
Y8150D01*
Y8153D01*
Y8157D01*
X13719Y8205D01*
X13730Y8239D01*
X13741Y8261D01*
X13745Y8268D01*
X13763Y8298D01*
X13778Y8324D01*
X13789Y8342D01*
X13793Y8350D01*
X13815Y8379D01*
X13830Y8405D01*
X13837Y8420D01*
X13841Y8424D01*
X13856Y8457D01*
X13863Y8487D01*
X13874Y8550D01*
X13871Y8605D01*
X13860Y8657D01*
X13845Y8698D01*
X13830Y8731D01*
X13819Y8753D01*
X13815Y8761D01*
X13800Y8783D01*
X13789Y8801D01*
X13782Y8813D01*
X13778Y8816D01*
X13760Y8831D01*
X13745Y8846D01*
X13734Y8853D01*
X13730Y8857D01*
X13756Y8894D01*
X13778Y8924D01*
X13800Y8905D01*
D02*
G37*
G36*
X13593D02*
X13611Y8887D01*
X13626Y8875D01*
X13630Y8872D01*
X13648Y8850D01*
X13663Y8831D01*
X13674Y8816D01*
X13678Y8809D01*
X13697Y8776D01*
X13715Y8738D01*
X13726Y8705D01*
X13737Y8676D01*
X13745Y8650D01*
X13748Y8627D01*
X13752Y8613D01*
Y8609D01*
X13756Y8568D01*
X13752Y8527D01*
X13745Y8490D01*
X13737Y8457D01*
X13730Y8427D01*
X13719Y8405D01*
X13715Y8390D01*
X13711Y8387D01*
X13697Y8357D01*
X13678Y8327D01*
X13663Y8305D01*
X13656Y8302D01*
Y8298D01*
X13637Y8268D01*
X13619Y8242D01*
X13608Y8216D01*
X13600Y8194D01*
X13593Y8176D01*
Y8161D01*
X13589Y8153D01*
Y8150D01*
Y8142D01*
Y8131D01*
Y8124D01*
Y8120D01*
Y8113D01*
Y8102D01*
Y8094D01*
Y8090D01*
X13597Y8057D01*
X13604Y8035D01*
X13615Y8013D01*
X13623Y8002D01*
X13630Y7990D01*
X13634Y7987D01*
X13641Y7983D01*
X13615Y7905D01*
X13585Y7920D01*
X13563Y7942D01*
X13545Y7972D01*
X13530Y8002D01*
X13523Y8031D01*
X13515Y8057D01*
X13511Y8072D01*
Y8079D01*
X13508Y8090D01*
Y8105D01*
Y8116D01*
Y8120D01*
Y8146D01*
Y8153D01*
Y8157D01*
X13515Y8205D01*
X13523Y8239D01*
X13534Y8261D01*
X13537Y8268D01*
X13556Y8298D01*
X13571Y8324D01*
X13585Y8342D01*
X13589Y8350D01*
X13611Y8383D01*
X13626Y8405D01*
X13634Y8420D01*
X13637Y8424D01*
X13652Y8457D01*
X13660Y8487D01*
X13671Y8550D01*
X13667Y8605D01*
X13656Y8657D01*
X13641Y8698D01*
X13626Y8731D01*
X13615Y8753D01*
X13611Y8761D01*
X13597Y8783D01*
X13582Y8801D01*
X13574Y8813D01*
X13571Y8816D01*
X13552Y8835D01*
X13537Y8846D01*
X13526Y8853D01*
X13523Y8857D01*
X13552Y8894D01*
X13571Y8924D01*
X13593Y8905D01*
D02*
G37*
G36*
X14419Y7705D02*
X13178D01*
Y7809D01*
X14419D01*
Y7705D01*
D02*
G37*
%LPC*%
G36*
X15004Y7102D02*
X14996Y7076D01*
X14989Y7054D01*
X14982Y7035D01*
X14978Y7031D01*
Y7028D01*
X14941Y6931D01*
X15063D01*
X15022Y7035D01*
X15015Y7061D01*
X15007Y7080D01*
X15004Y7094D01*
Y7102D01*
D02*
G37*
G36*
X12949Y7105D02*
X12941D01*
X12919Y7102D01*
X12897Y7098D01*
X12882Y7091D01*
X12878Y7087D01*
X12860Y7072D01*
X12845Y7054D01*
X12837Y7042D01*
X12834Y7035D01*
X12826Y7009D01*
X12819Y6987D01*
Y6968D01*
Y6965D01*
Y6961D01*
X12826Y6917D01*
X12837Y6883D01*
X12849Y6861D01*
X12856Y6857D01*
Y6854D01*
X12882Y6831D01*
X12912Y6820D01*
X12934Y6817D01*
X12941D01*
X12978Y6824D01*
X13004Y6835D01*
X13023Y6846D01*
X13030Y6854D01*
X13049Y6887D01*
X13060Y6920D01*
Y6935D01*
X13063Y6946D01*
Y6954D01*
Y6957D01*
Y6983D01*
X13056Y7009D01*
X13052Y7028D01*
X13045Y7042D01*
X13034Y7065D01*
X13026Y7072D01*
X13000Y7091D01*
X12971Y7102D01*
X12949Y7105D01*
D02*
G37*
G36*
X13685Y6709D02*
X13619D01*
X13608Y6706D01*
X13604Y6702D01*
X13600Y6698D01*
X13593Y6687D01*
Y6683D01*
Y6680D01*
Y6668D01*
X13597Y6665D01*
X13604Y6657D01*
X13608Y6654D01*
X13611D01*
X13626Y6650D01*
X13685D01*
Y6709D01*
D02*
G37*
G36*
X13334D02*
X13326Y6687D01*
X13319Y6676D01*
Y6672D01*
X13300Y6624D01*
X13360D01*
X13341Y6676D01*
X13334Y6698D01*
Y6706D01*
Y6709D01*
D02*
G37*
G36*
X14400D02*
X14385D01*
X14363Y6706D01*
X14356Y6702D01*
X14352D01*
X14333Y6683D01*
X14330Y6680D01*
Y6676D01*
X14322Y6654D01*
Y6643D01*
Y6639D01*
X14326Y6617D01*
X14330Y6602D01*
X14337Y6591D01*
X14341Y6587D01*
X14356Y6580D01*
X14367Y6576D01*
X14382Y6572D01*
X14385D01*
X14404Y6576D01*
X14415Y6580D01*
X14422Y6583D01*
X14426D01*
X14437Y6598D01*
X14441Y6617D01*
X14445Y6631D01*
Y6635D01*
X14441Y6661D01*
X14433Y6680D01*
X14430Y6691D01*
X14426Y6694D01*
X14411Y6702D01*
X14400Y6709D01*
D02*
G37*
G36*
X5854Y9505D02*
X5847D01*
Y9501D01*
X5824D01*
X5806Y9494D01*
X5773Y9483D01*
X5750Y9468D01*
X5747Y9464D01*
X5743Y9461D01*
X5735Y9453D01*
X5728Y9449D01*
Y9446D01*
X5721Y9431D01*
X5717Y9427D01*
X5713D01*
X4654Y7591D01*
Y7587D01*
X4643Y7565D01*
X4636Y7546D01*
X4632Y7531D01*
Y7524D01*
Y7513D01*
Y7509D01*
X4636Y7479D01*
X4639Y7454D01*
X4647Y7439D01*
X4650Y7431D01*
X4680Y7398D01*
X4706Y7376D01*
X4728Y7365D01*
X4736Y7361D01*
X4750D01*
X4758Y7357D01*
X4784D01*
Y7354D01*
X6909D01*
X6932Y7357D01*
X6954Y7361D01*
X6987Y7376D01*
X7009Y7387D01*
X7013Y7394D01*
X7017D01*
X7028Y7409D01*
X7032Y7413D01*
X7039Y7424D01*
X7043Y7431D01*
X7046D01*
X7061Y7468D01*
X7065Y7502D01*
Y7516D01*
X7061Y7528D01*
Y7535D01*
Y7539D01*
X7057Y7557D01*
X7054Y7561D01*
X7050Y7576D01*
X7046Y7579D01*
Y7583D01*
Y7587D01*
X5984Y9424D01*
X5969Y9446D01*
X5954Y9461D01*
X5943Y9472D01*
X5939Y9475D01*
X5935D01*
X5932Y9479D01*
X5928Y9483D01*
X5898Y9498D01*
X5872Y9501D01*
X5854Y9505D01*
D02*
G37*
%LPD*%
G36*
X6054Y8909D02*
X6076Y8890D01*
X6087Y8879D01*
X6095Y8872D01*
X6113Y8850D01*
X6128Y8831D01*
X6139Y8816D01*
X6143Y8809D01*
X6161Y8776D01*
X6176Y8738D01*
X6191Y8705D01*
X6198Y8676D01*
X6206Y8650D01*
X6209Y8627D01*
X6213Y8613D01*
Y8609D01*
X6217Y8568D01*
X6213Y8527D01*
X6206Y8490D01*
X6198Y8457D01*
X6191Y8427D01*
X6180Y8405D01*
X6176Y8390D01*
X6172Y8387D01*
X6158Y8357D01*
X6139Y8327D01*
X6124Y8305D01*
X6117Y8302D01*
Y8298D01*
X6098Y8268D01*
X6080Y8242D01*
X6069Y8216D01*
X6061Y8194D01*
X6054Y8176D01*
Y8161D01*
X6050Y8153D01*
Y8150D01*
Y8127D01*
Y8124D01*
Y8120D01*
Y8102D01*
X6054Y8094D01*
Y8090D01*
X6061Y8057D01*
X6069Y8035D01*
X6076Y8013D01*
X6084Y8002D01*
X6095Y7990D01*
X6098Y7987D01*
X6106Y7983D01*
X6080Y7905D01*
X6050Y7920D01*
X6028Y7942D01*
X6009Y7972D01*
X5995Y8002D01*
X5984Y8031D01*
X5976Y8057D01*
X5972Y8072D01*
Y8079D01*
X5969Y8090D01*
Y8105D01*
Y8116D01*
Y8120D01*
Y8131D01*
Y8142D01*
Y8153D01*
Y8157D01*
X5976Y8205D01*
X5987Y8239D01*
X5998Y8261D01*
X6002Y8268D01*
X6021Y8298D01*
X6035Y8324D01*
X6047Y8342D01*
X6050Y8350D01*
X6072Y8383D01*
X6087Y8405D01*
X6095Y8420D01*
X6098Y8424D01*
X6113Y8457D01*
X6121Y8487D01*
X6132Y8550D01*
X6128Y8605D01*
X6117Y8657D01*
X6102Y8698D01*
X6087Y8731D01*
X6076Y8753D01*
X6072Y8761D01*
X6058Y8783D01*
X6047Y8801D01*
X6035Y8813D01*
X6032Y8816D01*
X6017Y8831D01*
X6002Y8846D01*
X5991Y8853D01*
X5987Y8857D01*
X5984D01*
X6013Y8894D01*
X6035Y8924D01*
X6054Y8909D01*
D02*
G37*
G36*
X5850Y8905D02*
X5869Y8890D01*
X5884Y8875D01*
X5887Y8872D01*
X5906Y8850D01*
X5921Y8831D01*
X5932Y8816D01*
X5935Y8809D01*
X5969Y8738D01*
X5984Y8705D01*
X5995Y8676D01*
X6002Y8650D01*
X6006Y8627D01*
X6009Y8613D01*
Y8609D01*
X6013Y8568D01*
X6009Y8527D01*
X6002Y8490D01*
X5991Y8457D01*
X5984Y8427D01*
X5972Y8405D01*
X5969Y8390D01*
X5965Y8387D01*
X5950Y8361D01*
X5932Y8331D01*
X5917Y8309D01*
X5910Y8302D01*
Y8298D01*
X5891Y8268D01*
X5876Y8242D01*
X5865Y8216D01*
X5854Y8194D01*
X5850Y8176D01*
X5847Y8161D01*
Y8153D01*
Y8150D01*
Y8131D01*
Y8124D01*
Y8120D01*
Y8102D01*
Y8094D01*
Y8090D01*
X5854Y8057D01*
X5861Y8035D01*
X5869Y8013D01*
X5876Y8002D01*
X5887Y7990D01*
X5891Y7987D01*
X5898Y7983D01*
X5872Y7905D01*
X5843Y7920D01*
X5821Y7942D01*
X5802Y7972D01*
X5787Y8002D01*
X5776Y8031D01*
X5769Y8057D01*
X5765Y8072D01*
Y8079D01*
Y8090D01*
X5761Y8105D01*
Y8116D01*
Y8120D01*
Y8139D01*
Y8150D01*
Y8153D01*
Y8157D01*
X5769Y8205D01*
X5780Y8239D01*
X5791Y8261D01*
X5795Y8268D01*
X5813Y8298D01*
X5828Y8324D01*
X5839Y8342D01*
X5843Y8350D01*
X5865Y8379D01*
X5880Y8405D01*
X5887Y8420D01*
X5891Y8424D01*
X5906Y8457D01*
X5913Y8487D01*
X5924Y8550D01*
X5921Y8605D01*
X5910Y8657D01*
X5895Y8698D01*
X5880Y8731D01*
X5869Y8753D01*
X5865Y8761D01*
X5850Y8783D01*
X5839Y8801D01*
X5832Y8813D01*
X5828Y8816D01*
X5810Y8831D01*
X5795Y8846D01*
X5784Y8853D01*
X5780Y8857D01*
X5806Y8894D01*
X5828Y8924D01*
X5850Y8905D01*
D02*
G37*
G36*
X5643D02*
X5661Y8887D01*
X5676Y8875D01*
X5680Y8872D01*
X5698Y8850D01*
X5713Y8831D01*
X5724Y8816D01*
X5728Y8809D01*
X5747Y8776D01*
X5765Y8738D01*
X5776Y8705D01*
X5787Y8676D01*
X5795Y8650D01*
X5798Y8627D01*
X5802Y8613D01*
Y8609D01*
X5806Y8568D01*
X5802Y8527D01*
X5795Y8490D01*
X5787Y8457D01*
X5780Y8427D01*
X5769Y8405D01*
X5765Y8390D01*
X5761Y8387D01*
X5747Y8357D01*
X5728Y8327D01*
X5713Y8305D01*
X5706Y8302D01*
Y8298D01*
X5687Y8268D01*
X5669Y8242D01*
X5658Y8216D01*
X5650Y8194D01*
X5643Y8176D01*
Y8161D01*
X5639Y8153D01*
Y8150D01*
Y8142D01*
Y8131D01*
Y8124D01*
Y8120D01*
Y8113D01*
Y8102D01*
Y8094D01*
Y8090D01*
X5647Y8057D01*
X5654Y8035D01*
X5665Y8013D01*
X5673Y8002D01*
X5680Y7990D01*
X5684Y7987D01*
X5691Y7983D01*
X5665Y7905D01*
X5635Y7920D01*
X5613Y7942D01*
X5595Y7972D01*
X5580Y8002D01*
X5573Y8031D01*
X5565Y8057D01*
X5561Y8072D01*
Y8079D01*
X5558Y8090D01*
Y8105D01*
Y8116D01*
Y8120D01*
Y8146D01*
Y8153D01*
Y8157D01*
X5565Y8205D01*
X5573Y8239D01*
X5584Y8261D01*
X5587Y8268D01*
X5606Y8298D01*
X5621Y8324D01*
X5635Y8342D01*
X5639Y8350D01*
X5661Y8383D01*
X5676Y8405D01*
X5684Y8420D01*
X5687Y8424D01*
X5702Y8457D01*
X5710Y8487D01*
X5721Y8550D01*
X5717Y8605D01*
X5706Y8657D01*
X5691Y8698D01*
X5676Y8731D01*
X5665Y8753D01*
X5661Y8761D01*
X5647Y8783D01*
X5632Y8801D01*
X5624Y8813D01*
X5621Y8816D01*
X5602Y8835D01*
X5587Y8846D01*
X5576Y8853D01*
X5573Y8857D01*
X5602Y8894D01*
X5621Y8924D01*
X5643Y8905D01*
D02*
G37*
G36*
X6469Y7705D02*
X5228D01*
Y7809D01*
X6469D01*
Y7705D01*
D02*
G37*
%LPC*%
G36*
X7054Y7102D02*
X7046Y7076D01*
X7039Y7054D01*
X7032Y7035D01*
X7028Y7031D01*
Y7028D01*
X6991Y6931D01*
X7113D01*
X7072Y7035D01*
X7065Y7061D01*
X7057Y7080D01*
X7054Y7094D01*
Y7102D01*
D02*
G37*
G36*
X4999Y7105D02*
X4991D01*
X4969Y7102D01*
X4947Y7098D01*
X4932Y7091D01*
X4928Y7087D01*
X4910Y7072D01*
X4895Y7054D01*
X4887Y7042D01*
X4884Y7035D01*
X4876Y7009D01*
X4869Y6987D01*
Y6968D01*
Y6965D01*
Y6961D01*
X4876Y6917D01*
X4887Y6883D01*
X4899Y6861D01*
X4906Y6857D01*
Y6854D01*
X4932Y6831D01*
X4962Y6820D01*
X4984Y6817D01*
X4991D01*
X5028Y6824D01*
X5054Y6835D01*
X5073Y6846D01*
X5080Y6854D01*
X5099Y6887D01*
X5110Y6920D01*
Y6935D01*
X5113Y6946D01*
Y6954D01*
Y6957D01*
Y6983D01*
X5106Y7009D01*
X5102Y7028D01*
X5095Y7042D01*
X5084Y7065D01*
X5076Y7072D01*
X5050Y7091D01*
X5021Y7102D01*
X4999Y7105D01*
D02*
G37*
G36*
X5735Y6709D02*
X5669D01*
X5658Y6706D01*
X5654Y6702D01*
X5650Y6698D01*
X5643Y6687D01*
Y6683D01*
Y6680D01*
Y6668D01*
X5647Y6665D01*
X5654Y6657D01*
X5658Y6654D01*
X5661D01*
X5676Y6650D01*
X5735D01*
Y6709D01*
D02*
G37*
G36*
X5384D02*
X5376Y6687D01*
X5369Y6676D01*
Y6672D01*
X5350Y6624D01*
X5410D01*
X5391Y6676D01*
X5384Y6698D01*
Y6706D01*
Y6709D01*
D02*
G37*
G36*
X6450D02*
X6435D01*
X6413Y6706D01*
X6406Y6702D01*
X6402D01*
X6384Y6683D01*
X6380Y6680D01*
Y6676D01*
X6372Y6654D01*
Y6643D01*
Y6639D01*
X6376Y6617D01*
X6380Y6602D01*
X6387Y6591D01*
X6391Y6587D01*
X6406Y6580D01*
X6417Y6576D01*
X6432Y6572D01*
X6435D01*
X6454Y6576D01*
X6465Y6580D01*
X6472Y6583D01*
X6476D01*
X6487Y6598D01*
X6491Y6617D01*
X6495Y6631D01*
Y6635D01*
X6491Y6661D01*
X6483Y6680D01*
X6480Y6691D01*
X6476Y6694D01*
X6461Y6702D01*
X6450Y6709D01*
D02*
G37*
%LPD*%
M02*
